<?xml version="1.0" encoding="UTF-8"?><svg xmlns="http://www.w3.org/2000/svg" width="100%" height="100%"><defs><font id="web" horiz-adv-x="1160"><!--



NOTICE: This font software is the valuable property 
of Ascender Corporation and/or its suppliers and its 
use by you is covered under the terms of the Web Font 
license agreement between you and Ascender Corporation. 
You may ONLY use this font software with the licensed 
web site. Except as specifically permitted by the license, 
you may not copy this font software. If you have any 
questions, please contact Ascender Corp. 

For more information, please visit http://www.ascenderfonts.com/info/webfont-eula.aspx

Licensed to: clear.com

Serial number: SH-53
--><font-face font-family="" units-per-em="2048" panose-1="2 11 5 2 4 5 4 9 2 3" ascent="2169" descent="-541" alphabetic="0"/><missing-glyph horiz-adv-x="1024" d="M129 0V750H897V0H129ZM256 129H768V623H256V129Z"/><glyph unicode=" " horiz-adv-x="528"/><glyph unicode="!" horiz-adv-x="600" d="M375 397H227L203 1409H399L375 397ZM201 0V201H395V0H201Z"/><glyph unicode="&quot;" horiz-adv-x="813" d="M662 1006H520L500 1409H684L662 1006ZM293 1006H152L131 1409H315L293 1006Z"/><glyph unicode="#" horiz-adv-x="1171" d="M913 893L836 516H1096V408H813L725 0H614L700 408H338L254 0H143L227 408H27V516H252L330 893H78V1001H352L440 1409H551L463 1001H825L913 1409H1024L936 1001H1147V893H913ZM442 893L362 516H725L803 893H442Z"/><glyph unicode="$" horiz-adv-x="1208" d="M1133 391Q1133 313 1105 248T1019 133T872 55T662 20V-141H547V20Q329 27 206 119T49 379L219 416Q230 362 253 317T315 237T411 183T547 158V657Q469 677 391 703T252 772T152 882T113 1051Q113 1136 145 1198T235 1300T372 1362T547 1386V1516H662V1386Q763 1382 837 1360T963 1298T1048 1200T1102 1065L928 1032Q908 1129 846 1187T662 1253V799Q718 785 774 770T883 734T981 685T1060 616T1113 520T1133 391ZM547 1255Q475 1252 425 1235T344 1191T299 1129T285 1053Q285 997 305 960T362 897T445 853T547 819V1255ZM961 389Q961 453 937 494T871 561T776 603T662 635V156Q728 160 783 175T877 219T939 290T961 389Z"/><glyph unicode="%" horiz-adv-x="1896" d="M1786 434Q1786 309 1761 224T1692 86T1590 11T1466 -12Q1400 -12 1343 10T1243 85T1176 222T1151 434Q1151 567 1175 654T1242 792T1343 864T1470 885Q1536 885 1593 865T1693 793T1761 654T1786 434ZM545 0H410L1352 1409H1489L545 0ZM432 1421Q496 1421 553 1401T653 1329T720 1192T745 975Q745 849 720 763T653 624T552 547T428 524Q361 524 303 547T203 623T136 762T111 975Q111 1106 135 1192T203 1329T305 1400T432 1421ZM1638 434Q1638 533 1627 598T1595 703T1542 758T1470 774Q1428 774 1396 758T1342 702T1309 598T1298 434Q1298 339 1309 275T1342 172T1395 115T1468 98Q1507 98 1538 115T1592 171T1626 275T1638 434ZM598 975Q598 1073 587 1138T555 1242T503 1297T432 1313Q389 1313 357 1297T302 1241T269 1137T258 975Q258 880 269 815T302 711T356 654T430 637Q468 637 499 654T552 710T586 815T598 975Z"/><glyph unicode="&amp;" horiz-adv-x="1415" d="M1231 -12Q1183 -12 1140 -2T1058 26T987 67T928 117Q893 86 854 61T767 18T665 -10T543 -20Q439 -20 357 5T218 79T131 202T100 371Q100 450 126 515T198 632T307 726T446 801Q411 870 387 945T362 1102Q362 1168 382 1225T444 1325T553 1392T713 1417Q786 1417 847 1398T954 1343T1024 1254T1049 1133Q1049 1058 1014 1001T920 899T788 817T635 745Q701 632 771 528T930 328Q961 373 986 419T1032 515T1071 620T1108 737L1253 694Q1213 557 1157 445T1032 229Q1085 175 1140 152T1245 129Q1277 129 1306 132T1362 145V10Q1334 -1 1302 -6T1231 -12ZM897 1133Q897 1170 884 1200T846 1251T788 1284T711 1296Q615 1296 563 1245T510 1102Q510 1043 531 979T580 858Q645 884 703 911T804 971T872 1043T897 1133ZM829 215Q733 323 654 438T504 676Q391 628 330 556T268 379Q268 251 342 181T547 111Q635 111 708 139T829 215Z"/><glyph unicode="'" horiz-adv-x="444" d="M293 1006H152L131 1409H315L293 1006Z"/><glyph unicode="(" horiz-adv-x="729" d="M506 -455Q414 -342 346 -233T234 -8T169 232T147 502Q147 646 168 770T234 1009T346 1232T506 1454H690Q594 1336 526 1224T413 996T349 759T328 500Q328 362 348 240T413 3T525 -224T690 -455H506Z"/><glyph unicode=")" horiz-adv-x="729" d="M580 502Q580 358 559 233T494 -8T383 -232T223 -455H37Q133 -337 202 -225T315 3T380 240T401 500Q401 637 380 759T315 996T202 1223T37 1454H223Q315 1341 382 1233T494 1010T559 771T580 502Z"/><glyph unicode="*" horiz-adv-x="872" d="M496 1159L774 1262L821 1130L524 1057L719 807L594 735L436 993L272 737L147 809L346 1057L51 1130L98 1264L379 1157L367 1454H510L496 1159Z"/><glyph unicode="+" horiz-adv-x="1137" d="M641 608V180H494V608H70V754H494V1182H641V754H1065V608H641Z"/><glyph unicode="," horiz-adv-x="457" d="M326 51Q326 -2 322 -45T307 -126T283 -197T248 -262H125Q170 -197 194 -131T219 0H131V219H326V51Z"/><glyph unicode="-" horiz-adv-x="672" d="M86 434V594H586V434H86Z"/><glyph unicode="." horiz-adv-x="457" d="M131 0V219H326V0H131Z"/><glyph unicode="/" horiz-adv-x="854" d="M203 0H20L651 1456H829L203 0Z"/><glyph unicode="0" horiz-adv-x="1137" d="M1057 705Q1057 502 1019 364T914 140T757 17T565 -20Q462 -20 373 17T219 139T116 362T78 705Q78 918 115 1057T219 1280T375 1396T571 1430Q672 1430 760 1397T915 1280T1019 1058T1057 705ZM874 705Q874 873 854 984T795 1162T700 1256T571 1284Q495 1284 437 1256T340 1162T280 984T260 705Q260 543 280 432T340 254T437 157T567 127Q638 127 695 156T791 253T852 432T874 705Z"/><glyph unicode="1" horiz-adv-x="1137" d="M147 0V143H526V1245L188 1032V1180L541 1409H707V143H1030V0H147Z"/><glyph unicode="2" horiz-adv-x="1137" d="M96 0V127Q129 204 178 271T285 398T406 513T529 619T644 721T739 822T805 926T829 1038Q829 1101 810 1147T755 1223T670 1267T563 1282Q509 1282 463 1267T381 1222T324 1148T295 1044L111 1061Q120 1137 152 1204T239 1321T375 1401T563 1430Q668 1430 751 1405T893 1331T983 1210T1014 1044Q1014 945 971 862T861 704T711 563T551 430T409 297T313 156H1036V0H96Z"/><glyph unicode="3" horiz-adv-x="1137" d="M1049 389Q1049 292 1018 216T926 88T776 8T571 -20Q440 -20 351 12T203 98T116 220T78 362L264 379Q272 323 293 277T352 198T443 147T571 129Q707 129 784 196T862 395Q862 473 828 520T742 594T630 630T518 639H416V795H514Q565 795 620 805T720 843T795 918T825 1038Q825 1151 759 1216T561 1282Q442 1282 369 1221T283 1049L102 1063Q113 1156 153 1225T254 1339T395 1407T563 1430Q681 1430 766 1401T905 1321T984 1202T1010 1057Q1010 995 993 941T940 844T849 770T715 723V719Q800 710 863 681T967 607T1028 507T1049 389Z"/><glyph unicode="4" horiz-adv-x="1137" d="M887 319V0H707V319H53V459L688 1409H887V461H1075V319H887ZM707 1194L217 461H707V1194Z"/><glyph unicode="5" horiz-adv-x="1137" d="M1053 459Q1053 353 1021 265T926 114T770 15T553 -20Q442 -20 360 6T220 77T130 184T82 315L264 336Q275 296 295 259T349 192T434 145T557 127Q627 127 684 148T781 212T844 315T866 455Q866 520 845 574T785 668T690 730T561 752Q516 752 478 744T408 722T349 690T299 651H123L170 1409H971V1266H338L307 809Q355 846 427 872T598 899Q703 899 787 867T930 777T1021 637T1053 459Z"/><glyph unicode="6" horiz-adv-x="1137" d="M1049 461Q1049 355 1020 267T933 115T790 16T594 -20Q471 -20 379 27T226 162T135 379T104 672Q104 860 138 1002T238 1239T396 1382T608 1430Q680 1430 743 1415T857 1367T948 1278T1010 1143L838 1112Q810 1203 749 1243T606 1284Q532 1284 472 1249T370 1145T306 970T283 725Q332 816 421 863T625 911Q721 911 799 880T932 791T1018 649T1049 461ZM866 453Q866 526 848 585T794 685T705 749T582 772Q533 772 483 758T393 711T327 625T301 496Q301 418 321 351T378 233T469 154T588 125Q653 125 704 147T792 212T847 316T866 453Z"/><glyph unicode="7" horiz-adv-x="1137" d="M1026 1260Q928 1111 842 959T691 651T590 332T553 0H365Q365 169 403 331T508 649T662 955T852 1253H115V1409H1026V1260Z"/><glyph unicode="8" horiz-adv-x="1137" d="M1049 393Q1049 303 1021 228T934 97T784 11T569 -20Q445 -20 355 11T205 96T117 226T88 391Q88 468 111 528T174 631T264 701T369 737V741Q310 755 264 786T186 860T138 957T121 1069Q121 1143 149 1208T234 1323T373 1401T565 1430Q680 1430 764 1401T904 1323T987 1207T1014 1067Q1014 1009 998 956T950 860T872 786T764 743V739Q825 729 877 703T967 633T1027 529T1049 393ZM827 1057Q827 1110 814 1154T769 1229T688 1278T565 1296Q494 1296 445 1279T365 1230T319 1154T305 1057Q305 1015 316 971T356 891T436 832T567 809Q652 809 703 832T782 891T818 971T827 1057ZM862 410Q862 461 848 508T800 592T709 651T565 674Q486 674 431 652T341 592T290 507T274 406Q274 341 290 288T341 196T433 136T571 115Q653 115 709 136T799 195T847 288T862 410Z"/><glyph unicode="9" horiz-adv-x="1137" d="M1042 733Q1042 545 1007 404T905 168T745 27T532 -20Q451 -20 386 -4T270 48T183 139T125 274L297 301Q325 210 384 168T535 125Q608 125 668 159T771 263T838 436T864 680Q843 633 807 596T724 534T623 495T514 481Q418 481 341 515T209 612T126 761T96 956Q96 1065 127 1153T219 1302T366 1397T565 1430Q800 1430 921 1256T1042 733ZM846 907Q846 985 828 1054T773 1174T683 1254T559 1284Q494 1284 442 1261T354 1196T299 1092T279 956Q279 885 296 824T349 719T436 649T557 623Q607 623 658 640T751 692T819 780T846 907Z"/><glyph unicode=":" horiz-adv-x="457" d="M131 807V1014H326V807H131ZM131 0V207H326V0H131Z"/><glyph unicode=";" horiz-adv-x="457" d="M131 807V1014H326V807H131ZM326 51Q326 -2 322 -45T307 -126T283 -197T248 -262H125Q170 -197 194 -131T219 0H131V207H326V51Z"/><glyph unicode="&lt;" horiz-adv-x="1137" d="M72 571V776L1067 1194V1040L209 674L1067 307V154L72 571Z"/><glyph unicode="=" horiz-adv-x="1137" d="M70 856V1004H1065V856H70ZM70 344V492H1065V344H70Z"/><glyph unicode="&gt;" horiz-adv-x="1137" d="M70 154V307L928 674L70 1040V1194L1065 776V571L70 154Z"/><glyph unicode="?" horiz-adv-x="1145" d="M1063 1032Q1063 961 1043 908T989 814T913 741T827 678Q788 650 751 623T685 563T638 490T618 397H444Q447 467 468 519T524 613T600 686T684 750Q721 777 756 804T820 863T864 934T881 1024Q881 1082 861 1129T803 1209T711 1260T586 1278Q521 1278 466 1259T370 1206T302 1122T268 1012Q220 1015 174 1017T82 1022Q94 1106 130 1179T229 1308T378 1395T580 1427Q694 1427 783 1400T935 1321T1030 1196T1063 1032ZM438 0V201H633V0H438Z"/><glyph unicode="@" horiz-adv-x="1851" d="M1802 725Q1802 581 1766 462T1667 256T1521 122T1343 74Q1304 74 1272 84T1215 116T1178 169T1165 246Q1165 261 1166 286T1171 328H1165Q1144 283 1108 238T1023 157T915 97T791 74Q694 74 630 109T529 199T476 323T461 459Q461 535 476 610T520 753T593 879T691 980T815 1047T963 1071Q1074 1071 1149 1019T1260 879H1266L1309 1049H1425L1309 543Q1290 459 1278 389T1266 276Q1266 246 1274 227T1296 196T1325 180T1356 176Q1418 176 1477 216T1583 328T1658 501T1686 723Q1686 856 1644 970T1518 1169T1311 1300T1028 1348Q890 1348 774 1315T564 1223T399 1082T279 902T207 691T182 461Q182 325 222 204T345 -8T554 -152T854 -205Q942 -205 1024 -193T1182 -159T1327 -109T1460 -47L1505 -137Q1445 -171 1377 -202T1227 -258T1052 -298T848 -313Q654 -313 507 -252T261 -85T112 162T61 461Q61 600 92 728T183 966T327 1166T519 1320T754 1419T1026 1454Q1227 1454 1373 1395T1614 1236T1756 1004T1802 725ZM1212 725Q1212 778 1193 822T1140 899T1058 950T952 969Q890 969 839 947T746 888T675 800T626 694T596 578T586 461Q586 396 600 345T642 256T714 200T817 180Q872 180 927 206T1032 280T1121 398T1184 555Q1188 574 1193 597T1202 643T1209 688T1212 725Z"/><glyph unicode="A" horiz-adv-x="1305" d="M1106 0L952 412H352L199 0H2L541 1409H764L1300 0H1106ZM731 1028Q716 1069 703 1109T678 1183T661 1237T653 1262Q651 1258 644 1236T626 1181T602 1108T573 1028L399 561H905L731 1028Z"/><glyph unicode="B" horiz-adv-x="1389" d="M1278 397Q1278 290 1236 215T1123 92T958 22T760 0H188V1409H700Q817 1409 909 1390T1065 1328T1162 1222T1196 1067Q1196 1008 1180 956T1130 862T1046 789T928 743Q1013 733 1078 704T1188 630T1255 526T1278 397ZM1004 1044Q1004 1159 926 1212T692 1266H379V805H694Q775 805 834 822T930 870T986 946T1004 1044ZM1085 412Q1085 479 1058 527T983 606T868 651T721 666H379V143H735Q808 143 872 157T983 202T1057 285T1085 412Z"/><glyph unicode="C" horiz-adv-x="1448" d="M780 -20Q612 -20 488 34T282 186T160 418T119 711Q119 876 159 1009T280 1235T483 1379T770 1430Q895 1430 987 1401T1146 1323T1258 1213T1335 1085L1161 1020Q1140 1066 1108 1111T1028 1193T918 1251T772 1274Q652 1274 565 1234T422 1120T340 942T313 711Q313 584 342 479T429 297T575 178T780 135Q865 135 932 162T1049 231T1135 324T1194 426L1360 352Q1325 282 1277 216T1160 97T998 12T780 -20Z"/><glyph unicode="D" horiz-adv-x="1534" d="M1415 719Q1415 543 1362 409T1217 184T1000 47T729 0H188V1409H668Q831 1409 968 1369T1205 1244T1359 1029T1415 719ZM1223 719Q1223 862 1182 963T1067 1128T890 1223T664 1253H379V156H707Q818 156 912 191T1076 297T1184 473T1223 719Z"/><glyph unicode="E" horiz-adv-x="1282" d="M188 0V1409H1147V1257H379V797H1087V647H379V152H1188V0H188Z"/><glyph unicode="F" horiz-adv-x="1176" d="M379 1253V725H1061V571H379V0H188V1409H1085V1253H379Z"/><glyph unicode="G" horiz-adv-x="1507" d="M1360 219Q1313 170 1254 127T1122 51T965 -1T780 -20Q612 -20 488 34T282 186T160 418T119 711Q119 876 159 1009T281 1235T484 1379T770 1430Q891 1430 981 1403T1138 1330T1251 1224T1329 1098L1153 1032Q1131 1079 1099 1122T1020 1200T912 1254T770 1274Q651 1274 565 1234T423 1120T340 942T313 711Q313 584 342 479T429 297T575 178T780 135Q849 135 909 147T1021 179T1113 227T1184 283V555H784V705H1360V219Z"/><glyph unicode="H" horiz-adv-x="1563" d="M1192 0V653H379V0H188V1409H379V813H1192V1409H1378V0H1192Z"/><glyph unicode="I" horiz-adv-x="567" d="M188 0V1409H379V0H188Z"/><glyph unicode="J" horiz-adv-x="1081" d="M481 -20Q302 -20 195 69T51 350L238 381Q249 316 272 270T326 193T398 149T483 135Q596 135 653 206T711 416V1253H440V1409H901V420Q901 319 874 238T794 100T663 11T481 -20Z"/><glyph unicode="K" horiz-adv-x="1321" d="M1083 0L524 676L379 567V0H188V1409H379V731L1008 1409H1233L645 797L1313 0H1083Z"/><glyph unicode="L" horiz-adv-x="1114" d="M188 0V1409H379V156H1053V0H188Z"/><glyph unicode="M" horiz-adv-x="1864" d="M1505 0V948Q1505 999 1505 1047T1508 1134Q1509 1179 1511 1219Q1494 1173 1477 1126Q1463 1086 1446 1041T1413 958L1014 0H858L453 958Q439 988 422 1032T390 1118Q372 1166 354 1219Q355 1171 356 1123Q357 1081 357 1034T358 948V0H188V1409H442L866 422Q867 418 870 408T879 383T890 351T903 316Q918 275 936 225Q957 278 974 321Q981 339 988 357T1001 390T1011 416T1016 430L1425 1409H1677V0H1505Z"/><glyph unicode="N" horiz-adv-x="1620" d="M1204 0L352 1190Q353 1146 355 1102Q356 1064 357 1020T358 936V0H188V1409H410L1270 211Q1268 251 1266 297Q1264 336 1263 385T1262 485V1409H1434V0H1204Z"/><glyph unicode="O" horiz-adv-x="1597" d="M1477 711Q1477 546 1431 411T1297 180T1083 32T797 -20Q628 -20 501 34T289 186T162 418T119 711Q119 876 164 1009T295 1235T508 1379T799 1430Q962 1430 1088 1379T1301 1234T1432 1007T1477 711ZM1282 711Q1282 838 1251 942T1159 1120T1008 1234T799 1274Q677 1274 586 1234T435 1120T344 942T313 711Q313 584 344 479T436 297T588 178T797 135Q924 135 1015 178T1166 297T1253 480T1282 711Z"/><glyph unicode="P" horiz-adv-x="1311" d="M1208 985Q1208 898 1179 819T1089 680T937 585T723 549H379V0H188V1409H711Q836 1409 929 1379T1084 1293T1177 1159T1208 985ZM1016 983Q1016 1117 934 1191T688 1266H379V690H696Q778 690 838 712T938 773T997 866T1016 983Z"/><glyph unicode="Q" horiz-adv-x="1597" d="M1477 711Q1477 562 1440 439T1333 222T1161 71T930 -6Q951 -70 977 -115T1038 -188T1113 -230T1206 -244Q1234 -244 1266 -240T1321 -231V-365Q1283 -374 1238 -380T1143 -387Q1057 -387 993 -362T881 -289T797 -172T735 -16Q582 -8 467 49T274 203T158 429T119 711Q119 876 164 1009T295 1235T508 1379T799 1430Q962 1430 1088 1379T1301 1234T1432 1007T1477 711ZM1282 711Q1282 838 1251 942T1159 1120T1008 1234T799 1274Q677 1274 586 1234T435 1120T344 942T313 711Q313 584 344 479T436 297T588 178T797 135Q924 135 1015 178T1166 297T1253 480T1282 711Z"/><glyph unicode="R" horiz-adv-x="1335" d="M1044 0L678 590H379V0H188V1409H711Q831 1409 923 1382T1079 1302T1175 1175T1208 1006Q1208 939 1189 875T1127 758T1020 667T864 612L1264 0H1044ZM1016 1004Q1016 1132 931 1199T692 1266H379V731H700Q782 731 842 752T940 810T997 897T1016 1004Z"/><glyph unicode="S" horiz-adv-x="1348" d="M1233 389Q1233 300 1200 225T1099 96T925 11T676 -20Q424 -20 284 72T104 338L289 375Q302 320 329 275T403 198T518 147T682 129Q762 129 828 143T943 188T1017 265T1044 379Q1044 452 1008 498T914 573T783 621T635 657Q579 671 523 686T416 722T319 771T241 838T189 930T170 1053Q170 1153 209 1224T316 1342T477 1409T680 1430Q805 1430 894 1410T1044 1348T1142 1247T1200 1106L1012 1073Q1000 1124 975 1164T910 1231T813 1272T678 1286Q587 1286 526 1269T427 1221T373 1151T356 1063Q356 1000 385 959T464 891T581 844T723 807Q784 792 845 777T963 741T1069 691T1155 621T1212 523T1233 389Z"/><glyph unicode="T" horiz-adv-x="1206" d="M694 1253V0H504V1253H27V1409H1184V1253H694Z"/><glyph unicode="U" horiz-adv-x="1509" d="M739 -20Q619 -20 517 11T339 107T221 273T178 512V1409H369V528Q369 424 398 350T478 228T597 158T745 135Q823 135 894 159T1020 232T1108 359T1141 541V1409H1331V530Q1331 389 1286 286T1161 114T973 13T739 -20Z"/><glyph unicode="V" horiz-adv-x="1272" d="M735 0H537L12 1409H213L553 428Q568 383 583 336T610 248Q624 201 637 158Q649 200 663 246Q675 285 689 332T721 428L1059 1409H1260L735 0Z"/><glyph unicode="W" horiz-adv-x="2017" d="M1575 0H1358L1083 926Q1072 964 1059 1016T1035 1115Q1022 1170 1010 1227Q997 1169 984 1114Q973 1066 960 1015T936 926L659 0H442L10 1409H209L475 514Q493 451 509 389T537 278Q551 220 563 168Q579 237 595 304Q602 332 609 363T624 424T640 481T655 532L918 1409H1100L1364 532Q1371 509 1378 482T1394 425T1409 364T1424 305Q1440 238 1456 168Q1471 228 1486 289Q1499 341 1514 401T1546 514L1808 1409H2007L1575 0Z"/><glyph unicode="X" horiz-adv-x="1253" d="M1030 0L627 616L223 0H18L516 741L59 1409H264L627 856L989 1409H1194L750 741L1235 0H1030Z"/><glyph unicode="Y" horiz-adv-x="1212" d="M700 584V0H510L512 584L8 1409H213L604 741L999 1409H1204L700 584Z"/><glyph unicode="Z" horiz-adv-x="1253" d="M1192 0H70V143L928 1253H143V1409H1145V1270L287 156H1192V0Z"/><glyph unicode="[" horiz-adv-x="664" d="M176 -455V1454H633V1325H350V-326H633V-455H176Z"/><glyph unicode="\" horiz-adv-x="854" d="M649 0L23 1456H201L831 0H649Z"/><glyph unicode="]" horiz-adv-x="664" d="M31 -455V-326H315V1325H31V1454H487V-455H31Z"/><glyph unicode="^" horiz-adv-x="1137" d="M936 502L567 1305L201 502H49L467 1409H670L1090 502H936Z"/><glyph unicode="_" horiz-adv-x="1024" d="M-20 -264V-178H1044V-264H-20Z"/><glyph unicode="`" horiz-adv-x="602" d="M416 1141L106 1419V1448H293L530 1161V1141H416Z"/><glyph unicode="a" horiz-adv-x="1225" d="M1057 -10Q1006 -10 970 3T910 44T875 112T860 207H854Q825 155 786 113T696 42T582 -4T440 -20Q357 -20 294 1T189 62T126 158T104 285Q104 376 143 438T249 539T405 595T594 614L854 618V659Q854 794 790 856T602 918Q548 918 503 909T424 877T369 820T340 733L152 750Q162 814 192 867T277 960T413 1020T606 1042Q815 1042 925 949T1036 678V262Q1036 188 1057 160T1128 131Q1144 131 1165 132T1204 137V6Q1175 -2 1135 -6T1057 -10ZM492 117Q582 117 649 146T762 220T831 320T854 428V504L639 500Q569 498 507 488T397 455T321 391T293 289Q293 207 342 162T492 117Z"/><glyph unicode="b" horiz-adv-x="1262" d="M1163 516Q1163 400 1136 302T1054 133T913 21T713 -20Q591 -20 493 32T342 184H340Q340 158 339 128T336 70T333 24T330 0H156Q157 9 158 30T160 82T161 148T162 223V1452H342V1001Q342 971 342 942T340 888Q339 860 338 834H342Q399 939 495 991T733 1044Q844 1044 925 1004T1059 894T1137 727T1163 516ZM977 516Q977 609 958 682T898 806T799 884T659 911Q597 911 539 891T437 823T365 699T338 508Q338 397 364 321T435 199T537 133T657 113Q809 113 893 214T977 516Z"/><glyph unicode="c" horiz-adv-x="1147" d="M598 -20Q472 -20 378 18T222 126T129 291T98 504Q98 631 132 731T231 900T389 1005T602 1042Q702 1042 779 1020T913 956T1004 854T1053 719L868 705Q850 804 782 852T598 901Q442 901 362 803T281 516Q281 318 365 219T600 119Q655 119 702 132T785 172T844 239T877 334L1059 311Q1050 244 1016 184T925 79T785 7T598 -20Z"/><glyph unicode="d" horiz-adv-x="1262" d="M934 0Q932 4 930 24T927 72T924 131T922 188H920Q863 85 768 33T528 -20Q417 -20 336 20T202 131T124 298T98 508Q98 624 125 722T208 891T349 1002T549 1042Q677 1042 773 991T920 840H922Q922 845 922 862T921 904T921 958T920 1016V1452H1100V223Q1100 184 1100 148T1102 82T1104 31T1106 0H934ZM924 516Q924 627 898 703T827 825T725 891T604 911Q451 911 369 810T287 508Q287 415 306 342T365 218T463 140T602 113Q664 113 722 133T825 201T897 326T924 516Z"/><glyph unicode="e" horiz-adv-x="1188" d="M287 479Q287 399 304 332T360 217T459 142T604 115Q659 115 707 126T795 158T862 210T905 281L1063 236Q1045 191 1011 146T921 64T787 4T604 -20Q353 -20 226 115T98 518Q98 665 141 765T256 927T418 1015T606 1042Q733 1042 825 1002T976 891T1064 720T1092 502V479H287ZM608 909Q551 909 496 894T396 844T322 751T289 604H913Q908 674 889 730T832 826T739 887T608 909Z"/><glyph unicode="f" horiz-adv-x="608" d="M375 891V0H195V891H43V1022H195V1174Q195 1233 206 1283T246 1371T327 1430T459 1452Q491 1452 525 1449T586 1440V1313Q569 1316 547 1318T506 1321Q466 1321 441 1310T401 1279T381 1228T375 1159V1022H586V891H375Z"/><glyph unicode="g" horiz-adv-x="1260" d="M528 -8Q417 -8 336 31T202 140T124 305T98 514Q98 630 125 727T208 894T349 1003T549 1042Q677 1042 773 990T920 840H922Q922 865 923 895T926 953T930 999T934 1022H1106Q1105 1013 1104 992T1102 942T1101 876T1100 801V31Q1100 -87 1067 -177T971 -329T814 -423T600 -455Q497 -455 419 -436T284 -382T192 -297T141 -188L322 -162Q343 -237 415 -282T604 -328Q676 -328 734 -307T834 -241T898 -131T920 27Q920 52 920 82T921 139Q921 170 922 201H920Q863 97 768 45T528 -8ZM924 520Q924 629 898 704T827 825T725 891T604 911Q451 911 369 810T287 514Q287 423 306 351T365 229T463 152T602 125Q664 125 722 145T825 211T897 333T924 520Z"/><glyph unicode="h" horiz-adv-x="1249" d="M915 0V598Q915 667 901 723T855 819T773 881T651 903Q583 903 527 877T429 805T365 695T342 557V0H162V1454H342V1018Q342 985 341 951T339 887T336 836T334 807H338Q401 929 495 985T719 1042Q819 1042 890 1014T1007 934T1074 809T1096 647V0H915Z"/><glyph unicode="i" horiz-adv-x="504" d="M162 1282V1454H342V1282H162ZM162 0V1022H342V0H162Z"/><glyph unicode="j" horiz-adv-x="504" d="M162 1282V1454H342V1282H162ZM342 -164Q342 -226 332 -279T294 -371T221 -432T102 -455Q68 -455 36 -453T-25 -446V-307Q-12 -309 6 -311T37 -313Q75 -313 99 -303T138 -272T157 -217T162 -137V1022H342V-164Z"/><glyph unicode="k" horiz-adv-x="1094" d="M870 0L477 489L342 367V0H162V1454H342V545L842 1022H1053L598 600L1081 0H870Z"/><glyph unicode="l" horiz-adv-x="504" d="M162 0V1454H342V0H162Z"/><glyph unicode="m" horiz-adv-x="1933" d="M1599 0V586Q1599 655 1587 713T1545 813T1469 879T1352 903Q1289 903 1236 878T1144 807T1083 699T1061 565V0H881V586Q881 655 869 713T827 813T751 879T633 903Q569 903 516 877T424 805T364 695T342 557V0H162V791Q162 825 162 862T160 933T158 991T156 1022H326Q327 1017 328 990T330 929T333 861T334 807H338Q400 929 488 985T700 1042Q775 1042 832 1024T931 973T999 895T1040 795H1044Q1106 915 1198 978T1419 1042Q1520 1042 1589 1010T1700 922T1761 791T1780 631V0H1599Z"/><glyph unicode="n" horiz-adv-x="1249" d="M915 0V586Q915 655 902 713T857 813T776 879T651 903Q583 903 527 877T429 805T365 695T342 557V0H162V791Q162 825 162 862T160 933T158 991T156 1022H326Q327 1017 328 990T330 929T333 861T334 807H338Q401 929 495 985T719 1042Q823 1042 895 1010T1011 922T1076 791T1096 631V0H915Z"/><glyph unicode="o" horiz-adv-x="1239" d="M1141 512Q1141 395 1108 298T1009 130T845 20T614 -20Q489 -20 393 19T232 128T132 297T98 512Q98 626 130 723T226 891T389 1002T621 1042Q760 1042 859 1003T1020 893T1112 725T1141 512ZM952 512Q952 717 869 813T625 909Q462 909 375 811T287 512Q287 409 311 334T377 210T480 137T612 113Q775 113 863 209T952 512Z"/><glyph unicode="p" horiz-adv-x="1264" d="M1165 516Q1165 400 1138 302T1054 133T913 21T713 -20Q653 -20 598 -7T494 31T408 94T344 182H338Q339 180 339 162T340 117T341 59T342 -2V-455H162V801Q162 840 162 876T160 941T158 992T156 1022H330Q331 1019 332 999T335 951T338 892T340 834H344Q401 939 496 991T733 1044Q844 1044 925 1004T1059 894T1139 727T1165 516ZM977 516Q977 609 958 682T899 806T800 884T662 911Q600 911 542 891T439 823T367 699T340 508Q340 397 366 321T437 199T538 133T659 113Q812 113 894 214T977 516Z"/><glyph unicode="q" horiz-adv-x="1260" d="M920 -455V20Q920 46 920 74T921 129Q921 158 922 188H920Q863 85 768 33T528 -20Q417 -20 336 20T202 131T124 298T98 508Q98 624 125 722T208 891T349 1002T549 1042Q677 1042 773 990T920 840H922Q922 865 923 895T926 953T930 999T934 1022H1106Q1105 1013 1104 992T1102 942T1101 876T1100 801V-455H920ZM924 516Q924 627 898 703T827 825T725 891T604 911Q451 911 369 810T287 508Q287 415 306 342T365 218T463 140T602 113Q664 113 722 133T825 201T897 326T924 516Z"/><glyph unicode="r" horiz-adv-x="735" d="M162 0V770Q162 804 162 845T160 924T158 988T156 1022H326Q327 1017 328 988T330 921T333 848T334 791H338Q359 853 383 900T439 978T516 1026T621 1042Q644 1042 665 1039T698 1032V866Q678 871 653 874T596 877Q531 877 483 849T404 772T357 654T342 504V0H162Z"/><glyph unicode="s" horiz-adv-x="1044" d="M961 289Q961 217 932 160T846 63T709 2T522 -20Q422 -20 346 -7T214 38T122 120T68 248L227 279Q239 224 265 191T329 140T416 117T522 111Q580 111 629 119T714 147T770 198T791 274Q791 322 765 352T694 402T589 435T461 463Q396 476 333 495T221 546T141 627T111 748Q111 887 216 964T524 1042Q609 1042 678 1028T800 982T887 901T936 782L774 762Q766 807 744 835T688 881T612 904T524 911Q402 911 341 874T279 766Q279 723 300 696T361 652T454 622T573 594Q644 578 713 558T838 504T927 419T961 289Z"/><glyph unicode="t" horiz-adv-x="653" d="M356 891V268Q356 190 389 154T485 117Q511 117 543 121T602 131V10Q557 -2 507 -9T401 -16Q292 -16 234 45T176 229V891H41V1022H178L236 1264H356V1022H590V891H356Z"/><glyph unicode="u" horiz-adv-x="1249" d="M926 0Q925 6 924 33T920 93T917 161T915 215H909Q846 93 753 37T530 -20Q426 -20 354 12T238 101T174 233T154 393V1022H334V438Q334 369 347 311T392 211T473 145T598 121Q665 121 721 147T819 218T882 327T905 465V1022H1087V233Q1087 199 1088 161T1090 90T1092 32T1094 0H926Z"/><glyph unicode="v" horiz-adv-x="1075" d="M639 0H426L23 1022H215L463 348Q471 327 480 298T499 239T517 181T532 131Q538 152 547 180T567 237T587 295T606 346L862 1022H1053L639 0Z"/><glyph unicode="w" horiz-adv-x="1733" d="M1352 0H1141L924 682Q914 710 904 744T886 811Q876 847 866 885Q855 848 844 811Q835 779 825 743T805 678L584 0H373L33 1022H211L430 317Q438 294 446 262T463 200Q472 166 481 129Q491 167 502 202Q511 232 520 264T537 317L766 1022H967L1188 317Q1196 291 1206 259T1224 197Q1234 164 1243 129Q1252 164 1262 198Q1270 227 1279 259T1296 317L1524 1022H1700L1352 0Z"/><glyph unicode="x" horiz-adv-x="1036" d="M807 0L516 414L223 0H29L414 526L47 1022H246L516 631L784 1022H985L618 528L1008 0H807Z"/><glyph unicode="y" horiz-adv-x="1061" d="M598 -80Q559 -178 521 -248T441 -365T352 -433T248 -455Q201 -455 168 -453T102 -444V-309Q121 -312 145 -313T186 -315Q265 -315 319 -247T422 -49L440 0L23 1022H215L422 469Q424 463 432 439T452 382T477 312T502 243T522 186T532 156Q533 162 541 185T561 241T586 309T612 378T632 434T643 465L848 1022H1038L598 -80Z"/><glyph unicode="z" horiz-adv-x="958" d="M66 0V137L657 883H106V1022H860V885L268 139H897V0H66Z"/><glyph unicode="{" horiz-adv-x="733" d="M532 -455Q467 -455 418 -435T335 -376T285 -284T268 -162V199Q268 262 254 306T212 378T144 420T53 436V563Q104 565 144 579T211 621T253 693T268 799V1161Q268 1302 334 1378T532 1454H707V1325H604Q513 1325 475 1272T436 1110V754Q436 704 421 662T380 588T319 534T242 502V500Q285 490 320 468T381 414T421 339T436 246V-111Q436 -217 474 -271T604 -326H707V-455H532Z"/><glyph unicode="|" horiz-adv-x="530" d="M182 -455V1454H348V-455H182Z"/><glyph unicode="}" horiz-adv-x="733" d="M29 -326H129Q220 -326 259 -272T299 -111V246Q299 297 313 339T352 413T413 468T492 500V502Q450 512 415 534T354 588T314 662T299 754V1110Q299 1218 260 1271T129 1325H29V1454H201Q332 1454 398 1378T465 1161V799Q465 737 479 693T521 621T589 579T682 563V436Q630 434 590 420T522 378T480 306T465 199V-162Q465 -230 448 -284T398 -376T316 -434T201 -455H29V-326Z"/><glyph unicode="~" horiz-adv-x="1137" d="M813 553Q744 553 672 575T526 623Q397 668 309 668Q271 668 239 662T176 645T118 617T61 580V723Q111 761 177 784T324 807Q364 807 404 801T482 784T558 761T633 735Q654 727 679 720T729 705T780 694T829 690Q898 690 959 715T1073 782V633Q1041 610 1012 595T952 571T887 557T813 553Z"/><glyph unicode=" " horiz-adv-x="563"/><glyph unicode="¡" horiz-adv-x="600" d="M225 625H371L397 -385H199L225 625ZM397 1024V823H203V1024H397Z"/><glyph unicode="¢" horiz-adv-x="1122" d="M530 -31V164Q418 172 335 213T196 323T114 484T86 686Q86 804 115 899T202 1064T341 1174T530 1225V1409H645V1225Q732 1218 800 1191T917 1120T996 1022T1040 903L856 889Q848 934 828 972T774 1039T694 1082T586 1098Q508 1098 449 1071T350 992T289 866T268 698Q268 599 289 523T352 395T453 316T588 289Q699 289 773 348T864 516L1047 504Q1038 442 1009 384T929 280T808 203T645 164V-31H530Z"/><glyph unicode="£" horiz-adv-x="1180" d="M45 139Q97 161 134 188T196 253T231 345T242 471V633H53V776H242V995Q242 1085 260 1164T325 1302T452 1396T657 1430Q752 1430 823 1406T944 1340T1020 1241T1057 1116L879 1098Q860 1197 803 1241T655 1286Q538 1286 479 1222T420 1040V776H827V633H420V479Q420 420 413 369T387 276T338 201T262 143H719Q784 143 828 164T900 219T944 299T969 393L1137 367Q1128 290 1101 223T1027 107T916 29T764 0H45V139Z"/><glyph unicode="¤" horiz-adv-x="1061" d="M100 684Q100 755 120 818T178 936L78 1036L182 1139L281 1038Q335 1077 398 1098T535 1120Q606 1120 669 1099T786 1040L883 1137L987 1032L891 936Q928 882 949 819T971 684Q971 613 949 549T889 432L989 332L887 227L786 328Q732 291 669 271T535 250Q463 250 399 271T283 330L178 225L76 330L178 432Q141 486 121 549T100 684ZM254 686Q254 628 276 577T336 488T426 428T535 406Q592 406 643 428T732 488T793 577T815 686Q815 744 793 795T733 884T643 944T535 967Q477 967 426 945T337 884T276 795T254 686Z"/><glyph unicode="¥" horiz-adv-x="1212" d="M756 709H1077V584H694V430H1077V303H694V0H516V303H135V430H516V584H135V709H455L14 1409H213L604 762L999 1409H1198L756 709Z"/><glyph unicode="¦" horiz-adv-x="530" d="M182 676V1454H348V676H182ZM182 -455V324H348V-455H182Z"/><glyph unicode="§" horiz-adv-x="1075" d="M969 115Q969 42 941 -17T857 -117T719 -180T530 -203Q437 -203 361 -189T226 -143T129 -59T70 70L225 100Q239 46 267 11T334 -45T423 -74T530 -82Q591 -82 642 -72T731 -39T790 18T811 100Q811 149 789 183T723 243T616 288T469 328Q404 343 339 366T222 426T138 514T106 641Q106 686 122 727T167 804T239 865T334 907Q292 921 255 944T189 998T144 1070T127 1159Q127 1297 233 1375T541 1454Q620 1454 689 1439T813 1393T903 1312T954 1194L793 1171Q784 1216 761 1246T705 1296T629 1324T541 1333Q413 1333 350 1289T287 1174Q287 1128 311 1096T377 1042T473 1004T588 973Q656 957 725 934T851 874T942 784T977 655Q977 610 963 567T922 488T853 424T758 383Q856 345 912 282T969 115ZM819 633Q819 679 798 713T736 772T638 816T506 850Q450 847 406 831T330 790T283 730T266 655Q266 609 287 575T348 517T442 475T565 444Q619 445 665 457T746 493T799 552T819 633Z"/><glyph unicode="¨" horiz-adv-x="649" d="M190 1343V1159H45V1343H190ZM602 1343V1159H459V1343H602Z"/><glyph unicode="©" horiz-adv-x="1567" d="M1505 707Q1505 607 1479 515T1406 342T1294 196T1148 83T975 10T782 -16Q683 -16 591 10T418 83T272 195T158 341T85 514T59 707Q59 807 85 899T158 1071T271 1218T417 1331T590 1404T782 1430Q932 1430 1063 1373T1293 1218T1448 989T1505 707ZM1413 707Q1413 793 1391 873T1327 1023T1228 1150T1100 1249T950 1312T782 1335Q652 1335 538 1286T339 1151T204 951T154 707Q154 576 203 462T338 262T538 127T782 78Q869 78 949 100T1100 163T1228 261T1327 389T1390 539T1413 707ZM793 279Q692 279 618 311T494 400T421 536T397 709Q397 806 421 884T493 1018T615 1103T786 1133Q861 1133 917 1115T1013 1068T1080 1001T1126 924L1012 891Q1000 917 981 942T935 986T871 1016T788 1028Q719 1028 670 1005T588 941T541 840T526 709Q526 637 542 577T592 474T676 407T793 383Q842 383 879 396T945 432T992 482T1026 539L1141 504Q1119 461 1090 421T1020 349T924 298T793 279Z"/><glyph unicode="ª" horiz-adv-x="909" d="M344 651Q223 651 155 708T86 870Q86 939 115 985T193 1059T308 1099T444 1112L635 1116V1159Q635 1252 588 1296T455 1341Q371 1341 325 1307T268 1196L119 1206Q126 1253 150 1294T217 1366T319 1414T459 1432Q612 1432 695 1365T778 1165V874Q778 816 793 786T852 756Q864 756 878 758T901 764V670Q878 664 850 661T799 657Q717 657 680 699T639 817H635Q592 740 519 696T344 651ZM385 752Q443 752 489 774T568 831T618 905T635 983V1034L481 1030Q431 1028 387 1021T309 998T256 954T236 883Q236 855 244 831T271 790T318 762T385 752Z"/><glyph unicode="«" horiz-adv-x="1130" d="M893 141L555 506V569L893 940H1051V909L713 537L1053 170V141H893ZM416 141L80 506V569L416 940H573V909L238 537L575 170V141H416Z"/><glyph unicode="¬" horiz-adv-x="1137" d="M1065 180H920V608H70V754H1065V180Z"/><glyph unicode="­" horiz-adv-x="672" d="M86 434V594H586V434H86Z"/><glyph unicode="®" horiz-adv-x="1567" d="M1505 707Q1505 607 1479 515T1406 342T1294 196T1148 83T975 10T782 -16Q683 -16 591 10T418 83T272 195T158 341T85 514T59 707Q59 807 85 899T158 1071T271 1218T417 1331T590 1404T782 1430Q932 1430 1063 1373T1293 1218T1448 989T1505 707ZM1413 707Q1413 793 1391 873T1327 1023T1228 1150T1100 1249T950 1312T782 1335Q652 1335 538 1286T339 1151T204 951T154 707Q154 576 203 462T338 262T538 127T782 78Q869 78 949 100T1100 163T1228 261T1327 389T1390 539T1413 707ZM983 289L784 625H623V289H496V1120H803Q945 1120 1020 1057T1096 883Q1096 781 1044 720T907 639L1128 289H983ZM969 881Q969 950 922 986T793 1022H623V721H805Q885 721 927 763T969 881Z"/><glyph unicode="¯" horiz-adv-x="1024" d="M-20 1368V1454H1044V1368H-20Z"/><glyph unicode="°" horiz-adv-x="786" d="M682 1149Q682 1089 660 1037T598 947T506 886T393 864Q334 864 282 886T191 946T129 1037T106 1149Q106 1209 129 1260T191 1350T282 1410T393 1432Q453 1432 505 1411T597 1351T659 1261T682 1149ZM573 1149Q573 1186 559 1218T521 1275T464 1313T393 1327Q356 1327 324 1313T267 1275T228 1219T213 1149Q213 1111 227 1079T266 1022T323 983T393 969Q431 969 464 983T521 1021T559 1078T573 1149Z"/><glyph unicode="±" horiz-adv-x="1137" d="M639 678V285H494V678H68V825H494V1217H639V825H1065V678H639ZM68 0V145H1065V0H68Z"/><glyph unicode="²" horiz-adv-x="758" d="M86 563V666Q107 713 138 751T205 823T281 886T358 944Q394 971 427 997T485 1052T524 1111T539 1178Q539 1240 503 1276T391 1313Q323 1313 280 1278T229 1176L96 1180Q102 1231 125 1275T186 1352T278 1402T399 1421Q532 1421 604 1359T676 1188Q676 1138 658 1096T609 1017T540 948T461 885Q427 859 394 834T332 784T281 732T246 676H690V563H86Z"/><glyph unicode="³" horiz-adv-x="758" d="M698 795Q698 679 620 615T399 551Q312 551 254 570T160 622T106 695T82 780L217 793Q228 727 271 692T397 657Q476 657 517 693T559 803Q559 848 540 875T493 916T432 935T371 940H309V1049H367Q395 1049 426 1055T482 1078T524 1120T541 1186Q541 1246 503 1279T393 1313Q325 1313 284 1279T236 1182L100 1192Q107 1250 132 1293T197 1364T288 1407T397 1421Q466 1421 518 1404T606 1358T658 1288T676 1202Q676 1128 633 1074T500 1001V997Q552 992 589 974T651 928T686 867T698 795Z"/><glyph unicode="´" horiz-adv-x="602" d="M90 1141V1161Q150 1232 209 1304T328 1448H516V1419Q438 1348 360 1279T205 1141H90Z"/><glyph unicode="µ" horiz-adv-x="1278" d="M1096 -10Q1004 -10 962 49T920 215H915Q817 -20 584 -20Q502 -20 438 11T340 102H336Q337 86 338 58T339 -2T340 -64T340 -113V-455H160V1022H340V436Q340 367 354 309T399 210T481 145T606 121Q673 121 729 146T826 217T888 325T911 463V1022H1094V297Q1094 210 1110 171T1174 131Q1198 131 1227 137V4Q1202 -4 1165 -7T1096 -10Z"/><glyph unicode="¶" horiz-adv-x="1081" d="M870 1307V-264H758V1307H541V-264H428V694Q347 694 281 717T167 787T93 900T66 1057Q66 1141 91 1206T163 1317T280 1385T436 1409H999V1307H870Z"/><glyph unicode="·" horiz-adv-x="475" d="M139 475V694H334V475H139Z"/><glyph unicode="¸" horiz-adv-x="584" d="M483 -258Q483 -300 468 -334T421 -393T336 -431T209 -444Q189 -444 167 -444T119 -440V-342Q168 -348 205 -348Q246 -348 274 -342T319 -324T344 -297T352 -262Q352 -222 322 -201T219 -180Q205 -180 191 -180T162 -182L227 0H334L295 -100Q389 -103 436 -144T483 -258Z"/><glyph unicode="¹" horiz-adv-x="758" d="M111 668H334V1290Q283 1258 232 1226T129 1161V1272Q183 1306 235 1340T342 1409H465V668H668V563H111V668Z"/><glyph unicode="º" horiz-adv-x="971" d="M872 1042Q872 955 848 884T774 760T652 680T481 651Q388 651 316 679T196 760T122 883T96 1042Q96 1126 120 1197T192 1321T314 1402T485 1432Q588 1432 661 1403T781 1322T850 1199T872 1042ZM723 1042Q723 1193 663 1260T489 1327Q373 1327 311 1259T248 1042Q248 965 265 911T312 823T385 772T479 756Q596 756 659 822T723 1042Z"/><glyph unicode="»" horiz-adv-x="1130" d="M715 141H557V170L895 537L559 909V940H715L1053 569V506L715 141ZM240 141H80V170L418 537L82 909V940H240L575 569V506L240 141Z"/><glyph unicode="¼" horiz-adv-x="1753" d="M532 0H385L1266 1409H1411L532 0ZM357 668H580V1290Q529 1258 478 1226T375 1161V1272Q429 1306 481 1340T588 1409H711V668H914V563H357V668ZM1483 187V2H1352V187H938V291L1337 848H1483V293H1610V187H1483ZM1356 713Q1349 699 1339 681T1317 645T1296 609T1278 582L1069 293H1352V582Q1352 592 1352 609T1353 645T1354 682T1356 713Z"/><glyph unicode="½" horiz-adv-x="1753" d="M518 0H371L1252 1409H1397L518 0ZM357 668H580V1290Q529 1258 478 1226T375 1161V1272Q429 1306 481 1340T588 1409H711V668H914V563H357V668ZM999 2V105Q1020 152 1051 190T1118 262T1194 325T1271 383Q1307 410 1340 436T1398 491T1437 550T1452 617Q1452 679 1416 715T1304 752Q1236 752 1193 717T1142 615L1009 619Q1015 670 1038 714T1099 791T1191 841T1312 860Q1445 860 1517 798T1589 627Q1589 577 1571 535T1522 456T1453 387T1374 324Q1340 298 1307 273T1245 223T1194 171T1159 115H1603V2H999Z"/><glyph unicode="¾" horiz-adv-x="1753" d="M544 0H397L1278 1409H1423L544 0ZM1483 187V2H1352V187H938V291L1337 848H1483V293H1610V187H1483ZM1356 713Q1349 699 1339 681T1317 645T1296 609T1278 582L1069 293H1352V582Q1352 592 1352 609T1353 645T1354 682T1356 713ZM698 795Q698 679 620 615T399 551Q312 551 254 570T160 622T106 695T82 780L217 793Q228 727 271 692T397 657Q476 657 517 693T559 803Q559 848 540 875T493 916T432 935T371 940H309V1049H367Q395 1049 426 1055T482 1078T524 1120T541 1186Q541 1246 503 1279T393 1313Q325 1313 284 1279T236 1182L100 1192Q107 1250 132 1293T197 1364T288 1407T397 1421Q466 1421 518 1404T606 1358T658 1288T676 1202Q676 1128 633 1074T500 1001V997Q552 992 589 974T651 928T686 867T698 795Z"/><glyph unicode="¿" horiz-adv-x="1145" d="M80 -8Q80 63 100 116T154 210T230 283T315 346Q354 374 391 401T457 461T504 534T524 627H698Q696 557 674 505T618 411T543 338T459 274Q421 247 386 220T323 161T279 90T262 0Q262 -59 282 -106T340 -186T432 -236T557 -254Q622 -254 677 -235T773 -182T840 -98T874 12Q922 9 968 7T1061 2Q1049 -82 1013 -155T914 -284T765 -371T563 -403Q449 -403 360 -376T208 -297T113 -172T80 -8ZM705 1024V823H510V1024H705Z"/><glyph unicode="À" horiz-adv-x="1303" d="M1106 0L952 412H352L199 0H2L541 1409H764L1300 0H1106ZM731 1028Q716 1069 703 1109T678 1183T661 1237T653 1262Q651 1258 644 1236T626 1181T602 1108T573 1028L399 561H905L731 1028ZM633 1530L323 1747V1776H510L747 1550V1530H633Z"/><glyph unicode="Á" horiz-adv-x="1303" d="M1106 0L952 412H352L199 0H2L541 1409H764L1300 0H1106ZM731 1028Q716 1069 703 1109T678 1183T661 1237T653 1262Q651 1258 644 1236T626 1181T602 1108T573 1028L399 561H905L731 1028ZM551 1530V1550L789 1776H975V1747L666 1530H551Z"/><glyph unicode="Â" horiz-adv-x="1303" d="M1106 0L952 412H352L199 0H2L541 1409H764L1300 0H1106ZM731 1028Q716 1069 703 1109T678 1183T661 1237T653 1262Q651 1258 644 1236T626 1181T602 1108T573 1028L399 561H905L731 1028ZM981 1550V1530H876L657 1669H655L423 1530H319V1550L573 1790H737L981 1550Z"/><glyph unicode="Ã" horiz-adv-x="1303" d="M1106 0L952 412H352L199 0H2L541 1409H764L1300 0H1106ZM731 1028Q716 1069 703 1109T678 1183T661 1237T653 1262Q651 1258 644 1236T626 1181T602 1108T573 1028L399 561H905L731 1028ZM805 1530Q763 1530 721 1550T640 1594T566 1639T499 1659Q472 1659 453 1650T422 1623T403 1582T391 1530H290Q295 1575 305 1619T337 1698T397 1756T493 1778Q537 1778 579 1758T660 1714T733 1669T798 1649Q825 1649 843 1658T874 1685T894 1726T905 1778H1007Q1002 1734 992 1690T961 1611T902 1553T805 1530Z"/><glyph unicode="Ä" horiz-adv-x="1303" d="M1106 0L952 412H352L199 0H2L541 1409H764L1300 0H1106ZM731 1028Q716 1069 703 1109T678 1183T661 1237T653 1262Q651 1258 644 1236T626 1181T602 1108T573 1028L399 561H905L731 1028ZM518 1714V1530H373V1714H518ZM930 1714V1530H787V1714H930Z"/><glyph unicode="Å" horiz-adv-x="1303" d="M1106 0L952 412H352L199 0H2L541 1409H764L1300 0H1106ZM731 1028Q716 1069 703 1109T678 1183T661 1237T653 1262Q651 1258 644 1236T626 1181T602 1108T573 1028L399 561H905L731 1028ZM409 1563Q409 1613 428 1657T480 1734T557 1786T651 1805Q701 1805 745 1786T822 1734T874 1657T893 1563Q893 1513 874 1469T822 1392T745 1340T651 1321Q601 1321 557 1340T480 1392T428 1469T409 1563ZM501 1563Q501 1532 512 1505T544 1458T592 1425T651 1413Q682 1413 710 1425T758 1457T790 1505T802 1563Q802 1594 790 1621T758 1669T710 1700T651 1712Q619 1712 592 1701T545 1669T513 1622T501 1563Z"/><glyph unicode="Æ" horiz-adv-x="1913" d="M1819 0H868V412H389L193 0H-6L680 1409H1778V1255H1059V795H1716V647H1059V152H1819V0ZM788 1262L459 561H868V1262H788Z"/><glyph unicode="Ç" horiz-adv-x="1448" d="M780 -20Q612 -20 488 34T282 186T160 418T119 711Q119 876 159 1009T280 1235T483 1379T770 1430Q895 1430 987 1401T1146 1323T1258 1213T1335 1085L1161 1020Q1140 1066 1108 1111T1028 1193T918 1251T772 1274Q652 1274 565 1234T422 1120T340 942T313 711Q313 584 342 479T429 297T575 178T780 135Q865 135 932 162T1049 231T1135 324T1194 426L1360 352Q1325 282 1277 216T1160 97T998 12T780 -20ZM960 -258Q960 -300 945 -334T898 -393T813 -431T686 -444Q666 -444 644 -444T596 -440V-342Q645 -348 682 -348Q723 -348 751 -342T796 -324T821 -297T829 -262Q829 -222 799 -201T696 -180Q682 -180 668 -180T639 -182L704 0H811L772 -100Q866 -103 913 -144T960 -258Z"/><glyph unicode="È" horiz-adv-x="1282" d="M188 0V1409H1147V1257H379V797H1087V647H379V152H1188V0H188ZM678 1530L368 1747V1776H555L792 1550V1530H678Z"/><glyph unicode="É" horiz-adv-x="1282" d="M188 0V1409H1147V1257H379V797H1087V647H379V152H1188V0H188ZM518 1530V1550L756 1776H942V1747L633 1530H518Z"/><glyph unicode="Ê" horiz-adv-x="1282" d="M188 0V1409H1147V1257H379V797H1087V647H379V152H1188V0H188ZM1004 1550V1530H899L680 1669H678L446 1530H342V1550L596 1790H760L1004 1550Z"/><glyph unicode="Ë" horiz-adv-x="1282" d="M188 0V1409H1147V1257H379V797H1087V647H379V152H1188V0H188ZM542 1714V1530H397V1714H542ZM954 1714V1530H811V1714H954Z"/><glyph unicode="Ì" horiz-adv-x="567" d="M188 0V1409H379V0H188ZM275 1530L-35 1747V1776H152L389 1550V1530H275Z"/><glyph unicode="Í" horiz-adv-x="567" d="M188 0V1409H379V0H188ZM172 1530V1550L410 1776H596V1747L287 1530H172Z"/><glyph unicode="Î" horiz-adv-x="567" d="M188 0V1409H379V0H188ZM873 1550V1530H768L549 1669H547L315 1530H211V1550L465 1790H629L873 1550Z"/><glyph unicode="Ï" horiz-adv-x="567" d="M188 0V1409H379V0H188ZM407 1714V1530H262V1714H407ZM819 1714V1530H676V1714H819Z"/><glyph unicode="Ð" horiz-adv-x="1534" d="M1415 719Q1415 543 1362 409T1217 184T1000 47T729 0H188V623H10V778H188V1409H668Q831 1409 968 1369T1205 1244T1359 1029T1415 719ZM1223 719Q1223 862 1182 963T1067 1128T890 1223T664 1253H379V778H743V623H379V156H707Q818 156 912 191T1076 297T1184 473T1223 719Z"/><glyph unicode="Ñ" horiz-adv-x="1620" d="M1204 0L352 1190Q353 1146 355 1102Q356 1064 357 1020T358 936V0H188V1409H410L1270 211Q1268 251 1266 297Q1264 336 1263 385T1262 485V1409H1434V0H1204ZM979 1530Q937 1530 895 1550T814 1594T740 1639T673 1659Q646 1659 627 1650T596 1623T577 1582T565 1530H464Q469 1575 479 1619T511 1698T571 1756T667 1778Q711 1778 753 1758T834 1714T907 1669T972 1649Q999 1649 1017 1658T1048 1685T1068 1726T1079 1778H1181Q1176 1734 1166 1690T1135 1611T1076 1553T979 1530Z"/><glyph unicode="Ò" horiz-adv-x="1597" d="M1477 711Q1477 546 1431 411T1297 180T1083 32T797 -20Q628 -20 501 34T289 186T162 418T119 711Q119 876 164 1009T295 1235T508 1379T799 1430Q962 1430 1088 1379T1301 1234T1432 1007T1477 711ZM1282 711Q1282 838 1251 942T1159 1120T1008 1234T799 1274Q677 1274 586 1234T435 1120T344 942T313 711Q313 584 344 479T436 297T588 178T797 135Q924 135 1015 178T1166 297T1253 480T1282 711ZM797 1530L487 1747V1776H674L911 1550V1530H797Z"/><glyph unicode="Ó" horiz-adv-x="1597" d="M1477 711Q1477 546 1431 411T1297 180T1083 32T797 -20Q628 -20 501 34T289 186T162 418T119 711Q119 876 164 1009T295 1235T508 1379T799 1430Q962 1430 1088 1379T1301 1234T1432 1007T1477 711ZM1282 711Q1282 838 1251 942T1159 1120T1008 1234T799 1274Q677 1274 586 1234T435 1120T344 942T313 711Q313 584 344 479T436 297T588 178T797 135Q924 135 1015 178T1166 297T1253 480T1282 711ZM682 1530V1550L920 1776H1106V1747L797 1530H682Z"/><glyph unicode="Ô" horiz-adv-x="1597" d="M1477 711Q1477 546 1431 411T1297 180T1083 32T797 -20Q628 -20 501 34T289 186T162 418T119 711Q119 876 164 1009T295 1235T508 1379T799 1430Q962 1430 1088 1379T1301 1234T1432 1007T1477 711ZM1282 711Q1282 838 1251 942T1159 1120T1008 1234T799 1274Q677 1274 586 1234T435 1120T344 942T313 711Q313 584 344 479T436 297T588 178T797 135Q924 135 1015 178T1166 297T1253 480T1282 711ZM1137 1550V1530H1032L813 1669H811L579 1530H475V1550L729 1790H893L1137 1550Z"/><glyph unicode="Õ" horiz-adv-x="1597" d="M1477 711Q1477 546 1431 411T1297 180T1083 32T797 -20Q628 -20 501 34T289 186T162 418T119 711Q119 876 164 1009T295 1235T508 1379T799 1430Q962 1430 1088 1379T1301 1234T1432 1007T1477 711ZM1282 711Q1282 838 1251 942T1159 1120T1008 1234T799 1274Q677 1274 586 1234T435 1120T344 942T313 711Q313 584 344 479T436 297T588 178T797 135Q924 135 1015 178T1166 297T1253 480T1282 711ZM957 1530Q915 1530 873 1550T792 1594T718 1639T651 1659Q624 1659 605 1650T574 1623T555 1582T543 1530H442Q447 1575 457 1619T489 1698T549 1756T645 1778Q689 1778 731 1758T812 1714T885 1669T950 1649Q977 1649 995 1658T1026 1685T1046 1726T1057 1778H1159Q1154 1734 1144 1690T1113 1611T1054 1553T957 1530Z"/><glyph unicode="Ö" horiz-adv-x="1597" d="M1477 711Q1477 546 1431 411T1297 180T1083 32T797 -20Q628 -20 501 34T289 186T162 418T119 711Q119 876 164 1009T295 1235T508 1379T799 1430Q962 1430 1088 1379T1301 1234T1432 1007T1477 711ZM1282 711Q1282 838 1251 942T1159 1120T1008 1234T799 1274Q677 1274 586 1234T435 1120T344 942T313 711Q313 584 344 479T436 297T588 178T797 135Q924 135 1015 178T1166 297T1253 480T1282 711ZM661 1714V1530H516V1714H661ZM1073 1714V1530H930V1714H1073Z"/><glyph unicode="×" horiz-adv-x="1133" d="M109 330L463 684L111 1036L215 1139L565 786L915 1137L1020 1032L670 684L1022 332L920 227L567 580L211 225L109 330Z"/><glyph unicode="Ø" horiz-adv-x="1597" d="M1477 711Q1477 546 1431 411T1296 180T1082 32T795 -20Q660 -20 553 15T365 115L221 -51H70L283 193Q201 290 160 421T119 711Q119 876 163 1009T294 1235T506 1379T797 1430Q930 1430 1039 1397T1229 1298L1370 1466H1518L1311 1221Q1392 1127 1434 998T1477 711ZM1282 711Q1282 822 1259 916T1186 1079L479 248Q539 194 617 165T795 135Q922 135 1014 177T1165 296T1253 479T1282 711ZM313 711Q313 599 337 503T408 338L1114 1165Q1055 1221 971 1247T791 1274Q672 1274 583 1234T433 1119T343 942T313 711Z"/><glyph unicode="Ù" horiz-adv-x="1509" d="M739 -20Q619 -20 517 11T339 107T221 273T178 512V1409H369V528Q369 424 398 350T478 228T597 158T745 135Q823 135 894 159T1020 232T1108 359T1141 541V1409H1331V530Q1331 389 1286 286T1161 114T973 13T739 -20ZM732 1530L422 1747V1776H609L846 1550V1530H732Z"/><glyph unicode="Ú" horiz-adv-x="1509" d="M739 -20Q619 -20 517 11T339 107T221 273T178 512V1409H369V528Q369 424 398 350T478 228T597 158T745 135Q823 135 894 159T1020 232T1108 359T1141 541V1409H1331V530Q1331 389 1286 286T1161 114T973 13T739 -20ZM639 1530V1550L877 1776H1063V1747L754 1530H639Z"/><glyph unicode="Û" horiz-adv-x="1509" d="M739 -20Q619 -20 517 11T339 107T221 273T178 512V1409H369V528Q369 424 398 350T478 228T597 158T745 135Q823 135 894 159T1020 232T1108 359T1141 541V1409H1331V530Q1331 389 1286 286T1161 114T973 13T739 -20ZM1094 1550V1530H989L770 1669H768L536 1530H432V1550L686 1790H850L1094 1550Z"/><glyph unicode="Ü" horiz-adv-x="1509" d="M739 -20Q619 -20 517 11T339 107T221 273T178 512V1409H369V528Q369 424 398 350T478 228T597 158T745 135Q823 135 894 159T1020 232T1108 359T1141 541V1409H1331V530Q1331 389 1286 286T1161 114T973 13T739 -20ZM620 1714V1530H475V1714H620ZM1032 1714V1530H889V1714H1032Z"/><glyph unicode="Ý" horiz-adv-x="1212" d="M700 584V0H510L512 584L8 1409H213L604 741L999 1409H1204L700 584ZM492 1530V1550L730 1776H916V1747L607 1530H492Z"/><glyph unicode="Þ" horiz-adv-x="1311" d="M1208 735Q1208 647 1179 568T1089 428T937 333T723 297H379V0H188V1409H379V1157H711Q836 1157 929 1127T1084 1042T1177 908T1208 735ZM1016 731Q1016 865 934 939T688 1014H379V438H696Q778 438 838 460T938 521T997 614T1016 731Z"/><glyph unicode="ß" horiz-adv-x="1262" d="M838 119Q875 119 907 128T964 155T1002 202T1016 268Q1016 308 1003 339T967 398T912 450T842 502Q800 533 761 561T691 621T643 689T625 770Q625 808 635 838T662 893T704 937T756 975Q786 994 808 1011T844 1048T865 1091T872 1145Q872 1217 810 1260T629 1303Q562 1303 509 1285T419 1229T362 1132T342 989V0H162V997Q162 1112 194 1198T285 1341T430 1426T621 1454Q718 1454 797 1433T931 1373T1017 1279T1047 1157Q1047 1114 1038 1080T1010 1016T966 963T905 915Q883 900 863 886T827 857T802 825T793 786Q793 756 810 731T855 682T919 635T993 584Q1031 557 1066 528T1127 464T1170 384T1186 281Q1186 210 1160 154T1088 60T977 1T834 -20Q752 -20 690 -7T582 36T506 116T459 240L616 270Q629 226 649 197T697 150T760 126T838 119Z"/><glyph unicode="à" horiz-adv-x="1225" d="M1057 -10Q1006 -10 970 3T910 44T875 112T860 207H854Q825 155 786 113T696 42T582 -4T440 -20Q357 -20 294 1T189 62T126 158T104 285Q104 376 143 438T249 539T405 595T594 614L854 618V659Q854 794 790 856T602 918Q548 918 503 909T424 877T369 820T340 733L152 750Q162 814 192 867T277 960T413 1020T606 1042Q815 1042 925 949T1036 678V262Q1036 188 1057 160T1128 131Q1144 131 1165 132T1204 137V6Q1175 -2 1135 -6T1057 -10ZM492 117Q582 117 649 146T762 220T831 320T854 428V504L639 500Q569 498 507 488T397 455T321 391T293 289Q293 207 342 162T492 117ZM604 1141L294 1419V1448H481L718 1161V1141H604Z"/><glyph unicode="á" horiz-adv-x="1225" d="M1057 -10Q1006 -10 970 3T910 44T875 112T860 207H854Q825 155 786 113T696 42T582 -4T440 -20Q357 -20 294 1T189 62T126 158T104 285Q104 376 143 438T249 539T405 595T594 614L854 618V659Q854 794 790 856T602 918Q548 918 503 909T424 877T369 820T340 733L152 750Q162 814 192 867T277 960T413 1020T606 1042Q815 1042 925 949T1036 678V262Q1036 188 1057 160T1128 131Q1144 131 1165 132T1204 137V6Q1175 -2 1135 -6T1057 -10ZM492 117Q582 117 649 146T762 220T831 320T854 428V504L639 500Q569 498 507 488T397 455T321 391T293 289Q293 207 342 162T492 117ZM491 1141V1161Q551 1232 610 1304T729 1448H917V1419Q839 1348 761 1279T606 1141H491Z"/><glyph unicode="â" horiz-adv-x="1225" d="M1057 -10Q1006 -10 970 3T910 44T875 112T860 207H854Q825 155 786 113T696 42T582 -4T440 -20Q357 -20 294 1T189 62T126 158T104 285Q104 376 143 438T249 539T405 595T594 614L854 618V659Q854 794 790 856T602 918Q548 918 503 909T424 877T369 820T340 733L152 750Q162 814 192 867T277 960T413 1020T606 1042Q815 1042 925 949T1036 678V262Q1036 188 1057 160T1128 131Q1144 131 1165 132T1204 137V6Q1175 -2 1135 -6T1057 -10ZM492 117Q582 117 649 146T762 220T831 320T854 428V504L639 500Q569 498 507 488T397 455T321 391T293 289Q293 207 342 162T492 117ZM943 1161V1141H838L619 1280H617L385 1141H281V1161L535 1401H699L943 1161Z"/><glyph unicode="ã" horiz-adv-x="1225" d="M1057 -10Q1006 -10 970 3T910 44T875 112T860 207H854Q825 155 786 113T696 42T582 -4T440 -20Q357 -20 294 1T189 62T126 158T104 285Q104 376 143 438T249 539T405 595T594 614L854 618V659Q854 794 790 856T602 918Q548 918 503 909T424 877T369 820T340 733L152 750Q162 814 192 867T277 960T413 1020T606 1042Q815 1042 925 949T1036 678V262Q1036 188 1057 160T1128 131Q1144 131 1165 132T1204 137V6Q1175 -2 1135 -6T1057 -10ZM492 117Q582 117 649 146T762 220T831 320T854 428V504L639 500Q569 498 507 488T397 455T321 391T293 289Q293 207 342 162T492 117ZM758 1141Q716 1141 674 1161T593 1205T519 1250T452 1270Q425 1270 406 1261T375 1234T356 1193T344 1141H243Q248 1186 258 1230T290 1309T350 1367T446 1389Q490 1389 532 1369T613 1325T686 1280T751 1260Q778 1260 796 1269T827 1296T847 1337T858 1389H960Q955 1345 945 1301T914 1222T855 1164T758 1141Z"/><glyph unicode="ä" horiz-adv-x="1225" d="M1057 -10Q1006 -10 970 3T910 44T875 112T860 207H854Q825 155 786 113T696 42T582 -4T440 -20Q357 -20 294 1T189 62T126 158T104 285Q104 376 143 438T249 539T405 595T594 614L854 618V659Q854 794 790 856T602 918Q548 918 503 909T424 877T369 820T340 733L152 750Q162 814 192 867T277 960T413 1020T606 1042Q815 1042 925 949T1036 678V262Q1036 188 1057 160T1128 131Q1144 131 1165 132T1204 137V6Q1175 -2 1135 -6T1057 -10ZM492 117Q582 117 649 146T762 220T831 320T854 428V504L639 500Q569 498 507 488T397 455T321 391T293 289Q293 207 342 162T492 117ZM479 1343V1159H334V1343H479ZM891 1343V1159H748V1343H891Z"/><glyph unicode="å" horiz-adv-x="1225" d="M1057 -10Q1006 -10 970 3T910 44T875 112T860 207H854Q825 155 786 113T696 42T582 -4T440 -20Q357 -20 294 1T189 62T126 158T104 285Q104 376 143 438T249 539T405 595T594 614L854 618V659Q854 794 790 856T602 918Q548 918 503 909T424 877T369 820T340 733L152 750Q162 814 192 867T277 960T413 1020T606 1042Q815 1042 925 949T1036 678V262Q1036 188 1057 160T1128 131Q1144 131 1165 132T1204 137V6Q1175 -2 1135 -6T1057 -10ZM492 117Q582 117 649 146T762 220T831 320T854 428V504L639 500Q569 498 507 488T397 455T321 391T293 289Q293 207 342 162T492 117ZM850 1366Q850 1316 831 1272T779 1195T702 1143T608 1124Q558 1124 514 1143T437 1195T385 1272T366 1366Q366 1416 385 1460T437 1536T514 1588T608 1607Q658 1607 702 1588T779 1537T831 1460T850 1366ZM757 1366Q757 1397 746 1424T714 1472T667 1503T608 1515Q576 1515 549 1504T502 1472T470 1425T458 1366Q458 1334 469 1307T501 1259T549 1226T608 1214Q639 1214 666 1226T714 1258T745 1306T757 1366Z"/><glyph unicode="æ" horiz-adv-x="1937" d="M602 918Q543 918 497 909T417 877T365 820T338 733L150 750Q160 814 191 867T277 960T412 1020T600 1042Q740 1042 832 991T963 842Q997 896 1041 934T1137 996T1246 1031T1362 1042Q1489 1042 1579 1002T1728 891T1813 720T1841 502V479H1036Q1036 400 1054 333T1112 218T1213 142T1360 115Q1480 115 1553 161T1657 281L1815 236Q1793 188 1759 142T1672 60T1541 2T1358 -20Q1208 -20 1100 46T936 240Q785 -20 455 -20Q372 -20 307 0T196 58T128 151T104 276Q104 371 142 435T247 539T402 595T594 614L854 618V666Q854 733 838 780T789 858T710 903T602 918ZM1358 909Q1297 909 1241 895T1142 847T1070 753T1038 604H1665Q1653 756 1581 832T1358 909ZM504 117Q586 117 651 144T761 214T830 311T854 418V504L639 500Q569 498 507 488T397 455T321 391T293 289Q293 207 344 162T504 117Z"/><glyph unicode="ç" horiz-adv-x="1147" d="M598 -20Q472 -20 378 18T222 126T129 291T98 504Q98 631 132 731T231 900T389 1005T602 1042Q702 1042 779 1020T913 956T1004 854T1053 719L868 705Q850 804 782 852T598 901Q442 901 362 803T281 516Q281 318 365 219T600 119Q655 119 702 132T785 172T844 239T877 334L1059 311Q1050 244 1016 184T925 79T785 7T598 -20ZM790 -258Q790 -300 775 -334T728 -393T643 -431T516 -444Q496 -444 474 -444T426 -440V-342Q475 -348 512 -348Q553 -348 581 -342T626 -324T651 -297T659 -262Q659 -222 629 -201T526 -180Q512 -180 498 -180T469 -182L534 0H641L602 -100Q696 -103 743 -144T790 -258Z"/><glyph unicode="è" horiz-adv-x="1188" d="M287 479Q287 399 304 332T360 217T459 142T604 115Q659 115 707 126T795 158T862 210T905 281L1063 236Q1045 191 1011 146T921 64T787 4T604 -20Q353 -20 226 115T98 518Q98 665 141 765T256 927T418 1015T606 1042Q733 1042 825 1002T976 891T1064 720T1092 502V479H287ZM608 909Q551 909 496 894T396 844T322 751T289 604H913Q908 674 889 730T832 826T739 887T608 909ZM598 1141L288 1419V1448H475L712 1161V1141H598Z"/><glyph unicode="é" horiz-adv-x="1188" d="M287 479Q287 399 304 332T360 217T459 142T604 115Q659 115 707 126T795 158T862 210T905 281L1063 236Q1045 191 1011 146T921 64T787 4T604 -20Q353 -20 226 115T98 518Q98 665 141 765T256 927T418 1015T606 1042Q733 1042 825 1002T976 891T1064 720T1092 502V479H287ZM608 909Q551 909 496 894T396 844T322 751T289 604H913Q908 674 889 730T832 826T739 887T608 909ZM506 1141V1161Q566 1232 625 1304T744 1448H932V1419Q854 1348 776 1279T621 1141H506Z"/><glyph unicode="ê" horiz-adv-x="1188" d="M287 479Q287 399 304 332T360 217T459 142T604 115Q659 115 707 126T795 158T862 210T905 281L1063 236Q1045 191 1011 146T921 64T787 4T604 -20Q353 -20 226 115T98 518Q98 665 141 765T256 927T418 1015T606 1042Q733 1042 825 1002T976 891T1064 720T1092 502V479H287ZM608 909Q551 909 496 894T396 844T322 751T289 604H913Q908 674 889 730T832 826T739 887T608 909ZM938 1161V1141H833L614 1280H612L380 1141H276V1161L530 1401H694L938 1161Z"/><glyph unicode="ë" horiz-adv-x="1188" d="M287 479Q287 399 304 332T360 217T459 142T604 115Q659 115 707 126T795 158T862 210T905 281L1063 236Q1045 191 1011 146T921 64T787 4T604 -20Q353 -20 226 115T98 518Q98 665 141 765T256 927T418 1015T606 1042Q733 1042 825 1002T976 891T1064 720T1092 502V479H287ZM608 909Q551 909 496 894T396 844T322 751T289 604H913Q908 674 889 730T832 826T739 887T608 909ZM471 1343V1159H326V1343H471ZM883 1343V1159H740V1343H883Z"/><glyph unicode="ì" horiz-adv-x="506" d="M162 0V1022H342V0H162ZM256 1141L-54 1419V1448H133L370 1161V1141H256Z"/><glyph unicode="í" horiz-adv-x="506" d="M162 0V1022H342V0H162ZM137 1141V1161Q197 1232 256 1304T375 1448H563V1419Q485 1348 407 1279T252 1141H137Z"/><glyph unicode="î" horiz-adv-x="506" d="M162 0V1022H342V0H162ZM842 1161V1141H737L518 1280H516L284 1141H180V1161L434 1401H598L842 1161Z"/><glyph unicode="ï" horiz-adv-x="506" d="M162 0V1022H342V0H162ZM376 1343V1159H231V1343H376ZM788 1343V1159H645V1343H788Z"/><glyph unicode="ð" horiz-adv-x="1241" d="M614 -20Q489 -20 393 16T232 119T132 277T98 481Q98 588 130 679T226 837T389 941T621 979Q692 979 750 963T852 920Q806 1003 750 1077T618 1221L317 1087V1202L535 1296Q479 1341 419 1380T293 1454H502Q547 1434 588 1409T672 1352L952 1475V1362L766 1280Q847 1206 915 1120T1034 937T1112 735T1141 516V510Q1141 393 1108 296T1009 129T845 19T614 -20ZM952 481Q952 668 869 757T625 846Q461 846 374 756T287 481Q287 386 311 317T377 203T480 135T612 113Q693 113 756 135T863 202T929 316T952 481Z"/><glyph unicode="ñ" horiz-adv-x="1249" d="M915 0V586Q915 655 902 713T857 813T776 879T651 903Q583 903 527 877T429 805T365 695T342 557V0H162V791Q162 825 162 862T160 933T158 991T156 1022H326Q327 1017 328 990T330 929T333 861T334 807H338Q401 929 495 985T719 1042Q823 1042 895 1010T1011 922T1076 791T1096 631V0H915ZM793 1141Q751 1141 709 1161T628 1205T554 1250T487 1270Q460 1270 441 1261T410 1234T391 1193T379 1141H278Q283 1186 293 1230T325 1309T385 1367T481 1389Q525 1389 567 1369T648 1325T721 1280T786 1260Q813 1260 831 1269T862 1296T882 1337T893 1389H995Q990 1345 980 1301T949 1222T890 1164T793 1141Z"/><glyph unicode="ò" horiz-adv-x="1239" d="M1141 512Q1141 395 1108 298T1009 130T845 20T614 -20Q489 -20 393 19T232 128T132 297T98 512Q98 626 130 723T226 891T389 1002T621 1042Q760 1042 859 1003T1020 893T1112 725T1141 512ZM952 512Q952 717 869 813T625 909Q462 909 375 811T287 512Q287 409 311 334T377 210T480 137T612 113Q775 113 863 209T952 512ZM617 1141L307 1419V1448H494L731 1161V1141H617Z"/><glyph unicode="ó" horiz-adv-x="1239" d="M1141 512Q1141 395 1108 298T1009 130T845 20T614 -20Q489 -20 393 19T232 128T132 297T98 512Q98 626 130 723T226 891T389 1002T621 1042Q760 1042 859 1003T1020 893T1112 725T1141 512ZM952 512Q952 717 869 813T625 909Q462 909 375 811T287 512Q287 409 311 334T377 210T480 137T612 113Q775 113 863 209T952 512ZM514 1141V1161Q574 1232 633 1304T752 1448H940V1419Q862 1348 784 1279T629 1141H514Z"/><glyph unicode="ô" horiz-adv-x="1239" d="M1141 512Q1141 395 1108 298T1009 130T845 20T614 -20Q489 -20 393 19T232 128T132 297T98 512Q98 626 130 723T226 891T389 1002T621 1042Q760 1042 859 1003T1020 893T1112 725T1141 512ZM952 512Q952 717 869 813T625 909Q462 909 375 811T287 512Q287 409 311 334T377 210T480 137T612 113Q775 113 863 209T952 512ZM953 1161V1141H848L629 1280H627L395 1141H291V1161L545 1401H709L953 1161Z"/><glyph unicode="õ" horiz-adv-x="1239" d="M1141 512Q1141 395 1108 298T1009 130T845 20T614 -20Q489 -20 393 19T232 128T132 297T98 512Q98 626 130 723T226 891T389 1002T621 1042Q760 1042 859 1003T1020 893T1112 725T1141 512ZM952 512Q952 717 869 813T625 909Q462 909 375 811T287 512Q287 409 311 334T377 210T480 137T612 113Q775 113 863 209T952 512ZM768 1141Q726 1141 684 1161T603 1205T529 1250T462 1270Q435 1270 416 1261T385 1234T366 1193T354 1141H253Q258 1186 268 1230T300 1309T360 1367T456 1389Q500 1389 542 1369T623 1325T696 1280T761 1260Q788 1260 806 1269T837 1296T857 1337T868 1389H970Q965 1345 955 1301T924 1222T865 1164T768 1141Z"/><glyph unicode="ö" horiz-adv-x="1239" d="M1141 512Q1141 395 1108 298T1009 130T845 20T614 -20Q489 -20 393 19T232 128T132 297T98 512Q98 626 130 723T226 891T389 1002T621 1042Q760 1042 859 1003T1020 893T1112 725T1141 512ZM952 512Q952 717 869 813T625 909Q462 909 375 811T287 512Q287 409 311 334T377 210T480 137T612 113Q775 113 863 209T952 512ZM481 1343V1159H336V1343H481ZM893 1343V1159H750V1343H893Z"/><glyph unicode="÷" horiz-adv-x="1137" d="M483 958V1141H651V958H483ZM70 608V754H1065V608H70ZM483 223V406H651V223H483Z"/><glyph unicode="ø" horiz-adv-x="1239" d="M53 -45L219 139Q159 208 129 302T98 512Q98 626 129 723T225 891T388 1002T618 1042Q722 1042 801 1019T942 954L1040 1067H1178L1022 891Q1084 820 1112 724T1141 512Q1141 395 1108 297T1009 129T844 19T612 -20Q421 -20 297 74L193 -45H53ZM952 512Q952 590 936 650T891 754L401 182Q444 141 502 127T625 113Q782 113 867 211T952 512ZM287 512Q287 437 302 377T346 274L836 844Q754 909 621 909Q459 909 373 810T287 512Z"/><glyph unicode="ù" horiz-adv-x="1249" d="M926 0Q925 6 924 33T920 93T917 161T915 215H909Q846 93 753 37T530 -20Q426 -20 354 12T238 101T174 233T154 393V1022H334V438Q334 369 347 311T392 211T473 145T598 121Q665 121 721 147T819 218T882 327T905 465V1022H1087V233Q1087 199 1088 161T1090 90T1092 32T1094 0H926ZM621 1141L311 1419V1448H498L735 1161V1141H621Z"/><glyph unicode="ú" horiz-adv-x="1249" d="M926 0Q925 6 924 33T920 93T917 161T915 215H909Q846 93 753 37T530 -20Q426 -20 354 12T238 101T174 233T154 393V1022H334V438Q334 369 347 311T392 211T473 145T598 121Q665 121 721 147T819 218T882 327T905 465V1022H1087V233Q1087 199 1088 161T1090 90T1092 32T1094 0H926ZM510 1141V1161Q570 1232 629 1304T748 1448H936V1419Q858 1348 780 1279T625 1141H510Z"/><glyph unicode="û" horiz-adv-x="1249" d="M926 0Q925 6 924 33T920 93T917 161T915 215H909Q846 93 753 37T530 -20Q426 -20 354 12T238 101T174 233T154 393V1022H334V438Q334 369 347 311T392 211T473 145T598 121Q665 121 721 147T819 218T882 327T905 465V1022H1087V233Q1087 199 1088 161T1090 90T1092 32T1094 0H926ZM953 1161V1141H848L629 1280H627L395 1141H291V1161L545 1401H709L953 1161Z"/><glyph unicode="ü" horiz-adv-x="1249" d="M926 0Q925 6 924 33T920 93T917 161T915 215H909Q846 93 753 37T530 -20Q426 -20 354 12T238 101T174 233T154 393V1022H334V438Q334 369 347 311T392 211T473 145T598 121Q665 121 721 147T819 218T882 327T905 465V1022H1087V233Q1087 199 1088 161T1090 90T1092 32T1094 0H926ZM489 1343V1159H344V1343H489ZM901 1343V1159H758V1343H901Z"/><glyph unicode="ý" horiz-adv-x="1061" d="M598 -80Q559 -178 521 -248T441 -365T352 -433T248 -455Q201 -455 168 -453T102 -444V-309Q121 -312 145 -313T186 -315Q265 -315 319 -247T422 -49L440 0L23 1022H215L422 469Q424 463 432 439T452 382T477 312T502 243T522 186T532 156Q533 162 541 185T561 241T586 309T612 378T632 434T643 465L848 1022H1038L598 -80ZM434 1141V1161Q494 1232 553 1304T672 1448H860V1419Q782 1348 704 1279T549 1141H434Z"/><glyph unicode="þ" horiz-adv-x="1264" d="M1165 516Q1165 400 1138 302T1054 133T913 21T713 -20Q653 -20 598 -7T494 31T408 94T344 182H338Q339 180 339 162T340 117T341 59T342 -2V-455H162V1454H342V1024Q342 1003 342 972T340 911T339 859T338 834H342Q399 939 495 991T733 1044Q844 1044 925 1004T1059 894T1139 727T1165 516ZM977 516Q977 609 958 682T899 806T800 884T662 911Q600 911 542 891T439 823T367 699T340 508Q340 397 366 321T437 199T538 133T659 113Q812 113 894 214T977 516Z"/><glyph unicode="ÿ" horiz-adv-x="1061" d="M598 -80Q559 -178 521 -248T441 -365T352 -433T248 -455Q201 -455 168 -453T102 -444V-309Q121 -312 145 -313T186 -315Q265 -315 319 -247T422 -49L440 0L23 1022H215L422 469Q424 463 432 439T452 382T477 312T502 243T522 186T532 156Q533 162 541 185T561 241T586 309T612 378T632 434T643 465L848 1022H1038L598 -80ZM399 1343V1159H254V1343H399ZM811 1343V1159H668V1343H811Z"/><glyph unicode="ı" horiz-adv-x="506" d="M162 0V1022H342V0H162Z"/><glyph unicode="Œ" horiz-adv-x="2066" d="M987 0Q944 -9 896 -14T797 -20Q628 -20 501 34T289 186T162 418T119 711Q119 876 164 1009T295 1235T508 1379T799 1430Q902 1430 991 1409H1933V1257H1163V797H1872V647H1163V152H1974V0H987ZM973 1249Q933 1262 889 1268T799 1274Q677 1274 586 1234T435 1120T344 942T313 711Q313 584 344 479T436 297T588 178T797 135Q845 135 889 141T973 162V1249Z"/><glyph unicode="œ" horiz-adv-x="2036" d="M1135 479Q1135 399 1152 332T1208 217T1307 142T1452 115Q1507 115 1555 126T1643 158T1710 210T1753 281L1911 236Q1893 191 1859 146T1769 64T1635 4T1452 -20Q1153 -20 1036 174Q974 83 870 32T614 -20Q489 -20 393 19T232 128T132 297T98 512Q98 626 130 723T226 891T389 1002T621 1042Q779 1042 882 992T1044 852Q1079 903 1124 939T1223 998T1334 1031T1454 1042Q1581 1042 1673 1002T1824 891T1911 720T1939 502V479H1135ZM952 512Q952 717 869 813T625 909Q462 909 375 811T287 512Q287 409 311 334T377 210T480 137T612 113Q775 113 863 209T952 512ZM1456 909Q1399 909 1344 894T1244 844T1170 751T1137 604H1761Q1756 674 1737 730T1680 826T1587 887T1456 909Z"/><glyph unicode="Š" horiz-adv-x="1348" d="M1233 389Q1233 300 1200 225T1099 96T925 11T676 -20Q424 -20 284 72T104 338L289 375Q302 320 329 275T403 198T518 147T682 129Q762 129 828 143T943 188T1017 265T1044 379Q1044 452 1008 498T914 573T783 621T635 657Q579 671 523 686T416 722T319 771T241 838T189 930T170 1053Q170 1153 209 1224T316 1342T477 1409T680 1430Q805 1430 894 1410T1044 1348T1142 1247T1200 1106L1012 1073Q1000 1124 975 1164T910 1231T813 1272T678 1286Q587 1286 526 1269T427 1221T373 1151T356 1063Q356 1000 385 959T464 891T581 844T723 807Q784 792 845 777T963 741T1069 691T1155 621T1212 523T1233 389ZM776 1530H612L358 1769V1790H462L694 1651H696L915 1790H1020V1769L776 1530Z"/><glyph unicode="š" horiz-adv-x="1044" d="M961 289Q961 217 932 160T846 63T709 2T522 -20Q422 -20 346 -7T214 38T122 120T68 248L227 279Q239 224 265 191T329 140T416 117T522 111Q580 111 629 119T714 147T770 198T791 274Q791 322 765 352T694 402T589 435T461 463Q396 476 333 495T221 546T141 627T111 748Q111 887 216 964T524 1042Q609 1042 678 1028T800 982T887 901T936 782L774 762Q766 807 744 835T688 881T612 904T524 911Q402 911 341 874T279 766Q279 723 300 696T361 652T454 622T573 594Q644 578 713 558T838 504T927 419T961 289ZM455 1141Q390 1216 327 1291T201 1442V1462H305Q362 1411 420 1361T537 1262H539Q593 1311 647 1361T758 1462H863V1442Q801 1366 740 1291T619 1141H455Z"/><glyph unicode="Ÿ" horiz-adv-x="1212" d="M700 584V0H510L512 584L8 1409H213L604 741L999 1409H1204L700 584ZM473 1714V1530H328V1714H473ZM885 1714V1530H742V1714H885Z"/><glyph unicode="Ž" horiz-adv-x="1253" d="M1192 0H70V143L928 1253H143V1409H1145V1270L287 156H1192V0ZM729 1530H565L311 1769V1790H415L647 1651H649L868 1790H973V1769L729 1530Z"/><glyph unicode="ž" horiz-adv-x="958" d="M66 0V137L657 883H106V1022H860V885L268 139H897V0H66ZM414 1141Q349 1216 286 1291T160 1442V1462H264Q321 1411 379 1361T496 1262H498Q552 1311 606 1361T717 1462H822V1442Q760 1366 699 1291T578 1141H414Z"/><glyph unicode="ƒ" horiz-adv-x="1112" d="M862 774H637L395 -455H217L457 774H260L287 905H481L530 1149Q542 1208 562 1260T618 1350T708 1411T844 1434Q893 1434 941 1425T1026 1403L991 1274Q970 1282 936 1289T874 1296Q833 1296 806 1287T759 1257T729 1207T709 1133L664 905H889L862 774Z"/><glyph unicode="ˆ" horiz-adv-x="664" d="M662 1161V1141H557L338 1280H336L104 1141H0V1161L254 1401H418L662 1161Z"/><glyph unicode="ˇ" horiz-adv-x="664" d="M254 1141Q189 1216 126 1291T0 1442V1462H104Q161 1411 219 1361T336 1262H338Q392 1311 446 1361T557 1462H662V1442Q600 1366 539 1291T418 1141H254Z"/><glyph unicode="˚" horiz-adv-x="584" d="M535 1350Q535 1300 516 1256T464 1179T387 1127T293 1108Q243 1108 199 1127T122 1179T70 1256T51 1350Q51 1400 70 1444T122 1520T199 1572T293 1591Q343 1591 387 1572T464 1521T516 1444T535 1350ZM442 1350Q442 1381 431 1408T399 1456T352 1487T293 1499Q261 1499 234 1488T187 1456T155 1409T143 1350Q143 1318 154 1291T186 1243T234 1210T293 1198Q324 1198 351 1210T399 1242T430 1290T442 1350Z"/><glyph unicode="˜" horiz-adv-x="672" d="M492 1141Q450 1141 408 1161T327 1205T253 1250T186 1270Q159 1270 140 1261T109 1234T90 1193T78 1141H-23Q-18 1186 -8 1230T24 1309T84 1367T180 1389Q224 1389 266 1369T347 1325T420 1280T485 1260Q512 1260 530 1269T561 1296T581 1337T592 1389H694Q689 1345 679 1301T648 1222T589 1164T492 1141Z"/><glyph unicode="–" horiz-adv-x="1006" d="M0 451V588H1006V451H0Z"/><glyph unicode="—" horiz-adv-x="2048" d="M0 451V588H2048V451H0Z"/><glyph unicode="‘" horiz-adv-x="371" d="M84 952V1098Q84 1150 89 1193T104 1273T129 1344T164 1409H285Q240 1344 215 1278T190 1147H279V952H84Z"/><glyph unicode="’" horiz-adv-x="371" d="M285 1264Q285 1211 281 1168T266 1088T242 1017T207 952H84Q129 1017 153 1083T178 1212H90V1409H285V1264Z"/><glyph unicode="‚" horiz-adv-x="457" d="M326 51Q326 -2 321 -45T306 -126T282 -197T248 -262H125Q170 -197 194 -131T219 0H131V195H326V51Z"/><glyph unicode="“" horiz-adv-x="700" d="M416 952V1098Q416 1150 421 1193T435 1273T459 1344T494 1409H616Q571 1344 547 1278T522 1147H610V952H416ZM84 952V1098Q84 1150 89 1193T104 1273T129 1344T164 1409H285Q240 1344 215 1278T190 1147H279V952H84Z"/><glyph unicode="”" horiz-adv-x="700" d="M616 1264Q616 1211 611 1168T597 1088T572 1017T537 952H416Q461 1017 485 1083T510 1214H422V1409H616V1264ZM285 1264Q285 1211 281 1168T266 1088T242 1017T207 952H84Q129 1017 153 1083T178 1214H90V1409H285V1264Z"/><glyph unicode="„" horiz-adv-x="700" d="M285 51Q285 -2 281 -45T266 -126T242 -197T207 -262H84Q129 -197 153 -131T178 0H90V195H285V51ZM616 51Q616 -2 611 -45T597 -126T572 -197T537 -262H416Q461 -197 485 -131T510 0H422V195H616V51Z"/><glyph unicode="†" horiz-adv-x="995" d="M573 915L557 -244H436L422 915L66 903V1057L422 1044L416 1454H578L573 1044L930 1057V903L573 915Z"/><glyph unicode="‡" horiz-adv-x="995" d="M569 152L578 -258H416L426 152L66 139V297L426 285L438 600L426 915L66 903V1057L426 1044L416 1454H578L569 1044L930 1057V903L569 915L555 600L569 285L930 297V139L569 152Z"/><glyph unicode="•" horiz-adv-x="872" d="M713 680Q713 623 691 573T631 485T543 425T434 403Q377 403 328 425T241 484T182 572T160 680Q160 738 181 788T240 876T327 936T434 958Q492 958 542 936T631 877T691 789T713 680Z"/><glyph unicode="…" horiz-adv-x="1374" d="M1049 0V219H1243V0H1049ZM592 0V219H784V0H592ZM131 0V219H326V0H131Z"/><glyph unicode="‰" horiz-adv-x="2685" d="M545 0H410L1352 1409H1489L545 0ZM745 973Q745 848 720 762T653 623T552 547T428 524Q361 524 303 547T203 622T136 761T111 973Q111 1105 135 1191T203 1329T305 1400T432 1421Q496 1421 553 1401T653 1329T720 1192T745 973ZM598 973Q598 1072 587 1137T555 1242T503 1297T432 1313Q389 1313 357 1297T302 1241T269 1137T258 973Q258 878 269 814T302 711T356 654T430 637Q468 637 499 654T552 710T586 814T598 973ZM1786 436Q1786 310 1761 224T1692 86T1590 11T1466 -12Q1400 -12 1343 10T1243 85T1176 223T1151 436Q1151 568 1175 654T1242 792T1343 864T1470 885Q1536 885 1593 865T1693 793T1761 655T1786 436ZM1638 436Q1638 534 1627 599T1595 703T1543 758T1470 774Q1428 774 1396 758T1342 702T1309 598T1298 436Q1298 341 1309 276T1342 172T1395 115T1468 98Q1507 98 1538 115T1592 171T1626 276T1638 436ZM2572 436Q2572 310 2547 224T2480 86T2379 11T2255 -12Q2188 -12 2131 10T2031 85T1964 223T1939 436Q1939 568 1963 654T2031 792T2133 864T2261 885Q2325 885 2382 865T2481 793T2547 655T2572 436ZM2425 436Q2425 534 2414 599T2382 703T2331 758T2261 774Q2218 774 2186 758T2131 702T2098 598T2087 436Q2087 341 2098 276T2131 172T2184 115T2257 98Q2295 98 2326 115T2379 171T2413 276T2425 436Z"/><glyph unicode="‹" horiz-adv-x="653" d="M416 141L78 506V569L416 940H573V911L238 537L575 170V141H416Z"/><glyph unicode="›" horiz-adv-x="653" d="M78 141V170L418 537L80 911V940H238L575 569V506L238 141H78Z"/><glyph unicode="⁄" horiz-adv-x="246" d="M-238 0H-385L496 1409H641L-238 0Z"/><glyph unicode="⁰" horiz-adv-x="758" d="M686 987Q686 865 662 782T596 647T498 574T377 551Q312 551 256 573T159 647T94 781T70 987Q70 1114 94 1198T159 1331T258 1401T381 1421Q445 1421 500 1401T597 1332T662 1198T686 987ZM547 985Q547 1079 536 1142T504 1242T452 1295T381 1311Q339 1311 307 1295T253 1242T220 1142T209 985Q209 893 220 832T253 732T306 678T379 662Q417 662 448 678T501 732T535 831T547 985Z"/><glyph unicode="⁴" horiz-adv-x="758" d="M586 748V563H455V748H41V852L440 1409H586V854H713V748H586ZM459 1274Q452 1260 442 1242T420 1206T399 1170T381 1143L172 854H455V1143Q455 1153 455 1170T456 1206T457 1243T459 1274Z"/><glyph unicode="⁵" horiz-adv-x="758" d="M686 844Q686 777 665 723T604 631T506 572T371 551Q299 551 246 569T154 619T94 690T63 772L203 784Q217 727 255 693T373 659Q456 659 501 704T547 840Q547 920 502 962T377 1004Q327 1004 291 988T231 948H90L119 1409H635V1307H244L225 1051Q250 1071 295 1089T406 1108Q472 1108 524 1089T612 1036T667 953T686 844Z"/><glyph unicode="⁶" horiz-adv-x="758" d="M61 965Q61 1195 148 1308T393 1421Q498 1421 566 1375T662 1231L528 1212Q513 1266 476 1291T387 1317Q299 1317 248 1241T197 999Q229 1053 287 1081T416 1110Q477 1110 527 1091T612 1037T667 952T686 840Q686 776 667 723T610 632T516 572T387 551Q311 551 251 576T148 652T84 781T61 965ZM207 862Q207 821 218 784T252 717T306 671T381 653Q459 653 504 701T549 834Q549 915 504 963T375 1012Q343 1012 313 1002T260 973T222 925T207 862Z"/><glyph unicode="⁷" horiz-adv-x="758" d="M688 1315Q628 1229 571 1138T468 951T395 759T367 563H236Q236 660 263 756T336 947T440 1131T559 1307H72V1409H688V1315Z"/><glyph unicode="⁸" horiz-adv-x="758" d="M690 795Q690 742 672 697T617 620T521 569T381 551Q300 551 241 569T143 621T85 698T66 795Q66 841 81 877T121 939T180 981T248 1004V1006Q172 1023 130 1077T88 1202Q88 1247 106 1287T160 1357T250 1404T379 1421Q455 1421 509 1404T599 1357T651 1287T668 1202Q668 1130 627 1076T506 1006V1004Q544 997 577 981T636 938T675 876T690 795ZM532 1196Q532 1255 496 1288T379 1321Q295 1321 259 1288T223 1196Q223 1171 230 1147T254 1104T301 1073T377 1061Q428 1061 458 1073T505 1104T527 1147T532 1196ZM553 799Q553 830 544 858T514 907T460 940T377 952Q332 952 300 940T246 907T215 858T205 799Q205 728 247 690T383 651Q475 651 514 689T553 799Z"/><glyph unicode="⁹" horiz-adv-x="758" d="M688 1006Q688 893 665 808T599 667T495 582T358 553Q246 553 180 605T88 743L223 766Q239 712 274 685T362 657Q451 657 502 735T553 977Q539 949 516 928T463 893T399 871T330 864Q268 864 219 884T135 941T82 1030T63 1145Q63 1209 84 1260T146 1348T243 1403T371 1423Q521 1423 604 1321T688 1006ZM543 1116Q543 1158 532 1195T499 1260T445 1304T371 1321Q290 1321 247 1273T203 1145Q203 1063 242 1013T367 963Q401 963 433 973T489 1003T528 1051T543 1116Z"/><glyph unicode="€" horiz-adv-x="1137" d="M328 715Q328 695 328 674T330 635H778V510H342Q353 424 377 354T440 235T530 158T647 131Q708 131 754 151T833 203T888 277T922 362L1090 319Q1070 251 1035 190T945 82T817 8T643 -20Q535 -20 451 18T307 127T208 294T154 510H14V635H143Q141 653 141 675T141 717Q141 734 141 754T143 793H14V915H156Q188 1169 315 1300T653 1432Q734 1432 804 1408T930 1342T1025 1242T1083 1116L911 1077Q899 1122 875 1159T817 1223T740 1265T647 1280Q578 1280 526 1256T437 1186T376 1071T340 915H778V793H330Q328 774 328 754T328 715Z"/><glyph unicode="™" horiz-adv-x="1556" d="M1296 768V1120V1280Q1292 1271 1289 1262Q1286 1254 1284 1247T1280 1235L1090 768H1001L866 1110Q864 1114 854 1141T833 1199Q820 1235 803 1280Q802 1272 802 1264Q801 1257 801 1250T801 1237V768H696V1409H852L1036 944Q1038 941 1040 935T1044 923Q1047 916 1049 909Q1066 951 1079 985Q1090 1014 1099 1039T1110 1067L1249 1409H1401V768H1296ZM383 1317V768H272V1317H61V1409H598V1317H383Z"/><glyph unicode="ﬁ" horiz-adv-x="1096" d="M375 891V0H195V891H43V1022H195V1174Q195 1233 206 1283T246 1371T327 1430T459 1452Q491 1452 525 1449T586 1440V1313Q569 1316 547 1318T506 1321Q466 1321 441 1310T401 1279T381 1228T375 1159V1022H586V891H375ZM754 1282V1454H934V1282H754ZM754 0V1022H934V0H754Z"/><glyph unicode="ﬂ" horiz-adv-x="1096" d="M375 891V0H195V891H43V1022H195V1174Q195 1233 206 1283T246 1371T327 1430T459 1452Q491 1452 525 1449T586 1440V1313Q569 1316 547 1318T506 1321Q466 1321 441 1310T401 1279T381 1228T375 1159V1022H586V891H375ZM754 0V1454H934V0H754Z"/></font>
</defs>
</svg>
