<?xml version="1.0" encoding="UTF-8"?><svg xmlns="http://www.w3.org/2000/svg" width="100%" height="100%"><defs><font id="web" horiz-adv-x="1090"><!--



NOTICE: This font software is the valuable property 
of Ascender Corporation and/or its suppliers and its 
use by you is covered under the terms of the Web Font 
license agreement between you and Ascender Corporation. 
You may ONLY use this font software with the licensed 
web site. Except as specifically permitted by the license, 
you may not copy this font software. If you have any 
questions, please contact Ascender Corp. 

For more information, please visit http://www.ascenderfonts.com/info/webfont-eula.aspx

Licensed to: clear.com

Serial number: SH-0
--><font-face font-family="" units-per-em="2048" panose-1="2 11 3 2 4 5 4 9 2 3" ascent="2089" descent="-457" alphabetic="0"/><missing-glyph horiz-adv-x="1024" d="M129 0V750H897V0H129ZM256 129H768V623H256V129Z"/><glyph unicode=" " horiz-adv-x="555"/><glyph unicode="!" horiz-adv-x="600" d="M330 367H272L256 1409H346L330 367ZM252 0V127H346V0H252Z"/><glyph unicode="&quot;" horiz-adv-x="705" d="M227 1069H170L154 1409H244L227 1069ZM535 1069H477L461 1409H551L535 1069Z"/><glyph unicode="#" horiz-adv-x="1139" d="M707 0H643L735 434H313L223 0H160L250 434H43V500H264L352 911H94V975H365L457 1409H520L428 975H850L942 1409H1006L913 975H1128V911H899L813 500H1077V434H799L707 0ZM328 500H750L836 911H416L328 500Z"/><glyph unicode="$" horiz-adv-x="1065" d="M496 -131V20Q302 25 189 111T45 350L121 367Q133 308 159 259T231 172T341 114T496 90V707Q450 721 404 735T314 769T234 815T169 877T125 960T109 1071Q109 1151 138 1209T220 1306T342 1364T496 1386V1511H559V1386Q650 1383 716 1363T830 1305T908 1215T956 1094L877 1075Q862 1137 837 1181T774 1255T683 1299T559 1317V762Q633 741 708 717T844 650T943 542T981 371Q981 300 955 238T877 129T745 53T559 20V-131H496ZM905 369Q905 450 876 503T799 591T689 648T559 688V90Q635 91 698 108T808 160T879 247T905 369ZM184 1075Q184 1006 209 959T278 878T377 822T496 780V1317Q410 1314 351 1295T255 1243T201 1168T184 1075Z"/><glyph unicode="%" horiz-adv-x="1786" d="M463 0H381L1323 1409H1407L463 0ZM678 971Q678 844 657 758T597 620T508 545T399 522Q341 522 291 544T203 619T145 758T123 971Q123 1103 144 1189T203 1327T292 1398T403 1419Q461 1419 511 1399T598 1327T656 1190T678 971ZM604 971Q604 1082 590 1157T550 1277T487 1341T403 1360Q355 1360 317 1341T252 1276T211 1157T197 971Q197 864 211 790T252 671T316 605T401 584Q446 584 483 604T547 670T589 790T604 971ZM1663 438Q1663 311 1642 226T1582 88T1493 13T1384 -10Q1326 -10 1276 12T1188 87T1130 225T1108 438Q1108 570 1129 657T1188 795T1277 866T1389 887Q1446 887 1496 867T1583 795T1641 657T1663 438ZM1589 438Q1589 549 1575 624T1536 744T1473 808T1389 827Q1341 827 1303 808T1237 743T1196 624T1182 438Q1182 331 1196 258T1237 138T1301 72T1386 51Q1431 51 1468 71T1532 138T1574 257T1589 438Z"/><glyph unicode="&amp;" horiz-adv-x="1389" d="M129 354Q129 434 155 499T229 618T342 712T485 786Q448 861 421 942T393 1112Q393 1178 412 1234T471 1330T571 1394T713 1417Q777 1417 833 1399T930 1346T994 1261T1018 1147Q1018 1069 980 1012T881 909T740 827T580 756Q652 618 741 490T930 242Q1000 342 1047 456T1126 717L1200 702Q1162 542 1106 418T975 188Q1037 117 1095 86T1208 55Q1270 55 1327 72V10Q1298 -1 1266 -6T1196 -12Q1152 -12 1113 0T1039 32T976 79T924 135Q897 109 860 82T774 32T668 -5T543 -20Q435 -20 357 9T229 89T154 208T129 354ZM205 356Q205 292 226 236T289 138T395 72T545 47Q601 47 651 59T744 92T821 137T881 188Q778 312 684 448T512 729Q367 670 286 578T205 356ZM944 1147Q944 1192 927 1229T880 1294T806 1335T711 1350Q593 1350 529 1289T465 1114Q465 1076 472 1037T492 960T519 886T551 815Q630 846 701 879T827 951T912 1037T944 1147Z"/><glyph unicode="'" horiz-adv-x="397" d="M227 1069H170L154 1409H244L227 1069Z"/><glyph unicode="(" horiz-adv-x="662" d="M174 502Q174 646 196 770T262 1009T373 1232T532 1454H612Q516 1336 448 1224T335 996T271 759T250 500Q250 362 270 240T335 3T447 -224T612 -455H532Q441 -342 374 -233T262 -8T196 232T174 502Z"/><glyph unicode=")" horiz-adv-x="662" d="M487 502Q487 358 466 233T400 -8T288 -232T129 -455H49Q145 -337 213 -225T326 3T391 240T412 500Q412 637 392 759T327 996T214 1223T49 1454H129Q220 1341 287 1233T399 1010T465 771T487 502Z"/><glyph unicode="*" horiz-adv-x="791" d="M434 1112L612 864L553 823L395 1083L229 825L170 866L356 1112L63 1190L90 1262L373 1157L358 1454H436L420 1157L705 1262L727 1190L434 1112Z"/><glyph unicode="+" horiz-adv-x="1065" d="M563 649V221H500V649H72V713H500V1141H563V713H991V649H563Z"/><glyph unicode="," horiz-adv-x="401" d="M248 35Q248 -3 246 -33T239 -91T224 -145T201 -201H145Q177 -142 188 -95T199 0H154V127H248V35Z"/><glyph unicode="-" horiz-adv-x="657" d="M90 473V541H567V473H90Z"/><glyph unicode="." horiz-adv-x="401" d="M154 0V127H248V0H154Z"/><glyph unicode="/" horiz-adv-x="760" d="M23 0L666 1456H737L98 0H23Z"/><glyph unicode="0" horiz-adv-x="1065" d="M981 705Q981 501 946 362T849 138T706 17T530 -20Q435 -20 353 16T211 138T117 362T82 705Q82 918 116 1057T211 1280T355 1396T537 1430Q599 1430 656 1416T762 1368T851 1281T921 1145T965 956T981 705ZM905 705Q905 894 880 1020T806 1223T690 1332T535 1364Q447 1364 377 1332T259 1223T184 1020T158 705Q158 523 184 398T260 194T378 82T532 47Q614 47 683 82T801 195T877 398T905 705Z"/><glyph unicode="1" horiz-adv-x="1065" d="M156 72H535V1317L197 1102V1180L549 1409H608V72H932V0H156V72Z"/><glyph unicode="2" horiz-adv-x="1065" d="M102 0V55Q138 141 188 214T299 354T426 481T563 606Q645 681 700 738T788 846T836 946T850 1055Q850 1135 826 1193T758 1289T653 1345T520 1364Q455 1364 399 1346T301 1292T231 1203T197 1081L121 1096Q128 1165 157 1226T236 1332T358 1403T522 1430Q615 1430 690 1407T818 1336T899 1219T928 1057Q928 987 909 929T851 814T750 695T604 555Q540 496 479 438T363 321T264 199T190 72H950V0H102Z"/><glyph unicode="3" horiz-adv-x="1065" d="M965 387Q965 289 935 213T850 85T715 7T535 -20Q416 -20 336 10T205 89T129 203T94 338L168 350Q177 282 202 226T272 130T381 69T535 47Q714 47 801 133T889 381Q889 444 871 490T821 569T750 623T665 655T576 671T492 676H395V756H489Q546 756 609 770T726 818T815 910T850 1057Q850 1127 830 1184T768 1281T666 1342T524 1364Q456 1364 398 1347T295 1295T222 1206T186 1079L113 1087Q123 1174 158 1238T248 1345T373 1409T524 1430Q630 1430 706 1401T831 1322T903 1204T926 1059Q926 993 906 937T847 838T755 766T635 723V719Q719 710 781 681T884 607T945 506T965 387Z"/><glyph unicode="4" horiz-adv-x="1065" d="M809 356V0H735V356H59V416L743 1409H809V424H997V356H809ZM735 1284L143 424H735V1284Z"/><glyph unicode="5" horiz-adv-x="1065" d="M971 449Q971 343 942 257T856 109T715 14T520 -20Q419 -20 346 3T222 67T141 161T96 276L170 295Q185 239 211 193T278 115T380 65T524 47Q611 47 680 73T796 151T869 276T895 444Q895 522 870 587T797 700T682 773T528 799Q422 799 345 768T209 690H137L182 1409H889V1337H250L213 768Q237 786 268 803T338 833T425 855T530 864Q632 864 714 834T853 748T940 617T971 449Z"/><glyph unicode="6" horiz-adv-x="1065" d="M115 672Q115 865 147 1007T238 1244T382 1384T571 1430Q626 1430 679 1418T780 1376T865 1299T924 1180L852 1159Q818 1267 743 1315T571 1364Q487 1364 417 1326T296 1206T218 998T190 696Q241 803 337 859T555 915Q647 915 723 883T853 792T937 649T967 461Q967 355 940 267T859 115T729 16T551 -20Q449 -20 368 22T231 150T145 366T115 672ZM205 520Q205 433 227 348T292 196T401 88T551 47Q630 47 693 74T800 154T867 282T891 453Q891 543 867 616T798 742T687 822T541 850Q480 850 420 829T312 765T235 662T205 520Z"/><glyph unicode="7" horiz-adv-x="1065" d="M985 1339Q883 1190 791 1027T630 692T520 346T479 0H403Q403 171 443 345T553 690T713 1024T905 1337H86V1409H985V1339Z"/><glyph unicode="8" horiz-adv-x="1065" d="M967 389Q967 300 942 225T863 96T729 11T535 -20Q423 -20 341 11T206 96T126 225T100 387Q100 464 123 525T185 630T273 701T375 737V741Q316 756 271 788T196 865T149 965T133 1081Q133 1153 158 1216T234 1327T358 1402T530 1430Q631 1430 706 1402T832 1326T907 1215T932 1079Q932 1019 917 964T871 865T795 789T688 745V741Q746 730 797 703T886 631T945 526T967 389ZM856 1077Q856 1140 838 1192T781 1283T680 1343T530 1364Q445 1364 384 1343T284 1284T227 1193T209 1077Q209 1029 222 976T272 878T371 805T532 776Q637 776 701 804T799 877T845 975T856 1077ZM891 397Q891 456 873 512T812 611T702 681T532 707Q439 707 372 681T261 612T197 511T176 393Q176 316 196 253T261 143T373 72T537 47Q633 47 700 72T810 143T871 253T891 397Z"/><glyph unicode="9" horiz-adv-x="1065" d="M961 737Q961 549 927 408T831 171T683 28T494 -20Q419 -20 361 -3T260 46T189 124T143 227L213 250Q247 142 315 94T494 45Q581 45 652 87T775 213T856 422T887 713Q865 657 827 613T739 537T631 490T512 473Q418 473 343 509T216 609T135 761T106 954Q106 1060 134 1147T215 1298T346 1395T524 1430Q739 1430 850 1254T961 737ZM870 889Q870 983 848 1068T783 1219T674 1323T524 1362Q445 1362 382 1334T274 1253T206 1125T182 956Q182 868 203 792T266 660T372 571T520 539Q590 539 653 563T765 632T841 743T870 889Z"/><glyph unicode=":" horiz-adv-x="401" d="M154 0V127H248V0H154ZM154 866V993H248V866H154Z"/><glyph unicode=";" horiz-adv-x="401" d="M248 35Q248 -3 246 -33T239 -91T224 -145T201 -201H145Q177 -142 188 -95T199 0H154V127H248V35ZM154 866V993H248V866H154Z"/><glyph unicode="&lt;" horiz-adv-x="1065" d="M74 631V709L993 1157V1083L139 670L993 258V184L74 631Z"/><glyph unicode="=" horiz-adv-x="1065" d="M72 874V938H991V874H72ZM72 403V467H991V403H72Z"/><glyph unicode="&gt;" horiz-adv-x="1065" d="M72 184V258L926 670L72 1083V1157L991 709V631L72 184Z"/><glyph unicode="?" horiz-adv-x="1133" d="M1026 1040Q1026 963 1004 908T945 810T863 735T770 670Q729 642 691 613T624 549T577 470T559 369H483Q483 440 505 493T563 587T644 660T735 725Q777 753 816 783T885 849T933 931T952 1036Q952 1111 927 1171T853 1273T736 1339T578 1362Q491 1362 423 1336T305 1265T227 1160T188 1032L109 1038Q119 1118 155 1189T250 1313T391 1398T575 1430Q681 1430 765 1403T907 1324T995 1201T1026 1040ZM477 0V127H571V0H477Z"/><glyph unicode="@" horiz-adv-x="1851" d="M461 459Q461 534 476 608T520 751T593 877T692 979T816 1046T965 1071Q1088 1071 1172 1013T1296 858H1303L1350 1049H1425L1309 543Q1299 498 1291 456T1276 375T1266 305T1262 250Q1262 213 1272 191T1297 158T1329 143T1362 139Q1429 139 1492 181T1604 300T1684 484T1714 723Q1714 864 1670 985T1539 1196T1324 1335T1028 1386Q885 1386 765 1352T547 1256T375 1109T251 920T176 701T150 461Q150 320 194 194T325 -27T545 -177T854 -233Q953 -233 1040 -220T1204 -185T1349 -134T1477 -70L1505 -127Q1445 -161 1376 -192T1226 -248T1053 -286T854 -301Q660 -301 514 -241T271 -76T124 166T74 461Q74 600 105 728T194 966T336 1166T525 1320T757 1419T1026 1454Q1223 1454 1367 1395T1605 1236T1744 1004T1790 725Q1790 581 1756 462T1664 256T1526 122T1356 74Q1321 74 1291 84T1238 115T1203 168T1190 246Q1190 255 1190 267T1192 293T1196 320T1200 344H1194Q1173 299 1135 252T1044 165T927 100T791 74Q693 74 630 110T529 202T476 326T461 459ZM1264 729Q1264 789 1241 839T1176 926T1077 983T952 1004Q882 1004 825 981T721 917T642 824T586 711T552 586T541 461Q541 387 557 328T607 228T690 164T809 141Q871 141 935 170T1057 252T1159 379T1229 543Q1234 564 1240 590T1251 641T1260 690T1264 729Z"/><glyph unicode="A" horiz-adv-x="1223" d="M659 1409L1219 0H1130L946 469H276L92 0H4L565 1409H659ZM612 1335Q610 1330 602 1306T580 1245T551 1164T516 1075L305 541H918L709 1075Q690 1121 673 1165T643 1246T622 1306T612 1335Z"/><glyph unicode="B" horiz-adv-x="1335" d="M1044 1069Q1044 1208 947 1272T655 1337H276V774H657Q759 774 832 795T952 855T1021 948T1044 1069ZM1126 393Q1126 472 1095 530T1007 626T868 683T684 702H276V72H698Q787 72 865 88T1001 142T1092 241T1126 393ZM1206 393Q1206 285 1166 211T1058 89T901 21T715 0H199V1409H655Q764 1409 851 1390T998 1330T1091 1225T1124 1071Q1124 1012 1108 960T1058 864T974 791T856 745Q942 735 1007 704T1117 625T1183 519T1206 393Z"/><glyph unicode="C" horiz-adv-x="1421" d="M770 -20Q610 -20 492 34T295 186T178 418T139 711Q139 876 178 1009T294 1235T488 1379T760 1430Q877 1430 963 1403T1111 1334T1214 1239T1284 1137L1210 1098Q1185 1149 1147 1196T1054 1279T927 1336T760 1358Q619 1358 517 1312T349 1181T251 977T219 711Q219 566 254 445T358 236T530 100T770 51Q874 51 949 75T1079 140T1174 235T1247 352L1315 319Q1279 251 1232 190T1119 82T969 8T770 -20Z"/><glyph unicode="D" horiz-adv-x="1493" d="M1274 721Q1274 887 1225 1004T1087 1195T875 1303T602 1337H276V72H651Q786 72 900 113T1097 236T1227 439T1274 721ZM1354 721Q1354 545 1301 411T1156 185T939 47T668 0H199V1409H608Q771 1409 908 1369T1144 1245T1298 1031T1354 721Z"/><glyph unicode="E" horiz-adv-x="1229" d="M1128 0H199V1409H1087V1337H276V764H1026V692H276V72H1128V0Z"/><glyph unicode="F" horiz-adv-x="1137" d="M276 0H199V1409H1034V1337H276V705H1006V633H276V0Z"/><glyph unicode="G" horiz-adv-x="1477" d="M770 -20Q610 -20 492 34T295 186T178 418T139 711Q139 876 178 1009T294 1235T488 1379T760 1430Q877 1430 963 1403T1111 1334T1214 1239T1284 1137L1210 1098Q1185 1149 1147 1196T1054 1279T927 1336T760 1358Q619 1358 517 1312T349 1181T251 977T219 711Q219 566 254 445T358 236T530 100T770 51Q858 51 932 68T1064 112T1166 173T1239 240V592H780V664H1315V211Q1273 164 1219 122T1098 49T949 -1T770 -20Z"/><glyph unicode="H" horiz-adv-x="1509" d="M199 0V1409H276V778H1233V1409H1311V0H1233V707H276V0H199Z"/><glyph unicode="I" horiz-adv-x="475" d="M276 0H199V1409H276V0Z"/><glyph unicode="J" horiz-adv-x="965" d="M424 -20Q284 -20 194 57T72 297L145 311Q158 241 184 192T248 112T330 66T426 51Q559 51 627 140T696 389V1337H434V1409H774V391Q774 298 752 222T686 93T577 10T424 -20Z"/><glyph unicode="K" horiz-adv-x="1186" d="M1081 1409L496 801L1174 0H1077L440 745L276 608V0H199V1409H276V664L983 1409H1081Z"/><glyph unicode="L" horiz-adv-x="1053" d="M276 1409V72H993V0H199V1409H276Z"/><glyph unicode="M" horiz-adv-x="1767" d="M301 1409L817 252Q828 226 841 195T865 135Q877 102 889 70Q902 102 915 135Q926 163 939 194T965 252L1468 1409H1569V0H1495V1049Q1495 1100 1495 1149T1498 1237Q1499 1283 1501 1323Q1486 1281 1469 1237Q1455 1199 1438 1155T1403 1073L934 0H842L365 1073Q351 1103 334 1145T302 1228Q284 1274 266 1323Q267 1273 269 1225Q270 1183 271 1136T272 1049V0H199V1409H301Z"/><glyph unicode="N" horiz-adv-x="1571" d="M1284 0L260 1315Q263 1268 266 1221Q268 1180 270 1134T272 1049V0H199V1409H281L1311 86Q1307 131 1304 179Q1302 221 1300 271T1298 373V1409H1372V0H1284Z"/><glyph unicode="O" horiz-adv-x="1565" d="M1425 711Q1425 546 1381 411T1254 180T1051 32T780 -20Q620 -20 500 34T300 186T179 418T139 711Q139 876 181 1009T305 1235T507 1379T782 1430Q937 1430 1057 1379T1258 1234T1382 1007T1425 711ZM1343 711Q1343 858 1307 977T1200 1181T1025 1312T782 1358Q642 1358 537 1312T361 1181T255 977T219 711Q219 566 255 445T363 236T538 100T780 51Q927 51 1033 100T1208 237T1310 446T1343 711Z"/><glyph unicode="P" horiz-adv-x="1262" d="M1057 1001Q1057 1080 1032 1142T957 1248T831 1314T657 1337H276V655H666Q766 655 840 680T962 750T1033 860T1057 1001ZM1137 1004Q1137 916 1108 840T1020 706T874 617T672 584H276V0H199V1409H668Q783 1409 870 1380T1017 1298T1107 1170T1137 1004Z"/><glyph unicode="Q" horiz-adv-x="1565" d="M1425 711Q1425 555 1386 426T1273 202T1092 51T850 -16Q872 -87 899 -139T960 -227T1039 -279T1139 -297Q1163 -297 1194 -294T1249 -285V-354Q1229 -360 1199 -364T1141 -369Q1066 -369 1009 -348T908 -283T831 -174T770 -20Q612 -19 494 36T297 189T179 419T139 711Q139 876 181 1009T305 1235T507 1379T782 1430Q937 1430 1057 1379T1258 1234T1382 1007T1425 711ZM1343 711Q1343 858 1307 977T1200 1181T1025 1312T782 1358Q642 1358 537 1312T361 1181T255 977T219 711Q219 566 255 445T363 236T538 100T780 51Q927 51 1033 100T1208 237T1310 446T1343 711Z"/><glyph unicode="R" horiz-adv-x="1276" d="M1057 1022Q1057 1099 1030 1158T951 1256T827 1316T662 1337H276V696H670Q771 696 844 721T964 791T1034 895T1057 1022ZM1137 1024Q1137 941 1110 874T1032 756T911 675T754 635L1174 0H1077L668 625H276V0H199V1409H668Q775 1409 862 1383T1010 1308T1104 1187T1137 1024Z"/><glyph unicode="S" horiz-adv-x="1290" d="M1151 371Q1151 289 1120 218T1027 94T870 11T649 -20Q532 -20 442 3T289 70T186 176T129 317L209 334Q223 272 253 220T336 130T465 71T649 51Q735 52 812 69T946 125T1037 223T1071 369Q1071 428 1053 471T1004 547T931 603T839 643T737 674T631 702Q580 716 528 730T428 765T338 811T265 874T215 959T197 1071Q197 1165 232 1233T328 1345T473 1409T653 1430Q763 1430 843 1411T980 1354T1072 1261T1126 1135L1040 1116Q1026 1172 999 1217T927 1293T814 1341T653 1358Q549 1358 477 1337T361 1277T296 1188T276 1075Q276 1000 309 951T397 868T523 813T672 770Q727 755 784 740T894 704T994 656T1076 589T1131 496T1151 371Z"/><glyph unicode="T" horiz-adv-x="1147" d="M1128 1409V1337H612V0H535V1337H25V1409H1128Z"/><glyph unicode="U" horiz-adv-x="1448" d="M1260 516Q1260 380 1216 280T1097 113T921 13T709 -20Q602 -20 508 10T342 104T230 265T188 494V1409H266V504Q266 385 302 299T398 158T540 77T711 51Q798 51 882 78T1033 163T1141 308T1182 516V1409H1260V516Z"/><glyph unicode="V" horiz-adv-x="1186" d="M547 0L16 1409H104L498 348Q515 300 532 250T564 158Q580 110 594 63Q608 110 624 158Q638 200 655 250T690 348L1081 1409H1169L639 0H547Z"/><glyph unicode="W" horiz-adv-x="1919" d="M461 0L14 1409H100L412 418Q432 355 449 293T480 182Q495 124 508 72Q524 137 542 199Q557 253 574 312T606 418L918 1409H1001L1315 418Q1322 396 1329 370T1345 315T1362 257T1378 201Q1396 138 1413 72Q1429 135 1446 197Q1460 251 1477 310T1509 418L1819 1409H1905L1458 0H1366L1042 1024Q1030 1063 1016 1114T988 1212Q973 1267 958 1323Q943 1267 929 1212Q917 1165 903 1114T877 1024L553 0H461Z"/><glyph unicode="X" horiz-adv-x="1149" d="M535 741L66 1409H158L580 799L991 1409H1083L621 741L1124 0H1032L575 676L117 0H25L535 741Z"/><glyph unicode="Y" horiz-adv-x="1124" d="M561 707L1020 1409H1112L600 635V0H524V635L12 1409H104L561 707Z"/><glyph unicode="Z" horiz-adv-x="1253" d="M78 0V66L1040 1337H150V1409H1139V1348L176 72H1178V0H78Z"/><glyph unicode="[" horiz-adv-x="573" d="M199 -455V1454H543V1391H272V-391H543V-455H199Z"/><glyph unicode="\" horiz-adv-x="760" d="M23 1454H94L737 0H662L23 1454Z"/><glyph unicode="]" horiz-adv-x="573" d="M31 -455V-391H301V1391H31V1454H375V-455H31Z"/><glyph unicode="^" horiz-adv-x="1065" d="M1020 489H946L532 1348L121 489H47L494 1409H571L1020 489Z"/><glyph unicode="_" horiz-adv-x="1024" d="M-20 -250V-178H1044V-250H-20Z"/><glyph unicode="`" horiz-adv-x="584" d="M483 1149V1139H426L150 1419V1434H258L483 1149Z"/><glyph unicode="a" horiz-adv-x="1135" d="M199 262Q199 213 214 173T262 105T345 62T463 47Q533 47 590 64T692 110T770 177T825 257T857 343T868 426V520L608 516Q517 514 442 503T312 463T229 386T199 262ZM123 262Q123 353 159 413T260 510T414 562T608 580L868 584V657Q868 815 789 891T561 967Q421 967 341 912T244 741L168 752Q177 813 205 865T282 954T400 1013T561 1034Q748 1034 845 941T942 670V231Q942 143 963 100T1042 57Q1059 57 1075 60T1104 68V0Q1087 -5 1069 -7T1034 -10Q987 -10 956 5T906 49T880 121T872 221H868Q839 167 799 123T707 47T593 -2T459 -20Q294 -20 209 52T123 262Z"/><glyph unicode="b" horiz-adv-x="1202" d="M1085 512Q1085 398 1058 301T974 133T834 21T635 -20Q566 -20 507 -4T398 41T313 109T252 195H248Q248 164 247 130T243 67Q240 33 238 0H170Q172 31 174 65Q176 94 177 131T178 209V1454H252V981Q252 951 252 921T250 867Q249 839 248 813H252Q281 864 318 904T404 974T515 1018T655 1034Q764 1034 845 994T979 884T1058 718T1085 512ZM1010 512Q1010 613 987 697T916 841T798 934T629 967Q552 967 483 942T362 862T279 718T248 504Q248 379 278 293T360 151T480 72T627 47Q719 47 790 79T910 171T984 317T1010 512Z"/><glyph unicode="c" horiz-adv-x="1100" d="M117 506Q117 630 149 728T241 894T388 998T586 1034Q675 1034 744 1013T864 953T945 864T989 754L911 739Q901 788 876 830T810 902T712 950T582 967Q487 967 414 935T292 843T218 698T193 504Q193 392 219 307T296 164T419 77T584 47Q651 47 708 64T808 113T881 190T920 293L993 281Q982 219 950 164T865 68T741 4T582 -20Q465 -20 378 18T233 125T146 292T117 506Z"/><glyph unicode="d" horiz-adv-x="1202" d="M193 502Q193 400 216 317T286 173T404 80T573 47Q650 47 719 72T840 152T923 296T954 510Q954 634 924 721T842 863T722 942T575 967Q483 967 412 935T292 843T218 697T193 502ZM117 502Q117 616 144 713T228 881T368 993T567 1034Q636 1034 696 1018T804 973T889 905T950 819H952Q951 848 951 879Q950 905 950 935T950 993V1454H1024V209Q1024 172 1025 135T1028 68Q1030 33 1032 0H963Q960 34 957 69Q955 99 954 134T952 201H950Q921 150 885 110T802 40T694 -4T555 -20Q446 -20 364 20T227 130T145 296T117 502Z"/><glyph unicode="e" horiz-adv-x="1128" d="M193 500Q193 407 215 325T286 181T408 83T586 47Q651 47 706 62T804 106T879 174T928 262L997 240Q981 198 951 153T873 69T753 5T584 -20Q478 -20 392 15T244 118T150 286T117 516Q117 660 158 759T264 919T412 1007T575 1034Q688 1034 770 996T906 891T986 731T1012 528V500H193ZM573 967Q501 967 435 945T317 875T232 751T195 567H936Q929 658 906 731T838 857T729 938T573 967Z"/><glyph unicode="f" horiz-adv-x="498" d="M268 946V0H195V946H49V1014H195V1184Q195 1241 202 1290T231 1375T294 1433T403 1454Q422 1454 442 1452T477 1444V1382Q462 1385 441 1388T401 1391Q359 1391 333 1376T293 1333T273 1267T268 1184V1014H477V946H268Z"/><glyph unicode="g" horiz-adv-x="1202" d="M193 502Q193 400 216 317T286 173T404 80T573 47Q650 47 719 72T840 152T923 296T954 510Q954 634 924 721T842 863T722 942T575 967Q483 967 412 935T292 843T218 697T193 502ZM117 502Q117 616 144 713T228 881T368 993T567 1034Q636 1034 696 1018T804 973T889 905T950 819H952Q952 850 953 884T957 947Q960 980 963 1014H1030Q1028 980 1027 945Q1025 914 1025 877T1024 805V27Q1024 -208 910 -331T575 -455Q484 -455 414 -438T292 -390T208 -315T158 -215L229 -195Q258 -283 345 -335T575 -387Q762 -387 856 -285T950 16Q950 39 950 71T951 132Q951 165 952 201H950Q921 150 884 110T800 40T692 -4T557 -20Q446 -20 363 20T226 130T144 296T117 502Z"/><glyph unicode="h" horiz-adv-x="1161" d="M252 1454V1008Q252 973 251 937T248 869Q246 833 244 799H248Q371 1034 627 1034Q722 1034 791 1007T905 929T971 807T993 649V0H920V637Q920 712 903 774T847 879T750 947T608 971Q532 971 467 941T354 860T279 739T252 590V0H178V1454H252Z"/><glyph unicode="i" horiz-adv-x="430" d="M178 1317V1454H252V1317H178ZM178 0V1014H252V0H178Z"/><glyph unicode="j" horiz-adv-x="430" d="M178 1317V1454H252V1317H178ZM252 -170Q252 -229 247 -280T223 -371T165 -432T61 -455Q50 -455 29 -454T-8 -449V-381Q1 -383 21 -385T53 -387Q92 -387 116 -374T154 -335T173 -273T178 -190V1014H252V-170Z"/><glyph unicode="k" horiz-adv-x="971" d="M856 0L406 532L252 414V0H178V1454H252V477L817 1014H920L457 582L948 0H856Z"/><glyph unicode="l" horiz-adv-x="430" d="M178 0V1454H252V0H178Z"/><glyph unicode="m" horiz-adv-x="1821" d="M879 0V618Q879 693 864 758T815 870T725 944T588 971Q516 971 455 941T348 860T278 739T252 590V0H178V791Q178 825 177 863T174 936Q172 975 170 1014H229Q232 974 236 935Q239 902 241 865T244 799H248Q307 917 394 975T606 1034Q677 1034 731 1016T826 964T892 886T932 786H936Q995 905 1086 969T1307 1034Q1403 1034 1469 1001T1576 912T1635 781T1653 625V0H1579V618Q1579 693 1564 758T1515 870T1425 944T1288 971Q1217 971 1156 941T1049 860T978 739T952 590V0H879Z"/><glyph unicode="n" horiz-adv-x="1161" d="M920 0V618Q920 693 904 758T850 870T754 944T608 971Q532 971 467 941T354 860T279 739T252 590V0H178V791Q178 822 177 861T174 934Q172 974 170 1014H229Q232 974 236 935Q239 902 241 865T244 799H248Q371 1034 627 1034Q728 1034 798 1001T911 912T974 781T993 625V0H920Z"/><glyph unicode="o" horiz-adv-x="1182" d="M1065 508Q1065 392 1035 295T945 128T796 19T586 -20Q472 -20 385 19T238 127T148 294T117 508Q117 621 146 717T234 883T382 994T592 1034Q719 1034 808 995T955 885T1038 718T1065 508ZM989 508Q989 740 889 853T596 967Q401 967 297 851T193 508Q193 391 221 305T301 161T425 76T584 47Q681 47 756 75T883 160T962 304T989 508Z"/><glyph unicode="p" horiz-adv-x="1202" d="M1010 512Q1010 613 987 697T916 841T798 934T629 967Q552 967 483 942T362 862T279 718T248 504Q248 379 278 293T360 151T480 72T627 47Q719 47 790 79T910 171T984 317T1010 512ZM1085 512Q1085 398 1058 301T974 133T834 21T635 -20Q566 -20 507 -4T398 41T313 109T252 195H248Q249 165 250 133Q251 105 251 72T252 4V-455H178V805Q178 844 177 881T174 948Q172 982 170 1014H233Q236 980 240 946Q243 917 245 882T248 813H252Q281 864 318 904T404 974T515 1018T655 1034Q764 1034 845 994T979 884T1058 718T1085 512Z"/><glyph unicode="q" horiz-adv-x="1202" d="M193 502Q193 400 216 317T286 173T404 80T573 47Q650 47 719 72T840 152T923 296T954 510Q954 634 924 721T842 863T722 942T575 967Q483 967 412 935T292 843T218 697T193 502ZM117 502Q117 616 144 713T228 881T368 993T567 1034Q636 1034 696 1018T804 973T889 905T950 819H952Q952 850 954 884T960 947Q964 980 969 1014H1032Q1030 982 1028 948Q1026 919 1025 882T1024 805V-455H950V16Q950 39 950 71T951 132Q951 165 952 201H950Q921 150 884 110T798 40T687 -4T547 -20Q438 -20 357 20T223 130T144 296T117 502Z"/><glyph unicode="r" horiz-adv-x="627" d="M178 0V764Q178 798 178 841T176 923Q175 968 174 1014H236Q238 963 240 917Q241 897 241 878T242 840T243 808T244 784H248Q267 848 293 895T356 973T439 1019T545 1034Q560 1034 578 1033T608 1028V956Q597 960 575 962T530 965Q454 965 401 927T315 828T267 689T252 532V0H178Z"/><glyph unicode="s" horiz-adv-x="979" d="M881 274Q881 206 855 152T778 60T655 1T489 -20Q405 -20 338 -8T219 34T134 112T82 233L158 252Q173 189 203 149T276 87T372 56T489 47Q556 47 614 60T714 101T781 169T805 268Q805 327 778 363T703 423T593 462T459 496Q397 511 338 529T231 578T154 653T125 766Q125 830 150 879T222 963T337 1016T492 1034Q562 1034 623 1020T731 976T811 900T856 788L778 774Q767 828 740 865T675 924T590 957T492 967Q419 967 364 953T273 912T218 850T199 770Q199 717 222 683T286 627T386 588T514 555Q579 539 644 521T762 472T848 394T881 274Z"/><glyph unicode="t" horiz-adv-x="532" d="M375 -16Q184 -16 184 205V946H49V1014H184L209 1243H258V1014H487V946H258V203Q258 124 290 88T385 51Q411 51 442 55T502 66V2Q473 -6 441 -11T375 -16Z"/><glyph unicode="u" horiz-adv-x="1161" d="M242 1014V395Q242 320 258 256T311 144T407 70T553 43Q629 43 694 73T807 154T882 275T909 424V1014H983V223Q983 189 984 150T987 78Q989 38 991 0H932Q928 39 925 78Q922 111 920 148T918 215H913Q791 -20 535 -20Q433 -20 363 13T250 102T187 233T168 389V1014H242Z"/><glyph unicode="v" horiz-adv-x="950" d="M512 0H428L10 1014H90L403 244Q411 226 420 201T439 150T457 100T471 57Q476 75 484 98T502 147T522 198T541 244L862 1014H940L512 0Z"/><glyph unicode="w" horiz-adv-x="1569" d="M825 1014L1077 252Q1086 225 1096 193T1115 132Q1125 99 1135 66Q1144 100 1154 133Q1162 162 1172 194T1192 252L1454 1014H1532L1176 0H1092L846 733Q837 758 827 792T806 859Q795 896 784 936Q771 897 759 859Q748 827 737 792T717 729L467 0H383L37 1014H117L371 252Q379 229 388 197T406 136Q416 102 426 66Q437 104 448 139Q457 169 466 200T483 252L745 1014H825Z"/><glyph unicode="x" horiz-adv-x="918" d="M457 578L766 1014H854L500 522L877 0H788L457 465L123 0H41L414 520L59 1014H145L457 578Z"/><glyph unicode="y" horiz-adv-x="930" d="M467 -80Q428 -175 393 -245T322 -362T243 -432T147 -455Q127 -455 102 -454T59 -449V-381Q76 -384 102 -385T143 -387Q187 -387 222 -363T288 -294T347 -187T406 -47L424 0L10 1014H90L463 90L842 1014H920L467 -80Z"/><glyph unicode="z" horiz-adv-x="905" d="M68 0V70L715 944H109V1014H803V944L156 70H827V0H68Z"/><glyph unicode="{" horiz-adv-x="641" d="M496 -455Q436 -455 393 -435T321 -378T280 -287T266 -168V229Q266 292 255 336T221 408T161 451T74 469V530Q125 533 161 547T220 590T255 663T266 770V1167Q266 1233 279 1286T321 1376T392 1434T496 1454H610V1386H506Q415 1386 378 1333T340 1169V754Q340 654 297 588T170 502V500Q257 481 298 415T340 246V-170Q340 -279 377 -333T506 -387H610V-455H496Z"/><glyph unicode="|" horiz-adv-x="428" d="M182 -455V1454H246V-455H182Z"/><glyph unicode="}" horiz-adv-x="641" d="M145 1454Q205 1454 248 1434T320 1377T361 1286T375 1167V770Q375 707 386 663T420 591T480 548T567 530V469Q516 466 480 452T421 409T386 336T375 229V-168Q375 -234 362 -287T320 -377T249 -435T145 -455H31V-387H135Q226 -387 263 -333T301 -170V246Q301 346 344 412T471 498V500Q384 518 343 584T301 754V1169Q301 1279 264 1332T135 1386H31V1454H145Z"/><glyph unicode="~" horiz-adv-x="1065" d="M760 594Q700 594 631 616T494 664Q374 709 291 709Q256 709 226 703T168 686T114 658T61 621V688Q106 726 168 749T305 772Q343 772 379 766T451 749T520 726T590 700Q610 692 633 685T681 670T730 659T776 655Q838 655 895 680T1001 748V674Q972 651 945 636T889 612T829 598T760 594Z"/><glyph unicode=" " horiz-adv-x="563"/><glyph unicode="¡" horiz-adv-x="600" d="M268 625H326L342 -416H252L268 625ZM346 993V866H252V993H346Z"/><glyph unicode="¢" horiz-adv-x="1065" d="M100 694Q100 812 129 907T214 1070T351 1176T535 1221V1409H598V1221Q680 1218 744 1195T855 1135T931 1049T973 942L895 928Q885 977 860 1018T794 1090T696 1136T565 1153Q470 1153 397 1122T275 1031T201 886T176 692Q176 580 202 495T279 352T402 265T567 236Q634 236 691 253T792 302T864 379T903 481L977 469Q965 410 935 357T856 264T744 198T598 168V-31H535V168Q426 172 345 212T209 322T127 485T100 694Z"/><glyph unicode="£" horiz-adv-x="1065" d="M41 72Q93 97 130 127T192 199T228 298T240 436V662H47V733H240V1057Q240 1149 264 1219T334 1336T446 1406T596 1430Q670 1430 731 1410T837 1353T910 1262T946 1143L874 1130Q868 1187 843 1230T780 1304T693 1349T594 1364Q456 1364 385 1290T313 1055V733H745V662H313V434Q313 369 306 314T281 214T232 133T150 72H682Q758 72 806 95T885 156T930 244T954 350L1024 338Q1014 269 992 208T929 100T831 27T690 0H41V72Z"/><glyph unicode="¤" horiz-adv-x="1061" d="M100 686Q100 767 127 838T205 967L35 1137L80 1180L248 1012Q307 1063 380 1091T535 1120Q615 1120 687 1093T817 1016L981 1180L1024 1135L862 971Q913 914 942 841T971 686Q971 605 942 532T862 399L1024 240L981 195L817 356Q760 307 688 280T535 252Q453 252 381 279T250 356L88 195L43 240L205 401Q155 460 128 532T100 686ZM164 686Q164 608 193 541T272 423T389 344T535 315Q612 315 679 344T797 423T876 540T905 686Q905 764 876 831T797 949T680 1028T535 1057Q457 1057 390 1028T272 949T193 832T164 686Z"/><glyph unicode="¥" horiz-adv-x="1065" d="M494 371H72V434H494V633H72V696H453L23 1409H115L530 698L948 1409H1040L610 696H991V633H569V434H991V371H569V0H494V371Z"/><glyph unicode="¦" horiz-adv-x="428" d="M182 676V1454H246V676H182ZM182 -455V324H246V-455H182Z"/><glyph unicode="§" horiz-adv-x="989" d="M881 92Q881 24 855 -30T778 -123T655 -182T489 -203Q405 -203 336 -191T215 -148T127 -70T74 51L150 70Q165 5 196 -35T272 -97T371 -127T489 -135Q556 -135 614 -122T714 -82T781 -13T805 86Q805 144 782 184T714 255T605 306T457 348Q395 363 333 385T222 443T141 530T109 655Q109 702 125 746T172 827T248 891T350 932Q305 944 264 966T192 1020T143 1091T125 1180Q125 1308 218 1381T492 1454Q562 1454 623 1440T731 1396T811 1320T856 1208L778 1194Q769 1249 742 1286T677 1345T591 1376T492 1386Q346 1386 273 1332T199 1190Q199 1134 225 1096T295 1032T395 989T514 956Q577 941 642 918T760 858T847 770T881 645Q881 597 866 552T821 470T744 406T635 369Q692 349 737 324T815 265T864 189T881 92ZM805 639Q805 694 782 735T716 806T610 857T467 895Q399 893 346 874T257 822T201 747T182 655Q182 600 205 560T271 490T370 441T494 408Q560 409 617 424T715 468T781 540T805 639Z"/><glyph unicode="¨" horiz-adv-x="584" d="M154 1307V1159H63V1307H154ZM518 1307V1159H430V1307H518Z"/><glyph unicode="©" horiz-adv-x="1567" d="M59 707Q59 807 85 899T158 1071T271 1218T418 1331T590 1404T782 1430Q932 1430 1063 1373T1293 1218T1448 989T1505 707Q1505 607 1479 515T1406 342T1294 196T1148 83T975 10T782 -16Q683 -16 591 10T418 83T272 195T158 341T85 514T59 707ZM133 707Q133 617 156 534T221 378T323 246T455 144T609 78T782 55Q872 55 955 78T1111 143T1243 245T1345 377T1411 533T1434 707Q1434 796 1411 879T1346 1034T1244 1165T1112 1267T956 1333T782 1356Q648 1356 530 1305T323 1166T184 960T133 707ZM793 270Q694 270 621 303T500 394T427 533T403 709Q403 808 427 887T498 1023T618 1109T786 1139Q855 1139 909 1123T1003 1080T1070 1020T1112 952L1049 918Q1031 952 1008 980T954 1029T881 1061T786 1073Q705 1073 647 1048T551 975T495 860T477 709Q477 626 497 557T556 439T655 363T793 336Q852 336 895 350T971 389T1026 445T1067 512L1124 481Q1105 442 1077 404T1009 337T916 289T793 270Z"/><glyph unicode="ª" horiz-adv-x="866" d="M184 858Q184 780 228 737T358 694Q427 694 482 721T577 789T636 879T657 971V1032L475 1030Q407 1029 353 1021T262 992T204 939T184 858ZM113 856Q113 924 142 969T219 1041T332 1079T467 1092L657 1094V1147Q657 1256 602 1310T440 1364Q246 1364 217 1188L145 1198Q153 1244 174 1284T232 1355T320 1403T440 1421Q581 1421 654 1353T727 1153V831Q727 765 742 734T803 702Q815 702 827 705T850 711V647Q836 642 822 641T797 639Q721 639 689 685T657 817H653Q632 777 603 744T536 686T453 647T354 633Q240 633 177 692T113 856Z"/><glyph unicode="«" horiz-adv-x="1006" d="M434 141L96 512V563L434 940H508V920L168 537L510 164V141H434ZM834 141L498 512V563L834 940H907V920L567 537L909 164V141H834Z"/><glyph unicode="¬" horiz-adv-x="1065" d="M991 221H930V649H72V713H991V221Z"/><glyph unicode="­" horiz-adv-x="657" d="M90 473V541H567V473H90Z"/><glyph unicode="®" horiz-adv-x="1567" d="M59 707Q59 807 85 899T158 1071T271 1218T418 1331T590 1404T782 1430Q932 1430 1063 1373T1293 1218T1448 989T1505 707Q1505 607 1479 515T1406 342T1294 196T1148 83T975 10T782 -16Q683 -16 591 10T418 83T272 195T158 341T85 514T59 707ZM133 707Q133 617 156 534T221 378T323 246T455 144T609 78T782 55Q872 55 955 78T1111 143T1243 245T1345 377T1411 533T1434 707Q1434 796 1411 879T1346 1034T1244 1165T1112 1267T956 1333T782 1356Q648 1356 530 1305T323 1166T184 960T133 707ZM813 702Q907 702 957 753T1008 895Q1008 979 952 1021T797 1063H590V702H813ZM1104 283H1020L801 637H590V283H518V1126H801Q865 1126 916 1111T1004 1066T1061 994T1081 897Q1081 841 1066 798T1022 723T956 672T872 645L1104 283Z"/><glyph unicode="¯" horiz-adv-x="1024" d="M-20 1382V1454H1044V1382H-20Z"/><glyph unicode="°" horiz-adv-x="768" d="M637 1184Q637 1131 617 1086T563 1006T483 952T385 932Q333 932 287 951T207 1005T153 1085T133 1184Q133 1236 153 1281T207 1361T287 1414T385 1434Q437 1434 483 1415T563 1361T617 1282T637 1184ZM580 1184Q580 1224 565 1259T523 1320T461 1361T385 1376Q345 1376 310 1361T248 1320T206 1259T190 1184Q190 1143 205 1108T247 1046T309 1004T385 989Q425 989 460 1004T522 1045T564 1107T580 1184Z"/><glyph unicode="±" horiz-adv-x="1065" d="M563 649V221H500V649H72V713H500V1141H563V713H991V649H563ZM72 0V63H991V0H72Z"/><glyph unicode="²" horiz-adv-x="721" d="M86 563V625Q104 670 134 709T200 783T276 850T354 915Q390 946 423 977T481 1041T520 1111T535 1190Q535 1267 493 1312T360 1358Q279 1358 228 1315T168 1194L98 1198Q104 1247 124 1288T178 1358T258 1404T362 1421Q481 1421 544 1361T608 1194Q608 1145 590 1102T543 1019T475 943T395 872Q360 842 325 813T260 755T205 695T166 631H621V563H86Z"/><glyph unicode="³" horiz-adv-x="721" d="M623 793Q623 735 605 690T551 614T467 567T356 551Q279 551 228 568T143 615T94 683T72 764L139 774Q152 694 204 653T356 612Q450 612 500 655T551 793Q551 847 529 880T475 931T404 956T334 963H276V1028H332Q363 1028 397 1036T461 1065T510 1119T530 1200Q530 1274 485 1316T352 1358Q271 1358 220 1315T160 1194L90 1202Q96 1257 118 1298T175 1367T255 1407T352 1421Q414 1421 460 1405T538 1360T584 1292T600 1206Q600 1132 558 1076T428 1001V997Q479 992 515 974T576 928T611 865T623 793Z"/><glyph unicode="´" horiz-adv-x="584" d="M129 1139V1149L352 1434H463V1419L184 1139H129Z"/><glyph unicode="µ" horiz-adv-x="1190" d="M1055 -10Q1017 -10 992 5T952 48T931 119T924 215H920Q858 96 767 38T545 -20Q443 -20 367 21T252 139H248Q251 107 251 71T252 6V-455H178V1014H252V395Q252 320 268 256T321 144T417 70T563 43Q639 43 704 73T818 154T893 275T920 424V1014H993V231Q993 143 1008 100T1067 57Q1091 57 1118 63V-2Q1104 -7 1086 -8T1055 -10Z"/><glyph unicode="¶" horiz-adv-x="1038" d="M813 1350V-264H750V1350H506V-264H442V694Q361 694 294 718T179 788T105 902T78 1059Q78 1143 103 1208T175 1317T292 1385T449 1409H944V1350H813Z"/><glyph unicode="·" horiz-adv-x="401" d="M154 469V596H248V469H154Z"/><glyph unicode="¸" horiz-adv-x="584" d="M467 -264Q467 -434 236 -434Q183 -434 143 -428V-360Q168 -364 190 -365T236 -367Q281 -367 311 -360T358 -341T383 -310T391 -270Q391 -225 359 -202T248 -178Q232 -178 212 -180T178 -186L252 0H319L274 -115Q365 -115 416 -152T467 -264Z"/><glyph unicode="¹" horiz-adv-x="721" d="M106 631H336V1329L131 1200V1272L344 1409H403V631H612V563H106V631Z"/><glyph unicode="º" horiz-adv-x="952" d="M831 1028Q831 941 809 869T742 744T630 662T471 633Q387 633 322 662T212 743T144 868T121 1028Q121 1112 142 1184T208 1308T320 1391T477 1421Q571 1421 638 1392T748 1310T811 1185T831 1028ZM760 1028Q760 1202 689 1282T479 1362Q339 1362 266 1281T193 1028Q193 941 213 878T269 773T357 712T471 692Q609 692 684 772T760 1028Z"/><glyph unicode="»" horiz-adv-x="1006" d="M498 141V164L838 537L500 920V940H571L909 563V512L571 141H498ZM96 141V164L438 537L98 920V940H172L510 563V512L172 141H96Z"/><glyph unicode="¼" horiz-adv-x="1653" d="M126 631H356V1329L151 1200V1272L364 1409H423V631H632V563H126V631ZM467 0H389L1251 1409H1327L467 0ZM1364 213V2H1294V213H870V264L1300 848H1364V277H1495V213H1364ZM1294 606Q1294 647 1295 690T1298 762Q1290 748 1277 727T1248 684T1218 639T1192 602L950 277H1294V606Z"/><glyph unicode="½" horiz-adv-x="1653" d="M126 631H356V1329L151 1200V1272L364 1409H423V631H632V563H126V631ZM447 0H369L1231 1409H1307L447 0ZM948 2V64Q966 109 996 148T1062 222T1138 289T1216 354Q1252 385 1285 416T1343 480T1382 550T1397 629Q1397 706 1355 751T1222 797Q1141 797 1090 754T1030 633L960 637Q966 686 986 727T1040 797T1120 843T1224 860Q1343 860 1406 800T1470 633Q1470 584 1452 541T1405 458T1337 382T1257 311Q1222 281 1187 252T1122 194T1067 134T1028 70H1483V2H948Z"/><glyph unicode="¾" horiz-adv-x="1653" d="M467 0H389L1251 1409H1327L467 0ZM1364 213V2H1294V213H870V264L1300 848H1364V277H1495V213H1364ZM1294 606Q1294 647 1295 690T1298 762Q1290 748 1277 727T1248 684T1218 639T1192 602L950 277H1294V606ZM875 793Q875 735 857 690T803 614T719 567T608 551Q531 551 480 568T395 615T346 683T324 764L391 774Q404 694 456 653T608 612Q702 612 752 655T803 793Q803 847 781 880T727 931T656 956T586 963H528V1028H584Q615 1028 649 1036T713 1065T762 1119T782 1200Q782 1274 737 1316T604 1358Q523 1358 472 1315T412 1194L342 1202Q348 1257 370 1298T427 1367T507 1407T604 1421Q666 1421 712 1405T790 1360T836 1292T852 1206Q852 1132 810 1076T680 1001V997Q731 992 767 974T828 928T863 865T875 793Z"/><glyph unicode="¿" horiz-adv-x="1133" d="M106 -27Q106 50 128 105T187 203T269 279T362 344Q403 372 441 401T508 465T555 544T573 645H649Q649 574 627 521T569 427T488 353T397 289Q356 260 317 231T248 165T199 83T180 -23Q180 -97 205 -157T279 -259T396 -325T555 -348Q642 -348 710 -322T827 -252T905 -147T944 -18L1024 -25Q1013 -105 977 -176T882 -300T741 -385T557 -416Q451 -416 367 -389T225 -311T137 -188T106 -27ZM655 1014V887H561V1014H655Z"/><glyph unicode="À" horiz-adv-x="1223" d="M659 1409L1219 0H1130L946 469H276L92 0H4L565 1409H659ZM612 1335Q610 1330 602 1306T580 1245T551 1164T516 1075L305 541H918L709 1075Q690 1121 673 1165T643 1246T622 1306T612 1335ZM674 1540V1530H619L340 1772V1786H451L674 1540Z"/><glyph unicode="Á" horiz-adv-x="1223" d="M659 1409L1219 0H1130L946 469H276L92 0H4L565 1409H659ZM612 1335Q610 1330 602 1306T580 1245T551 1164T516 1075L305 541H918L709 1075Q690 1121 673 1165T643 1246T622 1306T612 1335ZM778 1786H889V1772L610 1530H555V1540L778 1786Z"/><glyph unicode="Â" horiz-adv-x="1223" d="M659 1409L1219 0H1130L946 469H276L92 0H4L565 1409H659ZM612 1335Q610 1330 602 1306T580 1245T551 1164T516 1075L305 541H918L709 1075Q690 1121 673 1165T643 1246T622 1306T612 1335ZM665 1786L901 1540V1530H854L620 1700H618L366 1530H319V1540L571 1786H665Z"/><glyph unicode="Ã" horiz-adv-x="1223" d="M659 1409L1219 0H1130L946 469H276L92 0H4L565 1409H659ZM612 1335Q610 1330 602 1306T580 1245T551 1164T516 1075L305 541H918L709 1075Q690 1121 673 1165T643 1246T622 1306T612 1335ZM753 1579Q782 1579 802 1589T836 1618T857 1661T870 1714H931Q925 1670 914 1633T882 1570T830 1528T753 1513Q713 1513 675 1534T601 1582T531 1629T464 1651Q435 1651 415 1640T382 1610T362 1566T350 1513H286Q293 1557 305 1594T337 1657T388 1699T464 1714Q506 1714 544 1693T619 1647T688 1600T753 1579Z"/><glyph unicode="Ä" horiz-adv-x="1223" d="M659 1409L1219 0H1130L946 469H276L92 0H4L565 1409H659ZM612 1335Q610 1330 602 1306T580 1245T551 1164T516 1075L305 541H918L709 1075Q690 1121 673 1165T643 1246T622 1306T612 1335ZM476 1679V1532H385V1679H476ZM840 1679V1532H752V1679H840Z"/><glyph unicode="Å" horiz-adv-x="1223" d="M659 1409L1219 0H1130L946 469H276L92 0H4L565 1409H659ZM612 1335Q610 1330 602 1306T580 1245T551 1164T516 1075L305 541H918L709 1075Q690 1121 673 1165T643 1246T622 1306T612 1335ZM385 1573Q385 1620 403 1661T451 1733T523 1782T612 1800Q660 1800 701 1782T773 1734T821 1662T839 1573Q839 1525 822 1484T773 1411T701 1361T612 1343Q565 1343 524 1361T452 1410T403 1483T385 1573ZM450 1573Q450 1539 462 1510T497 1458T548 1424T612 1411Q646 1411 675 1423T727 1458T761 1509T774 1573Q774 1607 762 1636T727 1686T676 1720T612 1732Q578 1732 549 1720T497 1687T463 1636T450 1573Z"/><glyph unicode="Æ" horiz-adv-x="1784" d="M1683 0H823V469H315L92 0H4L676 1409H1642V1337H901V764H1581V692H901V72H1683V0ZM725 1337L348 541H823V1337H725Z"/><glyph unicode="Ç" horiz-adv-x="1421" d="M770 -20Q610 -20 492 34T295 186T178 418T139 711Q139 876 178 1009T294 1235T488 1379T760 1430Q877 1430 963 1403T1111 1334T1214 1239T1284 1137L1210 1098Q1185 1149 1147 1196T1054 1279T927 1336T760 1358Q619 1358 517 1312T349 1181T251 977T219 711Q219 566 254 445T358 236T530 100T770 51Q874 51 949 75T1079 140T1174 235T1247 352L1315 319Q1279 251 1232 190T1119 82T969 8T770 -20ZM940 -264Q940 -434 709 -434Q656 -434 616 -428V-360Q641 -364 663 -365T709 -367Q754 -367 784 -360T831 -341T856 -310T864 -270Q864 -225 832 -202T721 -178Q705 -178 685 -180T651 -186L725 0H792L747 -115Q838 -115 889 -152T940 -264Z"/><glyph unicode="È" horiz-adv-x="1229" d="M1128 0H199V1409H1087V1337H276V764H1026V692H276V72H1128V0ZM735 1540V1530H680L401 1772V1786H512L735 1540Z"/><glyph unicode="É" horiz-adv-x="1229" d="M1128 0H199V1409H1087V1337H276V764H1026V692H276V72H1128V0ZM768 1786H879V1772L600 1530H545V1540L768 1786Z"/><glyph unicode="Ê" horiz-adv-x="1229" d="M1128 0H199V1409H1087V1337H276V764H1026V692H276V72H1128V0ZM702 1786L938 1540V1530H891L657 1700H655L403 1530H356V1540L608 1786H702Z"/><glyph unicode="Ë" horiz-adv-x="1229" d="M1128 0H199V1409H1087V1337H276V764H1026V692H276V72H1128V0ZM514 1679V1532H423V1679H514ZM878 1679V1532H790V1679H878Z"/><glyph unicode="Ì" horiz-adv-x="475" d="M276 0H199V1409H276V0ZM295 1540V1530H240L-39 1772V1786H72L295 1540Z"/><glyph unicode="Í" horiz-adv-x="475" d="M276 0H199V1409H276V0ZM407 1786H518V1772L239 1530H184V1540L407 1786Z"/><glyph unicode="Î" horiz-adv-x="475" d="M276 0H199V1409H276V0ZM549 1786L785 1540V1530H738L504 1700H502L250 1530H203V1540L455 1786H549Z"/><glyph unicode="Ï" horiz-adv-x="475" d="M276 0H199V1409H276V0ZM357 1679V1532H266V1679H357ZM721 1679V1532H633V1679H721Z"/><glyph unicode="Ð" horiz-adv-x="1493" d="M1354 721Q1354 545 1301 411T1156 185T939 47T668 0H199V662H12V733H199V1409H608Q771 1409 908 1369T1144 1245T1298 1031T1354 721ZM1274 721Q1274 887 1225 1004T1087 1195T875 1303T602 1337H276V733H692V662H276V72H651Q786 72 900 113T1097 236T1227 439T1274 721Z"/><glyph unicode="Ñ" horiz-adv-x="1571" d="M1284 0L260 1315Q263 1268 266 1221Q268 1180 270 1134T272 1049V0H199V1409H281L1311 86Q1307 131 1304 179Q1302 221 1300 271T1298 373V1409H1372V0H1284ZM946 1579Q975 1579 995 1589T1029 1618T1050 1661T1063 1714H1124Q1118 1670 1107 1633T1075 1570T1023 1528T946 1513Q906 1513 868 1534T794 1582T724 1629T657 1651Q628 1651 608 1640T575 1610T555 1566T543 1513H479Q486 1557 498 1594T530 1657T581 1699T657 1714Q699 1714 737 1693T812 1647T881 1600T946 1579Z"/><glyph unicode="Ò" horiz-adv-x="1565" d="M1425 711Q1425 546 1381 411T1254 180T1051 32T780 -20Q620 -20 500 34T300 186T179 418T139 711Q139 876 181 1009T305 1235T507 1379T782 1430Q937 1430 1057 1379T1258 1234T1382 1007T1425 711ZM1343 711Q1343 858 1307 977T1200 1181T1025 1312T782 1358Q642 1358 537 1312T361 1181T255 977T219 711Q219 566 255 445T363 236T538 100T780 51Q927 51 1033 100T1208 237T1310 446T1343 711ZM856 1540V1530H801L522 1772V1786H633L856 1540Z"/><glyph unicode="Ó" horiz-adv-x="1565" d="M1425 711Q1425 546 1381 411T1254 180T1051 32T780 -20Q620 -20 500 34T300 186T179 418T139 711Q139 876 181 1009T305 1235T507 1379T782 1430Q937 1430 1057 1379T1258 1234T1382 1007T1425 711ZM1343 711Q1343 858 1307 977T1200 1181T1025 1312T782 1358Q642 1358 537 1312T361 1181T255 977T219 711Q219 566 255 445T363 236T538 100T780 51Q927 51 1033 100T1208 237T1310 446T1343 711ZM930 1786H1041V1772L762 1530H707V1540L930 1786Z"/><glyph unicode="Ô" horiz-adv-x="1565" d="M1425 711Q1425 546 1381 411T1254 180T1051 32T780 -20Q620 -20 500 34T300 186T179 418T139 711Q139 876 181 1009T305 1235T507 1379T782 1430Q937 1430 1057 1379T1258 1234T1382 1007T1425 711ZM1343 711Q1343 858 1307 977T1200 1181T1025 1312T782 1358Q642 1358 537 1312T361 1181T255 977T219 711Q219 566 255 445T363 236T538 100T780 51Q927 51 1033 100T1208 237T1310 446T1343 711ZM848 1786L1084 1540V1530H1037L803 1700H801L549 1530H502V1540L754 1786H848Z"/><glyph unicode="Õ" horiz-adv-x="1565" d="M1425 711Q1425 546 1381 411T1254 180T1051 32T780 -20Q620 -20 500 34T300 186T179 418T139 711Q139 876 181 1009T305 1235T507 1379T782 1430Q937 1430 1057 1379T1258 1234T1382 1007T1425 711ZM1343 711Q1343 858 1307 977T1200 1181T1025 1312T782 1358Q642 1358 537 1312T361 1181T255 977T219 711Q219 566 255 445T363 236T538 100T780 51Q927 51 1033 100T1208 237T1310 446T1343 711ZM930 1579Q959 1579 979 1589T1013 1618T1034 1661T1047 1714H1108Q1102 1670 1091 1633T1059 1570T1007 1528T930 1513Q890 1513 852 1534T778 1582T708 1629T641 1651Q612 1651 592 1640T559 1610T539 1566T527 1513H463Q470 1557 482 1594T514 1657T565 1699T641 1714Q683 1714 721 1693T796 1647T865 1600T930 1579Z"/><glyph unicode="Ö" horiz-adv-x="1565" d="M1425 711Q1425 546 1381 411T1254 180T1051 32T780 -20Q620 -20 500 34T300 186T179 418T139 711Q139 876 181 1009T305 1235T507 1379T782 1430Q937 1430 1057 1379T1258 1234T1382 1007T1425 711ZM1343 711Q1343 858 1307 977T1200 1181T1025 1312T782 1358Q642 1358 537 1312T361 1181T255 977T219 711Q219 566 255 445T363 236T538 100T780 51Q927 51 1033 100T1208 237T1310 446T1343 711ZM641 1679V1532H550V1679H641ZM1005 1679V1532H917V1679H1005Z"/><glyph unicode="×" horiz-adv-x="1061" d="M575 684L928 332L883 287L530 639L178 287L133 332L485 684L133 1036L178 1081L530 729L874 1073L920 1028L575 684Z"/><glyph unicode="Ø" horiz-adv-x="1565" d="M1425 711Q1425 546 1381 411T1254 180T1051 32T780 -20Q643 -20 535 20T348 133L199 -45H98L299 188Q219 285 179 418T139 711Q139 876 181 1009T305 1235T507 1379T782 1430Q920 1430 1028 1390T1217 1278L1368 1458H1462L1268 1223Q1345 1129 1385 1000T1425 711ZM219 711Q219 571 252 455T350 252L1165 1217Q1096 1285 1000 1321T782 1358Q642 1358 537 1312T361 1181T255 977T219 711ZM1343 711Q1343 850 1312 964T1217 1161L399 195Q471 126 565 89T780 51Q927 51 1033 100T1208 237T1310 446T1343 711Z"/><glyph unicode="Ù" horiz-adv-x="1448" d="M1260 516Q1260 380 1216 280T1097 113T921 13T709 -20Q602 -20 508 10T342 104T230 265T188 494V1409H266V504Q266 385 302 299T398 158T540 77T711 51Q798 51 882 78T1033 163T1141 308T1182 516V1409H1260V516ZM784 1540V1530H729L450 1772V1786H561L784 1540Z"/><glyph unicode="Ú" horiz-adv-x="1448" d="M1260 516Q1260 380 1216 280T1097 113T921 13T709 -20Q602 -20 508 10T342 104T230 265T188 494V1409H266V504Q266 385 302 299T398 158T540 77T711 51Q798 51 882 78T1033 163T1141 308T1182 516V1409H1260V516ZM870 1786H981V1772L702 1530H647V1540L870 1786Z"/><glyph unicode="Û" horiz-adv-x="1448" d="M1260 516Q1260 380 1216 280T1097 113T921 13T709 -20Q602 -20 508 10T342 104T230 265T188 494V1409H266V504Q266 385 302 299T398 158T540 77T711 51Q798 51 882 78T1033 163T1141 308T1182 516V1409H1260V516ZM792 1786L1028 1540V1530H981L747 1700H745L493 1530H446V1540L698 1786H792Z"/><glyph unicode="Ü" horiz-adv-x="1448" d="M1260 516Q1260 380 1216 280T1097 113T921 13T709 -20Q602 -20 508 10T342 104T230 265T188 494V1409H266V504Q266 385 302 299T398 158T540 77T711 51Q798 51 882 78T1033 163T1141 308T1182 516V1409H1260V516ZM586 1679V1532H495V1679H586ZM950 1679V1532H862V1679H950Z"/><glyph unicode="Ý" horiz-adv-x="1124" d="M561 707L1020 1409H1112L600 635V0H524V635L12 1409H104L561 707ZM708 1786H819V1772L540 1530H485V1540L708 1786Z"/><glyph unicode="Þ" horiz-adv-x="1262" d="M1057 729Q1057 808 1032 870T957 976T831 1042T657 1065H276V383H666Q766 383 840 409T962 481T1033 591T1057 729ZM1137 731Q1137 647 1108 571T1022 437T879 345T680 311H276V0H199V1409H276V1137H668Q783 1137 870 1108T1017 1026T1107 897T1137 731Z"/><glyph unicode="ß" horiz-adv-x="1145" d="M758 47Q801 47 841 58T913 95T962 159T981 254Q981 302 966 339T927 407T872 462T807 514Q767 545 725 574T649 634T593 702T571 786Q571 826 584 855T618 907T668 949T729 987Q794 1025 822 1070T850 1188Q850 1228 834 1264T784 1327T696 1370T567 1386Q493 1386 435 1364T336 1295T274 1176T252 1006V0H178V1010Q178 1130 208 1214T291 1352T415 1430T567 1454Q646 1454 712 1438T827 1388T901 1306T928 1190Q928 1145 919 1109T889 1043T839 986T768 936Q742 920 719 905T678 873T651 837T641 793Q641 757 660 729T709 674T777 623T852 569Q889 540 925 511T991 445T1037 363T1055 256Q1055 183 1028 131T958 46T862 -2T758 -18Q687 -18 629 -6T527 36T451 113T403 233L479 252Q494 190 519 150T580 87T660 56T758 47Z"/><glyph unicode="à" horiz-adv-x="1135" d="M199 262Q199 213 214 173T262 105T345 62T463 47Q533 47 590 64T692 110T770 177T825 257T857 343T868 426V520L608 516Q517 514 442 503T312 463T229 386T199 262ZM123 262Q123 353 159 413T260 510T414 562T608 580L868 584V657Q868 815 789 891T561 967Q421 967 341 912T244 741L168 752Q177 813 205 865T282 954T400 1013T561 1034Q748 1034 845 941T942 670V231Q942 143 963 100T1042 57Q1059 57 1075 60T1104 68V0Q1087 -5 1069 -7T1034 -10Q987 -10 956 5T906 49T880 121T872 221H868Q839 167 799 123T707 47T593 -2T459 -20Q294 -20 209 52T123 262ZM653 1149V1139H596L320 1419V1434H428L653 1149Z"/><glyph unicode="á" horiz-adv-x="1135" d="M199 262Q199 213 214 173T262 105T345 62T463 47Q533 47 590 64T692 110T770 177T825 257T857 343T868 426V520L608 516Q517 514 442 503T312 463T229 386T199 262ZM123 262Q123 353 159 413T260 510T414 562T608 580L868 584V657Q868 815 789 891T561 967Q421 967 341 912T244 741L168 752Q177 813 205 865T282 954T400 1013T561 1034Q748 1034 845 941T942 670V231Q942 143 963 100T1042 57Q1059 57 1075 60T1104 68V0Q1087 -5 1069 -7T1034 -10Q987 -10 956 5T906 49T880 121T872 221H868Q839 167 799 123T707 47T593 -2T459 -20Q294 -20 209 52T123 262ZM479 1139V1149L702 1434H813V1419L534 1139H479Z"/><glyph unicode="â" horiz-adv-x="1135" d="M199 262Q199 213 214 173T262 105T345 62T463 47Q533 47 590 64T692 110T770 177T825 257T857 343T868 426V520L608 516Q517 514 442 503T312 463T229 386T199 262ZM123 262Q123 353 159 413T260 510T414 562T608 580L868 584V657Q868 815 789 891T561 967Q421 967 341 912T244 741L168 752Q177 813 205 865T282 954T400 1013T561 1034Q748 1034 845 941T942 670V231Q942 143 963 100T1042 57Q1059 57 1075 60T1104 68V0Q1087 -5 1069 -7T1034 -10Q987 -10 956 5T906 49T880 121T872 221H868Q839 167 799 123T707 47T593 -2T459 -20Q294 -20 209 52T123 262ZM627 1434L863 1149V1139H816L582 1348H580L328 1139H281V1149L533 1434H627Z"/><glyph unicode="ã" horiz-adv-x="1135" d="M199 262Q199 213 214 173T262 105T345 62T463 47Q533 47 590 64T692 110T770 177T825 257T857 343T868 426V520L608 516Q517 514 442 503T312 463T229 386T199 262ZM123 262Q123 353 159 413T260 510T414 562T608 580L868 584V657Q868 815 789 891T561 967Q421 967 341 912T244 741L168 752Q177 813 205 865T282 954T400 1013T561 1034Q748 1034 845 941T942 670V231Q942 143 963 100T1042 57Q1059 57 1075 60T1104 68V0Q1087 -5 1069 -7T1034 -10Q987 -10 956 5T906 49T880 121T872 221H868Q839 167 799 123T707 47T593 -2T459 -20Q294 -20 209 52T123 262ZM702 1202Q731 1202 751 1213T785 1243T806 1287T819 1339H880Q874 1295 863 1259T831 1196T779 1154T702 1139Q662 1139 624 1160T550 1207T480 1254T413 1276Q384 1276 364 1265T331 1235T311 1191T299 1139H235Q242 1182 254 1219T286 1282T337 1324T413 1339Q455 1339 493 1318T568 1271T637 1224T702 1202Z"/><glyph unicode="ä" horiz-adv-x="1135" d="M199 262Q199 213 214 173T262 105T345 62T463 47Q533 47 590 64T692 110T770 177T825 257T857 343T868 426V520L608 516Q517 514 442 503T312 463T229 386T199 262ZM123 262Q123 353 159 413T260 510T414 562T608 580L868 584V657Q868 815 789 891T561 967Q421 967 341 912T244 741L168 752Q177 813 205 865T282 954T400 1013T561 1034Q748 1034 845 941T942 670V231Q942 143 963 100T1042 57Q1059 57 1075 60T1104 68V0Q1087 -5 1069 -7T1034 -10Q987 -10 956 5T906 49T880 121T872 221H868Q839 167 799 123T707 47T593 -2T459 -20Q294 -20 209 52T123 262ZM435 1307V1159H344V1307H435ZM799 1307V1159H711V1307H799Z"/><glyph unicode="å" horiz-adv-x="1135" d="M199 262Q199 213 214 173T262 105T345 62T463 47Q533 47 590 64T692 110T770 177T825 257T857 343T868 426V520L608 516Q517 514 442 503T312 463T229 386T199 262ZM123 262Q123 353 159 413T260 510T414 562T608 580L868 584V657Q868 815 789 891T561 967Q421 967 341 912T244 741L168 752Q177 813 205 865T282 954T400 1013T561 1034Q748 1034 845 941T942 670V231Q942 143 963 100T1042 57Q1059 57 1075 60T1104 68V0Q1087 -5 1069 -7T1034 -10Q987 -10 956 5T906 49T880 121T872 221H868Q839 167 799 123T707 47T593 -2T459 -20Q294 -20 209 52T123 262ZM338 1350Q338 1397 356 1438T404 1510T476 1559T565 1577Q613 1577 654 1559T726 1511T774 1439T792 1350Q792 1302 775 1261T726 1188T654 1138T565 1120Q518 1120 477 1138T405 1187T356 1260T338 1350ZM403 1350Q403 1316 415 1287T450 1235T501 1201T565 1188Q599 1188 628 1200T680 1235T714 1286T727 1350Q727 1384 715 1413T680 1463T629 1497T565 1509Q531 1509 502 1497T450 1464T416 1413T403 1350Z"/><glyph unicode="æ" horiz-adv-x="1878" d="M123 262Q123 353 159 413T260 510T414 562T608 580L868 584V657Q868 815 789 891T561 967Q421 967 341 912T244 741L168 752Q177 813 205 865T282 954T400 1013T561 1034Q711 1034 803 973T926 797Q957 861 1002 906T1100 980T1210 1021T1325 1034Q1439 1034 1521 996T1657 891T1737 731T1763 528V500H944Q944 407 967 325T1038 181T1160 83T1337 47Q1402 47 1457 62T1555 106T1630 174T1679 262L1749 240Q1733 198 1703 153T1624 69T1504 5T1335 -20Q1176 -20 1065 56T903 279Q834 127 721 54T459 -20Q381 -20 319 -3T213 49T146 137T123 262ZM199 262Q199 156 267 102T463 47Q561 47 636 81T763 170T841 292T868 426V520L610 516Q517 514 441 502T312 462T229 385T199 262ZM1323 967Q1252 967 1186 945T1068 875T983 751T946 567H1688Q1681 658 1657 731T1589 857T1480 938T1323 967Z"/><glyph unicode="ç" horiz-adv-x="1100" d="M117 506Q117 630 149 728T241 894T388 998T586 1034Q675 1034 744 1013T864 953T945 864T989 754L911 739Q901 788 876 830T810 902T712 950T582 967Q487 967 414 935T292 843T218 698T193 504Q193 392 219 307T296 164T419 77T584 47Q651 47 708 64T808 113T881 190T920 293L993 281Q982 219 950 164T865 68T741 4T582 -20Q465 -20 378 18T233 125T146 292T117 506ZM748 -264Q748 -434 517 -434Q464 -434 424 -428V-360Q449 -364 471 -365T517 -367Q562 -367 592 -360T639 -341T664 -310T672 -270Q672 -225 640 -202T529 -178Q513 -178 493 -180T459 -186L533 0H600L555 -115Q646 -115 697 -152T748 -264Z"/><glyph unicode="è" horiz-adv-x="1128" d="M193 500Q193 407 215 325T286 181T408 83T586 47Q651 47 706 62T804 106T879 174T928 262L997 240Q981 198 951 153T873 69T753 5T584 -20Q478 -20 392 15T244 118T150 286T117 516Q117 660 158 759T264 919T412 1007T575 1034Q688 1034 770 996T906 891T986 731T1012 528V500H193ZM573 967Q501 967 435 945T317 875T232 751T195 567H936Q929 658 906 731T838 857T729 938T573 967ZM659 1149V1139H602L326 1419V1434H434L659 1149Z"/><glyph unicode="é" horiz-adv-x="1128" d="M193 500Q193 407 215 325T286 181T408 83T586 47Q651 47 706 62T804 106T879 174T928 262L997 240Q981 198 951 153T873 69T753 5T584 -20Q478 -20 392 15T244 118T150 286T117 516Q117 660 158 759T264 919T412 1007T575 1034Q688 1034 770 996T906 891T986 731T1012 528V500H193ZM573 967Q501 967 435 945T317 875T232 751T195 567H936Q929 658 906 731T838 857T729 938T573 967ZM508 1139V1149L731 1434H842V1419L563 1139H508Z"/><glyph unicode="ê" horiz-adv-x="1128" d="M193 500Q193 407 215 325T286 181T408 83T586 47Q651 47 706 62T804 106T879 174T928 262L997 240Q981 198 951 153T873 69T753 5T584 -20Q478 -20 392 15T244 118T150 286T117 516Q117 660 158 759T264 919T412 1007T575 1034Q688 1034 770 996T906 891T986 731T1012 528V500H193ZM573 967Q501 967 435 945T317 875T232 751T195 567H936Q929 658 906 731T838 857T729 938T573 967ZM633 1434L869 1149V1139H822L588 1348H586L334 1139H287V1149L539 1434H633Z"/><glyph unicode="ë" horiz-adv-x="1128" d="M193 500Q193 407 215 325T286 181T408 83T586 47Q651 47 706 62T804 106T879 174T928 262L997 240Q981 198 951 153T873 69T753 5T584 -20Q478 -20 392 15T244 118T150 286T117 516Q117 660 158 759T264 919T412 1007T575 1034Q688 1034 770 996T906 891T986 731T1012 528V500H193ZM573 967Q501 967 435 945T317 875T232 751T195 567H936Q929 658 906 731T838 857T729 938T573 967ZM435 1307V1159H344V1307H435ZM799 1307V1159H711V1307H799Z"/><glyph unicode="ì" horiz-adv-x="430" d="M178 0V1014H252V0H178ZM286 1149V1139H229L-47 1419V1434H61L286 1149Z"/><glyph unicode="í" horiz-adv-x="430" d="M178 0V1014H252V0H178ZM149 1139V1149L372 1434H483V1419L204 1139H149Z"/><glyph unicode="î" horiz-adv-x="430" d="M178 0V1014H252V0H178ZM528 1434L764 1149V1139H717L483 1348H481L229 1139H182V1149L434 1434H528Z"/><glyph unicode="ï" horiz-adv-x="430" d="M178 0V1014H252V0H178ZM334 1307V1159H243V1307H334ZM698 1307V1159H610V1307H698Z"/><glyph unicode="ð" horiz-adv-x="1182" d="M117 483Q117 591 146 682T234 840T382 945T592 983Q686 983 759 962T889 903Q833 1009 760 1105T602 1270L356 1153V1229L547 1317Q496 1355 442 1390T328 1454H434Q481 1432 524 1406T614 1348L852 1458V1386L672 1300Q762 1222 834 1129T958 932T1037 716T1065 489V483Q1065 372 1035 280T945 121T796 17T586 -20Q472 -20 385 17T238 120T148 279T117 483ZM989 483Q989 701 889 809T596 918Q400 918 297 808T193 483Q193 372 221 290T301 154T425 74T584 47Q681 47 756 73T883 154T962 290T989 483Z"/><glyph unicode="ñ" horiz-adv-x="1161" d="M920 0V618Q920 693 904 758T850 870T754 944T608 971Q532 971 467 941T354 860T279 739T252 590V0H178V791Q178 822 177 861T174 934Q172 974 170 1014H229Q232 974 236 935Q239 902 241 865T244 799H248Q371 1034 627 1034Q728 1034 798 1001T911 912T974 781T993 625V0H920ZM743 1202Q772 1202 792 1213T826 1243T847 1287T860 1339H921Q915 1295 904 1259T872 1196T820 1154T743 1139Q703 1139 665 1160T591 1207T521 1254T454 1276Q425 1276 405 1265T372 1235T352 1191T340 1139H276Q283 1182 295 1219T327 1282T378 1324T454 1339Q496 1339 534 1318T609 1271T678 1224T743 1202Z"/><glyph unicode="ò" horiz-adv-x="1182" d="M1065 508Q1065 392 1035 295T945 128T796 19T586 -20Q472 -20 385 19T238 127T148 294T117 508Q117 621 146 717T234 883T382 994T592 1034Q719 1034 808 995T955 885T1038 718T1065 508ZM989 508Q989 740 889 853T596 967Q401 967 297 851T193 508Q193 391 221 305T301 161T425 76T584 47Q681 47 756 75T883 160T962 304T989 508ZM663 1149V1139H606L330 1419V1434H438L663 1149Z"/><glyph unicode="ó" horiz-adv-x="1182" d="M1065 508Q1065 392 1035 295T945 128T796 19T586 -20Q472 -20 385 19T238 127T148 294T117 508Q117 621 146 717T234 883T382 994T592 1034Q719 1034 808 995T955 885T1038 718T1065 508ZM989 508Q989 740 889 853T596 967Q401 967 297 851T193 508Q193 391 221 305T301 161T425 76T584 47Q681 47 756 75T883 160T962 304T989 508ZM518 1139V1149L741 1434H852V1419L573 1139H518Z"/><glyph unicode="ô" horiz-adv-x="1182" d="M1065 508Q1065 392 1035 295T945 128T796 19T586 -20Q472 -20 385 19T238 127T148 294T117 508Q117 621 146 717T234 883T382 994T592 1034Q719 1034 808 995T955 885T1038 718T1065 508ZM989 508Q989 740 889 853T596 967Q401 967 297 851T193 508Q193 391 221 305T301 161T425 76T584 47Q681 47 756 75T883 160T962 304T989 508ZM649 1434L885 1149V1139H838L604 1348H602L350 1139H303V1149L555 1434H649Z"/><glyph unicode="õ" horiz-adv-x="1182" d="M1065 508Q1065 392 1035 295T945 128T796 19T586 -20Q472 -20 385 19T238 127T148 294T117 508Q117 621 146 717T234 883T382 994T592 1034Q719 1034 808 995T955 885T1038 718T1065 508ZM989 508Q989 740 889 853T596 967Q401 967 297 851T193 508Q193 391 221 305T301 161T425 76T584 47Q681 47 756 75T883 160T962 304T989 508ZM729 1202Q758 1202 778 1213T812 1243T833 1287T846 1339H907Q901 1295 890 1259T858 1196T806 1154T729 1139Q689 1139 651 1160T577 1207T507 1254T440 1276Q411 1276 391 1265T358 1235T338 1191T326 1139H262Q269 1182 281 1219T313 1282T364 1324T440 1339Q482 1339 520 1318T595 1271T664 1224T729 1202Z"/><glyph unicode="ö" horiz-adv-x="1182" d="M1065 508Q1065 392 1035 295T945 128T796 19T586 -20Q472 -20 385 19T238 127T148 294T117 508Q117 621 146 717T234 883T382 994T592 1034Q719 1034 808 995T955 885T1038 718T1065 508ZM989 508Q989 740 889 853T596 967Q401 967 297 851T193 508Q193 391 221 305T301 161T425 76T584 47Q681 47 756 75T883 160T962 304T989 508ZM447 1307V1159H356V1307H447ZM811 1307V1159H723V1307H811Z"/><glyph unicode="÷" horiz-adv-x="1065" d="M483 281V408H578V281H483ZM483 954V1081H578V954H483ZM72 649V713H991V649H72Z"/><glyph unicode="ø" horiz-adv-x="1182" d="M92 -35L233 133Q176 202 147 297T117 508Q117 621 146 717T234 883T382 994T592 1034Q694 1034 771 1008T905 936L999 1049H1085L952 889Q1011 818 1038 721T1065 508Q1065 392 1035 295T945 128T796 19T586 -20Q490 -20 414 7T279 86L180 -35H92ZM989 508Q989 721 905 831L324 137Q426 47 584 47Q681 47 756 75T883 160T962 304T989 508ZM193 508Q193 405 215 325T279 188L860 883Q761 967 596 967Q401 967 297 851T193 508Z"/><glyph unicode="ù" horiz-adv-x="1161" d="M242 1014V395Q242 320 258 256T311 144T407 70T553 43Q629 43 694 73T807 154T882 275T909 424V1014H983V223Q983 189 984 150T987 78Q989 38 991 0H932Q928 39 925 78Q922 111 920 148T918 215H913Q791 -20 535 -20Q433 -20 363 13T250 102T187 233T168 389V1014H242ZM657 1149V1139H600L324 1419V1434H432L657 1149Z"/><glyph unicode="ú" horiz-adv-x="1161" d="M242 1014V395Q242 320 258 256T311 144T407 70T553 43Q629 43 694 73T807 154T882 275T909 424V1014H983V223Q983 189 984 150T987 78Q989 38 991 0H932Q928 39 925 78Q922 111 920 148T918 215H913Q791 -20 535 -20Q433 -20 363 13T250 102T187 233T168 389V1014H242ZM504 1139V1149L727 1434H838V1419L559 1139H504Z"/><glyph unicode="û" horiz-adv-x="1161" d="M242 1014V395Q242 320 258 256T311 144T407 70T553 43Q629 43 694 73T807 154T882 275T909 424V1014H983V223Q983 189 984 150T987 78Q989 38 991 0H932Q928 39 925 78Q922 111 920 148T918 215H913Q791 -20 535 -20Q433 -20 363 13T250 102T187 233T168 389V1014H242ZM635 1434L871 1149V1139H824L590 1348H588L336 1139H289V1149L541 1434H635Z"/><glyph unicode="ü" horiz-adv-x="1161" d="M242 1014V395Q242 320 258 256T311 144T407 70T553 43Q629 43 694 73T807 154T882 275T909 424V1014H983V223Q983 189 984 150T987 78Q989 38 991 0H932Q928 39 925 78Q922 111 920 148T918 215H913Q791 -20 535 -20Q433 -20 363 13T250 102T187 233T168 389V1014H242ZM445 1307V1159H354V1307H445ZM809 1307V1159H721V1307H809Z"/><glyph unicode="ý" horiz-adv-x="930" d="M467 -80Q428 -175 393 -245T322 -362T243 -432T147 -455Q127 -455 102 -454T59 -449V-381Q76 -384 102 -385T143 -387Q187 -387 222 -363T288 -294T347 -187T406 -47L424 0L10 1014H90L463 90L842 1014H920L467 -80ZM399 1139V1149L622 1434H733V1419L454 1139H399Z"/><glyph unicode="þ" horiz-adv-x="1202" d="M1010 512Q1010 613 987 697T916 841T798 934T629 967Q552 967 483 942T362 862T279 718T248 504Q248 379 278 293T360 151T480 72T627 47Q719 47 790 79T910 171T984 317T1010 512ZM1085 512Q1085 398 1058 301T974 133T834 21T635 -20Q566 -20 507 -4T398 41T313 109T252 195H248Q249 165 250 133Q251 105 251 72T252 4V-455H178V1454H252V1008Q252 985 252 952T250 887Q249 851 248 813H252Q281 864 318 904T404 974T515 1018T655 1034Q764 1034 845 994T979 884T1058 718T1085 512Z"/><glyph unicode="ÿ" horiz-adv-x="930" d="M467 -80Q428 -175 393 -245T322 -362T243 -432T147 -455Q127 -455 102 -454T59 -449V-381Q76 -384 102 -385T143 -387Q187 -387 222 -363T288 -294T347 -187T406 -47L424 0L10 1014H90L463 90L842 1014H920L467 -80ZM328 1307V1159H237V1307H328ZM692 1307V1159H604V1307H692Z"/><glyph unicode="ı" horiz-adv-x="430" d="M178 0V1014H252V0H178Z"/><glyph unicode="Œ" horiz-adv-x="1925" d="M139 711Q139 876 181 1008T305 1232T507 1373T782 1423Q832 1423 877 1419T967 1409H1784V1337H1042V764H1722V692H1042V72H1825V0H965Q923 -9 877 -14T780 -20Q620 -20 500 34T300 186T179 418T139 711ZM219 711Q219 566 255 445T363 236T538 100T780 51Q883 51 965 76V1333Q926 1343 879 1347T782 1352Q642 1352 537 1307T361 1179T255 977T219 711Z"/><glyph unicode="œ" horiz-adv-x="2001" d="M117 508Q117 621 146 717T234 883T382 994T592 1034Q686 1034 759 1012T886 949T974 854T1026 731Q1044 798 1081 853T1174 949T1298 1011T1448 1034Q1561 1034 1643 996T1778 891T1858 731T1884 528V500H1065Q1065 407 1088 325T1159 181T1281 83T1458 47Q1523 47 1578 62T1676 106T1751 174T1800 262L1870 240Q1854 198 1824 153T1745 69T1625 5T1456 -20Q1368 -20 1297 3T1171 69T1080 168T1026 293Q1009 225 973 168T881 69T752 4T586 -20Q472 -20 385 19T238 127T148 294T117 508ZM193 508Q193 391 221 305T301 161T425 76T584 47Q681 47 756 75T883 160T962 304T989 508Q989 740 889 853T596 967Q401 967 297 851T193 508ZM1446 967Q1374 967 1307 945T1189 875T1104 751T1067 567H1808Q1801 658 1778 731T1711 857T1602 938T1446 967Z"/><glyph unicode="Š" horiz-adv-x="1290" d="M1151 371Q1151 289 1120 218T1027 94T870 11T649 -20Q532 -20 442 3T289 70T186 176T129 317L209 334Q223 272 253 220T336 130T465 71T649 51Q735 52 812 69T946 125T1037 223T1071 369Q1071 428 1053 471T1004 547T931 603T839 643T737 674T631 702Q580 716 528 730T428 765T338 811T265 874T215 959T197 1071Q197 1165 232 1233T328 1345T473 1409T653 1430Q763 1430 843 1411T980 1354T1072 1261T1126 1135L1040 1116Q1026 1172 999 1217T927 1293T814 1341T653 1358Q549 1358 477 1337T361 1277T296 1188T276 1075Q276 1000 309 951T397 868T523 813T672 770Q727 755 784 740T894 704T994 656T1076 589T1131 496T1151 371ZM621 1530L369 1776V1786H416L668 1618H670L904 1786H951V1776L715 1530H621Z"/><glyph unicode="š" horiz-adv-x="979" d="M881 274Q881 206 855 152T778 60T655 1T489 -20Q405 -20 338 -8T219 34T134 112T82 233L158 252Q173 189 203 149T276 87T372 56T489 47Q556 47 614 60T714 101T781 169T805 268Q805 327 778 363T703 423T593 462T459 496Q397 511 338 529T231 578T154 653T125 766Q125 830 150 879T222 963T337 1016T492 1034Q562 1034 623 1020T731 976T811 900T856 788L778 774Q767 828 740 865T675 924T590 957T492 967Q419 967 364 953T273 912T218 850T199 770Q199 717 222 683T286 627T386 588T514 555Q579 539 644 521T762 472T848 394T881 274ZM455 1139L203 1423V1434H250L502 1225H504L738 1434H785V1423L549 1139H455Z"/><glyph unicode="Ÿ" horiz-adv-x="1124" d="M561 707L1020 1409H1112L600 635V0H524V635L12 1409H104L561 707ZM424 1679V1532H333V1679H424ZM788 1679V1532H700V1679H788Z"/><glyph unicode="Ž" horiz-adv-x="1253" d="M78 0V66L1040 1337H150V1409H1139V1348L176 72H1178V0H78ZM602 1530L350 1776V1786H397L649 1618H651L885 1786H932V1776L696 1530H602Z"/><glyph unicode="ž" horiz-adv-x="905" d="M68 0V70L715 944H109V1014H803V944L156 70H827V0H68ZM420 1139L168 1423V1434H215L467 1225H469L703 1434H750V1423L514 1139H420Z"/><glyph unicode="ƒ" horiz-adv-x="1065" d="M799 780H571L328 -455H256L498 780H289L303 848H510L569 1147Q580 1204 595 1253T638 1338T709 1396T821 1417Q859 1417 898 1411T965 1395L946 1333Q921 1341 885 1348T817 1356Q776 1356 748 1343T699 1303T666 1237T643 1147L584 848H813L799 780Z"/><glyph unicode="ˆ" horiz-adv-x="584" d="M346 1434L582 1149V1139H535L301 1348H299L47 1139H0V1149L252 1434H346Z"/><glyph unicode="ˇ" horiz-adv-x="584" d="M252 1139L0 1423V1434H47L299 1225H301L535 1434H582V1423L346 1139H252Z"/><glyph unicode="˚" horiz-adv-x="584" d="M66 1350Q66 1397 84 1438T132 1510T204 1559T293 1577Q341 1577 382 1559T454 1511T502 1439T520 1350Q520 1302 503 1261T454 1188T382 1138T293 1120Q246 1120 205 1138T133 1187T84 1260T66 1350ZM131 1350Q131 1316 143 1287T178 1235T229 1201T293 1188Q327 1188 356 1200T408 1235T442 1286T455 1350Q455 1384 443 1413T408 1463T357 1497T293 1509Q259 1509 230 1497T178 1464T144 1413T131 1350Z"/><glyph unicode="˜" horiz-adv-x="584" d="M436 1202Q465 1202 485 1213T519 1243T540 1287T553 1339H614Q608 1295 597 1259T565 1196T513 1154T436 1139Q396 1139 358 1160T284 1207T214 1254T147 1276Q118 1276 98 1265T65 1235T45 1191T33 1139H-31Q-24 1182 -12 1219T20 1282T71 1324T147 1339Q189 1339 227 1318T302 1271T371 1224T436 1202Z"/><glyph unicode="–" horiz-adv-x="999" d="M0 473V541H999V473H0Z"/><glyph unicode="—" horiz-adv-x="2048" d="M0 473V541H2048V473H0Z"/><glyph unicode="‘" horiz-adv-x="279" d="M88 1081V1174Q88 1211 90 1241T97 1299T112 1353T135 1409H190Q158 1350 148 1303T137 1208H182V1081H88Z"/><glyph unicode="’" horiz-adv-x="279" d="M190 1317Q190 1279 188 1249T181 1191T166 1137T143 1081H88Q120 1140 130 1187T141 1282H96V1409H190V1317Z"/><glyph unicode="‚" horiz-adv-x="401" d="M248 35Q248 -3 246 -33T239 -91T224 -145T201 -201H145Q177 -142 188 -95T199 0H154V127H248V35Z"/><glyph unicode="“" horiz-adv-x="504" d="M313 1174Q313 1211 315 1241T323 1299T337 1353T360 1409H416Q384 1350 373 1303T362 1208H408V1081H313V1174ZM88 1174Q88 1211 90 1241T97 1299T112 1353T135 1409H190Q158 1350 148 1303T137 1208H182V1081H88V1174Z"/><glyph unicode="”" horiz-adv-x="504" d="M190 1317Q190 1279 188 1249T181 1191T166 1137T143 1081H88Q120 1140 130 1187T141 1282H96V1409H190V1317ZM416 1317Q416 1279 414 1249T407 1191T392 1137T369 1081H313Q345 1140 356 1187T367 1282H322V1409H416V1317Z"/><glyph unicode="„" horiz-adv-x="504" d="M190 35Q190 -3 188 -33T181 -91T166 -145T143 -201H88Q120 -142 130 -95T141 0H96V127H190V35ZM416 35Q416 -3 414 -33T407 -91T392 -145T369 -201H313Q345 -142 356 -95T367 0H322V127H416V35Z"/><glyph unicode="†" horiz-adv-x="942" d="M506 981L500 -258H444L438 981L66 977V1044L438 1040L434 1454H510L506 1040L879 1044V977L506 981Z"/><glyph unicode="‡" horiz-adv-x="942" d="M494 598L504 213L879 219V152L504 156L510 -258H434L440 156L66 152V219L440 213L451 598L440 983L66 977V1044L440 1040L434 1454H510L504 1040L879 1044V977L504 983L494 598Z"/><glyph unicode="•" horiz-adv-x="872" d="M696 686Q696 633 676 586T619 504T536 447T434 426Q381 426 334 447T252 503T197 586T176 686Q176 740 196 787T252 869T334 925T434 946Q488 946 535 926T619 870T675 787T696 686Z"/><glyph unicode="…" horiz-adv-x="1206" d="M154 0V127H248V0H154ZM557 0V127H651V0H557ZM958 0V127H1053V0H958Z"/><glyph unicode="‰" horiz-adv-x="2523" d="M463 0H381L1323 1409H1407L463 0ZM678 971Q678 844 657 758T597 620T508 545T399 522Q341 522 291 544T203 619T145 758T123 971Q123 1103 144 1189T203 1327T292 1398T403 1419Q461 1419 511 1399T598 1327T656 1190T678 971ZM604 971Q604 1082 590 1157T550 1277T487 1341T403 1360Q355 1360 317 1341T252 1276T211 1157T197 971Q197 864 211 790T252 671T316 605T401 584Q446 584 483 604T547 670T589 790T604 971ZM1663 438Q1663 311 1642 226T1582 88T1493 13T1384 -10Q1326 -10 1276 12T1188 87T1130 225T1108 438Q1108 570 1129 657T1188 795T1277 866T1389 887Q1446 887 1496 867T1583 795T1641 657T1663 438ZM1589 438Q1589 549 1575 624T1536 744T1473 808T1389 827Q1341 827 1303 808T1237 743T1196 624T1182 438Q1182 331 1196 258T1237 138T1301 72T1386 51Q1431 51 1468 71T1532 138T1574 257T1589 438ZM2400 438Q2400 311 2379 226T2320 88T2231 13T2122 -10Q2063 -10 2013 12T1925 87T1867 225T1845 438Q1845 570 1866 657T1926 795T2015 866T2128 887Q2185 887 2234 867T2320 795T2378 657T2400 438ZM2327 438Q2327 549 2313 624T2274 744T2211 808T2128 827Q2080 827 2042 808T1976 743T1935 624T1921 438Q1921 331 1935 258T1976 138T2040 72T2124 51Q2169 51 2206 71T2270 138T2312 257T2327 438Z"/><glyph unicode="‹" horiz-adv-x="606" d="M434 141L96 512V563L434 940H508V920L168 537L510 164V141H434Z"/><glyph unicode="›" horiz-adv-x="606" d="M96 141V164L438 537L98 920V940H172L510 563V512L172 141H96Z"/><glyph unicode="⁄" horiz-adv-x="246" d="M-262 0H-340L522 1409H598L-262 0Z"/><glyph unicode="⁰" horiz-adv-x="721" d="M637 987Q637 864 616 781T556 646T467 573T358 551Q300 551 250 573T162 646T104 780T82 987Q82 1114 103 1198T162 1331T251 1401T362 1421Q420 1421 470 1401T557 1332T615 1198T637 987ZM563 985Q563 1093 549 1164T509 1279T446 1340T362 1358Q314 1358 276 1340T211 1279T170 1164T156 985Q156 881 170 810T211 695T275 632T360 612Q405 612 442 631T506 695T548 810T563 985Z"/><glyph unicode="⁴" horiz-adv-x="721" d="M539 774V563H469V774H45V825L475 1409H539V838H670V774H539ZM469 1167Q469 1208 470 1251T473 1323Q465 1309 452 1288T423 1245T393 1200T367 1163L125 838H469V1167Z"/><glyph unicode="⁵" horiz-adv-x="721" d="M635 838Q635 773 617 721T562 631T473 574T350 553Q285 553 239 570T161 616T110 681T82 754L154 764Q162 730 177 703T215 656T273 625T354 614Q453 614 508 668T563 834Q563 928 509 978T360 1028Q302 1028 259 1009T184 963H109L135 1409H588V1341H199L178 1026Q206 1048 253 1069T371 1090Q432 1090 481 1071T564 1019T617 939T635 838Z"/><glyph unicode="⁶" horiz-adv-x="721" d="M82 965Q82 1081 102 1166T161 1308T252 1393T373 1421Q456 1421 516 1378T604 1247L539 1235Q519 1300 475 1329T371 1358Q322 1358 282 1336T212 1269T166 1152T150 981Q182 1044 241 1078T375 1112Q432 1112 478 1093T558 1039T610 953T629 840Q629 776 611 723T559 632T476 572T362 551Q230 551 156 652T82 965ZM162 870Q162 821 174 775T212 692T274 634T360 612Q453 612 505 671T557 834Q557 883 543 923T503 991T440 1035T354 1051Q319 1051 285 1039T224 1004T179 947T162 870Z"/><glyph unicode="⁷" horiz-adv-x="721" d="M649 1343Q588 1254 530 1160T426 967T352 767T324 563H254Q254 667 282 768T355 967T459 1158T578 1341H55V1409H649V1343Z"/><glyph unicode="⁸" horiz-adv-x="721" d="M633 793Q633 740 618 696T570 619T486 569T365 551Q293 551 241 569T154 620T103 697T86 793Q86 839 101 875T141 937T200 981T268 1004V1006Q230 1014 201 1033T151 1078T120 1137T109 1206Q109 1251 125 1290T174 1358T253 1404T362 1421Q424 1421 470 1404T548 1358T594 1290T610 1206Q610 1169 600 1136T569 1077T519 1032T449 1006V1004Q487 997 520 980T579 937T618 874T633 793ZM541 1200Q541 1234 531 1263T499 1313T444 1346T362 1358Q313 1358 278 1346T221 1313T189 1263T178 1200Q178 1173 185 1144T213 1091T269 1052T358 1036Q418 1036 454 1051T509 1091T535 1144T541 1200ZM561 793Q561 827 551 860T517 918T454 959T358 975Q305 975 267 960T205 920T170 861T158 793Q158 753 170 720T207 662T271 625T367 612Q420 612 457 625T517 661T550 718T561 793Z"/><glyph unicode="⁹" horiz-adv-x="721" d="M631 1010Q631 897 610 812T549 669T456 582T336 553Q290 553 254 566T189 603T142 657T113 725L180 745Q217 616 340 616Q443 616 502 709T563 997Q550 964 527 939T472 897T405 871T332 862Q274 862 228 883T150 943T101 1032T84 1145Q84 1207 103 1258T157 1346T241 1403T350 1423Q482 1423 556 1321T631 1010ZM551 1110Q551 1160 539 1205T501 1286T439 1341T352 1362Q259 1362 208 1304T156 1147Q156 1098 167 1057T201 987T260 941T344 924Q384 924 421 936T487 973T533 1031T551 1110Z"/><glyph unicode="€" horiz-adv-x="1065" d="M244 707Q244 684 244 661T246 616H750V551H252Q264 436 295 343T374 184T486 83T631 47Q699 47 750 68T838 127T899 212T938 313L1012 301Q997 239 968 182T893 79T783 7T631 -20Q531 -20 452 20T314 135T220 314T170 551H29V616H166Q164 638 164 661T164 707Q164 728 164 750T166 795H29V858H170Q184 991 222 1097T319 1277T457 1390T631 1430Q704 1430 766 1409T876 1350T956 1258T1004 1139L926 1124Q912 1179 885 1222T821 1296T736 1342T635 1358Q557 1358 492 1326T377 1230T295 1074T250 858H750V795H246Q244 773 244 752T244 707Z"/><glyph unicode="™" horiz-adv-x="1546" d="M1296 768V1184Q1296 1204 1296 1230T1299 1281Q1301 1309 1303 1339L1067 768H997L768 1339Q770 1306 772 1277Q774 1252 775 1228T776 1192V768H707V1409H811L1032 854H1036L1270 1409H1368V768H1296ZM365 1343V768H293V1343H72V1409H588V1343H365Z"/><glyph unicode="ﬁ" horiz-adv-x="907" d="M268 946V0H195V946H49V1014H195V1184Q195 1241 202 1290T231 1375T294 1433T403 1454Q422 1454 442 1452T477 1444V1382Q462 1385 441 1388T401 1391Q359 1391 333 1376T293 1333T273 1267T268 1184V1014H477V946H268ZM655 1317V1454H729V1317H655ZM655 0V1014H729V0H655Z"/><glyph unicode="ﬂ" horiz-adv-x="907" d="M268 946V0H195V946H49V1014H195V1184Q195 1241 202 1290T231 1375T294 1433T403 1454Q422 1454 442 1452T477 1444V1382Q462 1385 441 1388T401 1391Q359 1391 333 1376T293 1333T273 1267T268 1184V1014H477V946H268ZM655 0V1454H729V0H655Z"/></font>
</defs>
</svg>
